<?xml version="1.0" encoding="iso-8859-1"?>
<!-- Generator: Adobe Illustrator 19.0.0, SVG Export Plug-In . SVG Version: 6.00 Build 0)  -->
<svg xmlns="http://www.w3.org/2000/svg" xmlns:xlink="http://www.w3.org/1999/xlink" version="1.1" id="Capa_1" x="0px" y="0px" viewBox="0 0 512 512" style="enable-background:new 0 0 512 512;" xml:space="preserve">
<path style="fill:#A0D860;" d="M445.999,29.893v452.215c0,12.378-10.034,22.412-22.412,22.412H88.412  C76.034,504.519,66,494.485,66,482.107V29.893C66,17.515,76.034,7.481,88.412,7.481h335.175  C435.965,7.481,445.999,17.515,445.999,29.893z"/>
<path style="fill:#61C979;" d="M423.587,7.481H389.01c12.378,0,22.412,10.034,22.412,22.412v452.215  c0,12.378-10.034,22.412-22.412,22.412h34.578c12.378,0,22.412-10.034,22.412-22.412V29.893  C445.999,17.515,435.965,7.481,423.587,7.481z"/>
<path style="fill:#FFFCFD;" d="M388.036,150.776H123.963c-5.07,0-9.18-4.11-9.18-9.18V48.163c0-5.07,4.11-9.18,9.18-9.18h264.073  c5.07,0,9.18,4.11,9.18,9.18v93.432C397.216,146.667,393.106,150.776,388.036,150.776z"/>
<g>
	<path style="fill:#FFB427;" d="M222.858,215.36h-20.946c-3.948,0-7.149-3.201-7.149-7.149v-20.946c0-3.948,3.201-7.148,7.149-7.148   h20.946c3.948,0,7.149,3.201,7.149,7.148v20.946C230.007,212.159,226.807,215.36,222.858,215.36z"/>
	<path style="fill:#FFB427;" d="M145.612,215.36h-20.946c-3.948,0-7.149-3.201-7.149-7.149v-20.946c0-3.948,3.201-7.148,7.149-7.148   h20.946c3.948,0,7.149,3.201,7.149,7.148v20.946C152.759,212.159,149.56,215.36,145.612,215.36z"/>
	<path style="fill:#FFB427;" d="M310.087,215.36h-20.946c-3.948,0-7.148-3.201-7.148-7.149v-20.946c0-3.948,3.201-7.148,7.148-7.148   h20.946c3.948,0,7.149,3.201,7.149,7.148v20.946C317.234,212.159,314.034,215.36,310.087,215.36z"/>
	<path style="fill:#FFB427;" d="M387.334,215.36h-20.946c-3.948,0-7.148-3.201-7.148-7.149v-20.946c0-3.948,3.201-7.148,7.148-7.148   h20.946c3.948,0,7.148,3.201,7.148,7.148v20.946C394.481,212.159,391.282,215.36,387.334,215.36z"/>
</g>
<path style="fill:#E4E4E4;" d="M388.036,38.983h-34.803c5.07,0,9.18,4.11,9.18,9.18v79.453c0,5.077-4.115,9.192-9.192,9.192H114.783  v4.788c0,5.07,4.11,9.18,9.18,9.18h264.073c5.07,0,9.18-4.11,9.18-9.18V48.163C397.216,43.094,393.106,38.983,388.036,38.983z"/>
<circle style="fill:#0072A2;" cx="255.998" cy="360.997" r="119.022"/>
<g>
	<path style="fill:#1A1A1A;" d="M423.588,0H88.412C71.929,0,58.519,13.409,58.519,29.893v312.634c0,4.132,3.348,7.481,7.481,7.481   c4.132,0,7.481-3.348,7.481-7.481V29.893c0-8.233,6.699-14.931,14.931-14.931h335.176c8.233,0,14.931,6.699,14.931,14.931v452.216   c0,8.233-6.699,14.931-14.931,14.931H88.412c-8.233,0-14.931-6.699-14.931-14.931V379.181c0-4.132-3.348-7.481-7.481-7.481   s-7.481,3.348-7.481,7.481v102.926C58.519,498.59,71.928,512,88.412,512h335.176c16.482,0,29.893-13.409,29.893-29.893V29.893   C453.48,13.409,440.071,0,423.588,0z"/>
	<path style="fill:#1A1A1A;" d="M123.963,46.464h187.726c4.132,0,7.481-3.348,7.481-7.481s-3.348-7.481-7.481-7.481H123.963   c-9.187,0-16.661,7.474-16.661,16.661v93.433c0,9.186,7.474,16.66,16.661,16.66h264.073c9.187,0,16.661-7.474,16.661-16.66V48.163   c0-9.187-7.474-16.661-16.661-16.661h-41.105c-4.132,0-7.481,3.348-7.481,7.481s3.348,7.481,7.481,7.481h41.105   c0.937,0,1.7,0.763,1.7,1.7v93.433c0,0.937-0.763,1.699-1.7,1.699H123.963c-0.937,0-1.7-0.762-1.7-1.699V48.163   C122.263,47.227,123.026,46.464,123.963,46.464z"/>
	<path style="fill:#1A1A1A;" d="M222.859,222.841c8.067,0,14.629-6.562,14.629-14.629v-20.946c0-8.067-6.562-14.629-14.629-14.629   h-20.946c-8.067,0-14.629,6.562-14.629,14.629v20.946c0,8.067,6.562,14.629,14.629,14.629L222.859,222.841L222.859,222.841z    M202.246,187.598h20.282v20.282h-20.282V187.598z"/>
	<path style="fill:#1A1A1A;" d="M160.24,208.212v-20.946c0-8.067-6.562-14.629-14.629-14.629h-20.946   c-8.066,0-14.628,6.562-14.628,14.629v20.946c0,8.067,6.562,14.629,14.628,14.629h20.946   C153.678,222.841,160.24,216.279,160.24,208.212z M145.279,207.879h-20.281v-20.282h20.281V207.879z"/>
	<path style="fill:#1A1A1A;" d="M310.087,222.841c8.067,0,14.629-6.562,14.629-14.629v-20.946c0-8.067-6.562-14.629-14.629-14.629   h-20.946c-8.067,0-14.629,6.562-14.629,14.629v20.946c0,8.067,6.562,14.629,14.629,14.629L310.087,222.841L310.087,222.841z    M289.473,187.598h20.282v20.282h-20.282V187.598z"/>
	<path style="fill:#1A1A1A;" d="M401.962,208.212v-20.946c0-8.067-6.562-14.629-14.628-14.629h-20.946   c-8.067,0-14.629,6.562-14.629,14.629v20.946c0,8.067,6.562,14.629,14.629,14.629h20.946   C395.4,222.841,401.962,216.279,401.962,208.212z M387.001,207.879H366.72v-20.282h20.281V207.879z"/>
	<path style="fill:#1A1A1A;" d="M133.885,394.026c6.806,25.134,21.181,47.185,40.52,63.549c0.429,0.462,0.913,0.87,1.445,1.212   c21.836,17.929,49.757,28.705,80.15,28.705c30.68,0,58.84-10.982,80.766-29.215c0.013-0.011,0.025-0.022,0.038-0.032   c10.394-8.651,19.38-18.934,26.57-30.45c0.079-0.115,0.149-0.234,0.221-0.354c6.347-10.239,11.27-21.445,14.5-33.342   c0.116-0.335,0.212-0.679,0.28-1.034c2.687-10.247,4.123-20.994,4.123-32.071c0-11.447-1.537-22.54-4.401-33.093   c-0.068-0.357-0.166-0.703-0.282-1.04c-3.223-11.488-8.033-22.317-14.175-32.241c-0.232-0.476-0.512-0.924-0.835-1.337   c-7.916-12.442-17.945-23.41-29.577-32.404c-0.417-0.407-0.883-0.761-1.384-1.062c-21.147-15.892-47.414-25.322-75.845-25.322   c-28.433,0-54.704,9.432-75.852,25.327c-0.495,0.297-0.954,0.646-1.364,1.047c-11.613,8.977-21.629,19.921-29.54,32.334   c-0.365,0.453-0.674,0.953-0.928,1.484c-11.923,19.293-18.815,42.008-18.815,66.307c0,11.098,1.442,21.865,4.139,32.129   C133.702,393.431,133.787,393.731,133.885,394.026z M159.346,305.372h193.306c3.023,5.233,5.628,10.735,7.781,16.457H151.566   C153.718,316.108,156.323,310.606,159.346,305.372z M186.642,273.707h138.715c6.221,4.953,11.903,10.555,16.941,16.704H169.701   C174.74,284.262,180.421,278.66,186.642,273.707z M352.952,416.086H159.047c-3.074-5.389-5.714-11.056-7.868-16.956h209.64   C358.666,405.03,356.026,410.697,352.952,416.086z M329.276,445.011H182.723c-4.874-4.257-9.373-8.931-13.446-13.964h173.445   C338.649,436.08,334.15,440.755,329.276,445.011z M146.891,384.169c-1.085-5.113-1.816-10.353-2.171-15.695h222.562   c-0.355,5.342-1.087,10.584-2.171,15.695H146.891z M364.885,336.791c1.208,5.436,2.016,11.021,2.396,16.721H144.718   c0.379-5.7,1.188-11.284,2.396-16.721H364.885z M204.627,459.973h102.744c-15.384,8.017-32.857,12.558-51.372,12.558   S220.012,467.99,204.627,459.973z M300.543,258.746h-89.087c13.652-5.971,28.716-9.291,44.543-9.291   S286.892,252.775,300.543,258.746z"/>
</g>
<g>
</g>
<g>
</g>
<g>
</g>
<g>
</g>
<g>
</g>
<g>
</g>
<g>
</g>
<g>
</g>
<g>
</g>
<g>
</g>
<g>
</g>
<g>
</g>
<g>
</g>
<g>
</g>
<g>
</g>
</svg>
