<?xml version="1.0" encoding="iso-8859-1"?>
<!-- Generator: Adobe Illustrator 19.0.0, SVG Export Plug-In . SVG Version: 6.00 Build 0)  -->
<svg xmlns="http://www.w3.org/2000/svg" xmlns:xlink="http://www.w3.org/1999/xlink" version="1.1" id="Capa_1" x="0px" y="0px" viewBox="0 0 512 512" style="enable-background:new 0 0 512 512;" xml:space="preserve">
<path style="fill:#A0D860;" d="M406.174,336.735c0,21.618,17.525,39.144,39.144,39.144c21.619,0,39.144-17.525,39.144-39.144  c0-17.426-25.433-50.523-35.298-74.469c-1.416-3.436-6.276-3.436-7.692,0C431.607,286.212,406.174,319.31,406.174,336.735z"/>
<path style="fill:#61C979;" d="M445.318,259.69v116.189c21.619,0,39.144-17.525,39.144-39.144c0-17.426-25.433-50.523-35.298-74.469  C448.457,260.549,446.887,259.69,445.318,259.69z"/>
<rect x="87.56" y="150.1" style="fill:#0072A2;" width="35.567" height="36.66"/>
<rect x="105.34" y="150.1" style="fill:#006289;" width="17.784" height="36.66"/>
<g>
	<path style="fill:#0072A2;" d="M79.525,152.777h51.638c2.064,0,3.737-1.673,3.737-3.737v-38.35c0-2.064-1.673-3.737-3.737-3.737   H79.525c-2.064,0-3.737,1.673-3.737,3.737v38.349C75.788,151.103,77.461,152.777,79.525,152.777z"/>
	<path style="fill:#0072A2;" d="M26.753,147.322l49.035-5.32v-24.274l-49.035-5.32c-10.387-1.127-19.454,7.01-19.454,17.457l0,0   C7.299,140.312,16.367,148.449,26.753,147.322z"/>
	<path style="fill:#0072A2;" d="M183.936,147.322l-49.035-5.32v-24.274l49.035-5.32c10.387-1.127,19.454,7.01,19.454,17.457l0,0   C203.39,140.312,194.323,148.449,183.936,147.322z"/>
</g>
<path style="fill:#FFB427;" d="M494.702,122.75H380.723c-2.111,0-4.177,0.612-5.947,1.762L154.078,269.822v-64.049  c0-11.959-9.695-21.654-21.654-21.654H78.265c-11.959,0-21.654,9.695-21.654,21.654v193.575c0,3.355,2.72,6.075,6.075,6.075h89.043  c1.57,0,3.078-0.608,4.21-1.695l221.36-212.768c0.072-0.069,0.191-0.018,0.191,0.081v19.5c0,3.97,3.218,7.188,7.188,7.188H498.43  c3.97,0,7.188-3.218,7.188-7.188v-76.876C505.617,127.637,500.73,122.75,494.702,122.75z"/>
<g>
	<path style="fill:#FF9D00;" d="M377.489,191.041v-30.167c0-0.513-0.615-0.776-0.986-0.421L122.604,403.728   c-1.132,1.088-2.64,1.695-4.21,1.695h33.335c1.57,0,3.078-0.608,4.21-1.695L377.298,190.96   C377.37,190.891,377.489,190.942,377.489,191.041z"/>
	<path style="fill:#FF9D00;" d="M494.702,122.75h-33.335c6.028,0,10.915,4.887,10.915,10.915v76.876c0,3.97-3.218,7.188-7.188,7.188   h33.335c3.97,0,7.188-3.218,7.188-7.188v-76.876C505.617,127.637,500.73,122.75,494.702,122.75z"/>
	<path style="fill:#FF9D00;" d="M154.078,269.822v-64.049c0-11.959-9.695-21.654-21.654-21.654h-11.635v99.369   c0,3.715,4.147,5.924,7.23,3.851L154.078,269.822z"/>
</g>
<path style="fill:#006289;" d="M131.164,106.953h-25.819v45.824h25.819c2.064,0,3.737-1.673,3.737-3.737v-38.35  C134.901,108.626,133.228,106.953,131.164,106.953z"/>
<g>
	<path style="fill:#1A1A1A;" d="M493.807,115.709h-35.499c-4.032,0-7.3,3.268-7.3,7.3c0,4.032,3.268,7.3,7.3,7.3h35.499   c1.982,0,3.594,1.61,3.594,3.59v76.577H384.122v-19.329c0-2.976-1.769-5.652-4.506-6.819c-2.737-1.17-5.892-0.588-8.041,1.473   l-220.57,211.947H63.87v-37.616c0-4.032-3.268-7.3-7.3-7.3s-7.3,3.268-7.3,7.3v38.853c0,7.368,5.995,13.362,13.363,13.362h88.869   c3.47,0,6.759-1.324,9.259-3.728l208.761-200.6v2.582c0,7.98,6.493,14.472,14.474,14.472h113.53   c7.981,0,14.474-6.492,14.474-14.472v-76.704C512,123.869,503.838,115.709,493.807,115.709z"/>
	<path style="fill:#1A1A1A;" d="M79.525,160.077h0.736v16.863h-2.079c-15.942,0-28.912,12.966-28.912,28.905v119.481   c0,4.032,3.268,7.3,7.3,7.3s7.3-3.268,7.3-7.3V205.844c0-7.888,6.42-14.305,14.313-14.305h54.053   c7.892,0,14.312,6.418,14.312,14.305v63.905c0,2.684,1.473,5.152,3.836,6.426c2.364,1.273,5.235,1.148,7.477-0.329l220.232-144.96   c0.583-0.378,1.26-0.579,1.958-0.579h43.501c4.032,0,7.3-3.268,7.3-7.3c0-4.032-3.268-7.3-7.3-7.3h-43.501   c-3.527,0-6.955,1.015-9.948,2.96l-208.956,137.54v-50.362c0-15.938-12.97-28.905-28.911-28.905h-1.808v-16.863h0.736   c5.718,0,10.432-4.371,10.982-9.947l41.003,4.449c0.899,0.098,1.811,0.147,2.71,0.147c13.692,0,24.831-11.154,24.831-24.862   c0-13.709-11.139-24.861-24.831-24.861c-0.899,0-1.811,0.049-2.71,0.147l-41.003,4.449c-0.549-5.576-5.264-9.947-10.982-9.947   H79.525c-5.718,0-10.433,4.371-10.982,9.947L27.54,105.15c-0.899-0.098-1.811-0.147-2.71-0.147C11.139,105.003,0,116.157,0,129.865   s11.139,24.861,24.83,24.861c0.899,0,1.811-0.049,2.71-0.147l41.003-4.449C69.093,155.705,73.808,160.077,79.525,160.077z    M142.201,124.278l42.522-4.615c0.378-0.041,0.76-0.062,1.136-0.062c5.642,0,10.232,4.604,10.232,10.263   c0,5.658-4.59,10.262-10.232,10.262c-0.375,0-0.758-0.021-1.135-0.062l-42.522-4.615v-11.171H142.201z M115.828,176.819H94.861   v-16.742h20.968L115.828,176.819L115.828,176.819z M83.087,142.002v-24.274v-3.476h44.515v3.476v24.274v3.476h-4.474H87.561h-4.474   V142.002z M68.488,135.451l-42.522,4.615c-0.378,0.041-0.76,0.062-1.136,0.062c-5.641,0-10.231-4.604-10.231-10.263   c0-5.658,4.59-10.262,10.231-10.262c0.375,0,0.758,0.021,1.135,0.062l42.522,4.615L68.488,135.451L68.488,135.451z"/>
	<path style="fill:#1A1A1A;" d="M455.914,259.485c-1.777-4.309-5.936-7.094-10.596-7.094s-8.819,2.785-10.595,7.096   c-3.619,8.784-9.699,19.311-15.578,29.49c-10.425,18.048-20.271,35.096-20.271,47.759c0,25.608,20.834,46.443,46.444,46.443   s46.444-20.834,46.444-46.443c0-12.663-9.846-29.711-20.271-47.76C465.613,278.796,459.532,268.27,455.914,259.485z    M445.318,368.579c-17.559,0-31.844-14.285-31.844-31.843c0-8.749,9.729-25.595,18.314-40.457   c4.789-8.293,9.707-16.808,13.531-24.761c3.824,7.953,8.741,16.467,13.531,24.76c8.585,14.863,18.314,31.708,18.314,40.458   C477.163,354.296,462.877,368.579,445.318,368.579z"/>
</g>
<g>
</g>
<g>
</g>
<g>
</g>
<g>
</g>
<g>
</g>
<g>
</g>
<g>
</g>
<g>
</g>
<g>
</g>
<g>
</g>
<g>
</g>
<g>
</g>
<g>
</g>
<g>
</g>
<g>
</g>
</svg>
