<?xml version="1.0" encoding="iso-8859-1"?>
<!-- Generator: Adobe Illustrator 19.0.0, SVG Export Plug-In . SVG Version: 6.00 Build 0)  -->
<svg xmlns="http://www.w3.org/2000/svg" xmlns:xlink="http://www.w3.org/1999/xlink" version="1.1" id="Capa_1" x="0px" y="0px" viewBox="0 0 511.999 511.999" style="enable-background:new 0 0 511.999 511.999;" xml:space="preserve">
<path style="fill:#A0D860;" d="M382.446,504.469H129.552c-17.825,0-32.274-14.45-32.274-32.274V39.805  c0-17.825,14.45-32.274,32.274-32.274h252.894c17.825,0,32.274,14.45,32.274,32.274v432.39  C414.72,490.02,400.27,504.469,382.446,504.469z"/>
<path style="fill:#61C979;" d="M382.446,7.53h-35.034c17.825,0,32.274,14.45,32.274,32.274v432.39  c0,17.824-14.45,32.274-32.274,32.274h35.034c17.825,0,32.274-14.45,32.274-32.274V39.805C414.72,21.98,400.27,7.53,382.446,7.53z"/>
<path style="fill:#255568;" d="M147.108,363.223c-12.923,0-23.436-10.513-23.436-23.436v-20.249  c0-12.923,10.514-23.436,23.436-23.436h30.024c12.923,0,23.436,10.513,23.436,23.436v20.249c0,12.923-10.514,23.436-23.436,23.436  H147.108z"/>
<path style="fill:#FF4D4A;" d="M177.132,356.194h-30.024c-9.062,0-16.408-7.346-16.408-16.408v-20.249  c0-9.062,7.346-16.408,16.408-16.408h30.024c9.062,0,16.408,7.346,16.408,16.408v20.249  C193.54,348.848,186.194,356.194,177.132,356.194z"/>
<path style="fill:#255568;" d="M240.987,363.223c-12.923,0-23.437-10.513-23.437-23.436v-20.249  c0-12.923,10.514-23.436,23.437-23.436h30.024c12.923,0,23.436,10.513,23.436,23.436v20.249c0,12.923-10.513,23.436-23.436,23.436  H240.987z"/>
<path style="fill:#FF4D4A;" d="M271.011,356.194h-30.024c-9.062,0-16.408-7.346-16.408-16.408v-20.249  c0-9.062,7.346-16.408,16.408-16.408h30.024c9.062,0,16.408,7.346,16.408,16.408v20.249  C287.419,348.848,280.073,356.194,271.011,356.194z"/>
<path style="fill:#255568;" d="M334.866,363.223c-12.923,0-23.436-10.513-23.436-23.436v-20.249  c0-12.923,10.513-23.436,23.436-23.436h30.024c12.923,0,23.436,10.513,23.436,23.436v20.249c0,12.923-10.513,23.436-23.436,23.436  H334.866z"/>
<path style="fill:#FF4D4A;" d="M364.89,356.194h-30.024c-9.062,0-16.408-7.346-16.408-16.408v-20.249  c0-9.062,7.346-16.408,16.408-16.408h30.024c9.062,0,16.408,7.346,16.408,16.408v20.249  C381.298,348.848,373.952,356.194,364.89,356.194z"/>
<path style="fill:#255568;" d="M147.108,453.05c-12.923,0-23.436-10.514-23.436-23.437v-20.248  c0-12.923,10.514-23.437,23.436-23.437h30.024c12.923,0,23.436,10.514,23.436,23.437v20.248c0,12.923-10.514,23.437-23.436,23.437  H147.108z"/>
<path style="fill:#FF4D4A;" d="M177.132,446.021h-30.024c-9.062,0-16.408-7.346-16.408-16.408v-20.249  c0-9.062,7.346-16.408,16.408-16.408h30.024c9.062,0,16.408,7.346,16.408,16.408v20.249  C193.54,438.675,186.194,446.021,177.132,446.021z"/>
<path style="fill:#255568;" d="M240.987,453.05c-12.923,0-23.437-10.514-23.437-23.437v-20.248  c0-12.923,10.514-23.437,23.437-23.437h30.024c12.923,0,23.436,10.514,23.436,23.437v20.248c0,12.923-10.513,23.437-23.436,23.437  H240.987z"/>
<path style="fill:#FF4D4A;" d="M271.011,446.021h-30.024c-9.062,0-16.408-7.346-16.408-16.408v-20.249  c0-9.062,7.346-16.408,16.408-16.408h30.024c9.062,0,16.408,7.346,16.408,16.408v20.249  C287.419,438.675,280.073,446.021,271.011,446.021z"/>
<path style="fill:#255568;" d="M334.866,453.05c-12.923,0-23.436-10.514-23.436-23.437v-20.248  c0-12.923,10.513-23.437,23.436-23.437h30.024c12.923,0,23.436,10.514,23.436,23.437v20.248c0,12.923-10.513,23.437-23.436,23.437  H334.866z"/>
<path style="fill:#FF4D4A;" d="M364.89,446.021h-30.024c-9.062,0-16.408-7.346-16.408-16.408v-20.249  c0-9.062,7.346-16.408,16.408-16.408h30.024c9.062,0,16.408,7.346,16.408,16.408v20.249  C381.298,438.675,373.952,446.021,364.89,446.021z"/>
<path style="fill:#FFFCFD;" d="M365.168,255.881H146.829c-6.756,0-12.233-5.477-12.233-12.233V52.489  c0-6.756,5.477-12.233,12.233-12.233h218.339c6.756,0,12.233,5.477,12.233,12.233v191.16  C377.401,250.404,371.924,255.881,365.168,255.881z"/>
<path style="fill:#E4E4E4;" d="M365.168,40.256h-33.654c6.756,0,12.233,5.477,12.233,12.232v176.356  c0,5.139-4.166,9.304-9.304,9.304H134.597v5.499c0,6.756,5.477,12.232,12.232,12.232h184.685h33.654  c6.756,0,12.233-5.477,12.233-12.233v-27.779V52.489C377.401,45.733,371.924,40.256,365.168,40.256z"/>
<path style="fill:#FFB427;" d="M255.173,72.881l-79.447,69.142c-0.896,0.78-0.345,2.254,0.843,2.254h18.332v78.435  c0,1.99,1.613,3.604,3.604,3.604h114.988c1.99,0,3.604-1.613,3.604-3.604v-78.435h18.332c1.188,0,1.74-1.474,0.843-2.254  l-79.447-69.142C256.351,72.469,255.646,72.469,255.173,72.881z"/>
<rect x="229.719" y="157.19" style="fill:#D96B37;" width="50.872" height="69.13"/>
<rect x="254.979" y="157.19" style="fill:#B14418;" width="25.613" height="69.13"/>
<g>
	<path style="fill:#1A1A1A;" d="M382.446,0H129.552c-21.948,0-39.804,17.856-39.804,39.804v432.39   c0,21.949,17.856,39.805,39.804,39.805h252.894c21.949,0,39.805-17.856,39.805-39.805V39.804C422.251,17.856,404.394,0,382.446,0z    M407.19,472.195c0,13.644-11.1,24.744-24.744,24.744H129.552c-13.643,0-24.743-11.1-24.743-24.744V39.804   c0-13.644,11.1-24.743,24.743-24.743h252.894c13.644,0,24.744,11.1,24.744,24.743L407.19,472.195L407.19,472.195z"/>
	<path style="fill:#1A1A1A;" d="M177.132,295.599h-30.024c-13.2,0-23.938,10.739-23.938,23.938v20.249   c0,13.2,10.739,23.938,23.938,23.938h30.024c13.2,0,23.938-10.739,23.938-23.938v-20.249   C201.07,306.338,190.332,295.599,177.132,295.599z M186.01,339.786c0,4.895-3.982,8.878-8.878,8.878h-30.024   c-4.895,0-8.878-3.983-8.878-8.878v-20.249c0-4.895,3.982-8.878,8.878-8.878h30.024c4.895,0,8.878,3.983,8.878,8.878V339.786z"/>
	<path style="fill:#1A1A1A;" d="M271.011,295.599h-30.024c-13.2,0-23.939,10.739-23.939,23.938v20.249   c0,13.2,10.739,23.938,23.939,23.938h30.024c13.2,0,23.939-10.739,23.939-23.938v-20.249   C294.95,306.338,284.21,295.599,271.011,295.599z M279.889,339.786c0,4.895-3.983,8.878-8.878,8.878h-30.024   c-4.895,0-8.878-3.983-8.878-8.878v-20.249c0-4.895,3.983-8.878,8.878-8.878h30.024c4.895,0,8.878,3.983,8.878,8.878V339.786z"/>
	<path style="fill:#1A1A1A;" d="M364.89,295.599h-30.024c-13.2,0-23.939,10.739-23.939,23.938v20.249   c0,13.2,10.739,23.938,23.939,23.938h30.024c13.2,0,23.938-10.739,23.938-23.938v-20.249   C388.828,306.338,378.089,295.599,364.89,295.599z M373.767,339.786c0,4.895-3.982,8.878-8.878,8.878h-30.024   c-4.895,0-8.878-3.983-8.878-8.878v-20.249c0-4.895,3.983-8.878,8.878-8.878h30.024c4.895,0,8.878,3.983,8.878,8.878V339.786z"/>
	<path style="fill:#1A1A1A;" d="M176.569,151.808h10.802v70.903c0,6.14,4.995,11.135,11.134,11.135h31.212h50.872h32.904   c6.139,0,11.134-4.995,11.134-11.135v-70.903h10.802c3.713,0,6.953-2.246,8.256-5.724c1.302-3.477,0.334-7.3-2.468-9.74   L261.767,67.2c-1.6-1.391-3.648-2.157-5.767-2.157c-2.12,0-4.168,0.766-5.77,2.159l-79.449,69.143   c-2.8,2.44-3.768,6.263-2.467,9.74C169.615,149.562,172.855,151.808,176.569,151.808z M273.058,218.786h-35.811v-54.07h35.811   V218.786z M255.998,82.145l62.74,54.602h-1.642c-4.159,0-7.53,3.371-7.53,7.53v74.508h-21.447v-61.6c0-4.159-3.372-7.53-7.53-7.53   h-50.872c-4.159,0-7.53,3.371-7.53,7.53v61.6h-19.755v-74.508c0-4.159-3.372-7.53-7.53-7.53h-1.642L255.998,82.145z"/>
	<path style="fill:#1A1A1A;" d="M177.132,385.425h-30.024c-13.2,0-23.938,10.74-23.938,23.939v20.248   c0,13.2,10.739,23.939,23.938,23.939h30.024c13.2,0,23.938-10.74,23.938-23.939v-20.248   C201.07,396.165,190.332,385.425,177.132,385.425z M186.01,429.613c0,4.896-3.982,8.879-8.878,8.879h-30.024   c-4.895,0-8.878-3.983-8.878-8.879v-20.248c0-4.896,3.982-8.879,8.878-8.879h30.024c4.895,0,8.878,3.983,8.878,8.879V429.613z"/>
	<path style="fill:#1A1A1A;" d="M271.011,385.425h-30.024c-13.2,0-23.939,10.74-23.939,23.939v20.248   c0,13.2,10.739,23.939,23.939,23.939h30.024c13.2,0,23.939-10.74,23.939-23.939v-20.248   C294.95,396.165,284.21,385.425,271.011,385.425z M279.889,429.613c0,4.896-3.983,8.879-8.878,8.879h-30.024   c-4.895,0-8.878-3.983-8.878-8.879v-20.248c0-4.896,3.983-8.879,8.878-8.879h30.024c4.895,0,8.878,3.983,8.878,8.879V429.613z"/>
	<path style="fill:#1A1A1A;" d="M364.89,385.425h-30.024c-13.2,0-23.939,10.74-23.939,23.939v20.248   c0,13.2,10.739,23.939,23.939,23.939h30.024c13.2,0,23.938-10.74,23.938-23.939v-20.248   C388.828,396.165,378.089,385.425,364.89,385.425z M373.767,429.613c0,4.896-3.982,8.879-8.878,8.879h-30.024   c-4.895,0-8.878-3.983-8.878-8.879v-20.248c0-4.896,3.983-8.879,8.878-8.879h30.024c4.895,0,8.878,3.983,8.878,8.879V429.613z"/>
	<path style="fill:#1A1A1A;" d="M146.829,263.411h218.339c10.898,0,19.763-8.866,19.763-19.763V52.488   c0-10.897-8.865-19.762-19.763-19.762H146.829c-10.898,0-19.763,8.866-19.763,19.762v191.16   C127.067,254.545,135.932,263.411,146.829,263.411z M142.127,52.488c0-2.592,2.11-4.702,4.702-4.702h218.339   c2.592,0,4.702,2.109,4.702,4.702v191.16c0,2.593-2.11,4.703-4.702,4.703H146.829c-2.592,0-4.702-2.109-4.702-4.703V52.488z"/>
</g>
<g>
</g>
<g>
</g>
<g>
</g>
<g>
</g>
<g>
</g>
<g>
</g>
<g>
</g>
<g>
</g>
<g>
</g>
<g>
</g>
<g>
</g>
<g>
</g>
<g>
</g>
<g>
</g>
<g>
</g>
</svg>
