<?xml version="1.0" encoding="iso-8859-1"?>
<!-- Generator: Adobe Illustrator 19.0.0, SVG Export Plug-In . SVG Version: 6.00 Build 0)  -->
<svg xmlns="http://www.w3.org/2000/svg" xmlns:xlink="http://www.w3.org/1999/xlink" version="1.1" id="Capa_1" x="0px" y="0px" viewBox="0 0 512.002 512.002" style="enable-background:new 0 0 512.002 512.002;" xml:space="preserve">
<path style="fill:#0072A2;" d="M278.661,354.171h-37.876v90.877H69.3c-4.103,0-7.428,3.326-7.428,7.428v23.019  c0,4.103,3.326,7.428,7.428,7.428h379.634c4.103,0,7.428-3.326,7.428-7.428v-23.019c0-4.103-3.326-7.428-7.428-7.428H278.661  V354.171z"/>
<path style="fill:#006289;" d="M448.933,445.048h-25.832v37.876h25.832c4.103,0,7.428-3.326,7.428-7.428v-23.019  C456.362,448.373,453.036,445.048,448.933,445.048z"/>
<path style="fill:#FF4D4A;" d="M253.868,8.042l-88.191,72.366V51.721h-54.041v73.031l-62.911,51.622  c-2.314,1.899-0.89,5.487,2.178,5.487h47.336v190.955c0,4.845,4.166,8.773,9.305,8.773h296.914c5.139,0,9.305-3.928,9.305-8.773  V181.861h47.336c3.067,0,4.492-3.588,2.178-5.487L258.134,8.042C256.911,7.039,255.091,7.039,253.868,8.042z"/>
<path style="fill:#E13F33;" d="M463.277,176.374L258.134,8.042c-1.223-1.003-3.043-1.003-4.266,0L229.6,27.955l150.99,123.896  v220.964c0,4.845-4.166,8.773-9.305,8.773h33.173c5.139,0,9.305-3.928,9.305-8.773V181.861h47.336  C464.166,181.861,465.591,178.273,463.277,176.374z"/>
<path style="fill:#F7F9F9;" d="M301.021,220.691h-83.81c-6.278,0-11.367,5.089-11.367,11.367v149.53h106.544v-149.53  C312.389,225.781,307.299,220.691,301.021,220.691z"/>
<path style="fill:#E4E4E4;" d="M301.021,220.691h-33.26c6.278,0,11.367,5.089,11.367,11.367v149.53h33.26v-149.53  C312.389,225.781,307.299,220.691,301.021,220.691z"/>
<path style="fill:#FFB427;" d="M293.444,504.714h-67.44c-9.219,0-16.693-7.474-16.693-16.693v-56.514  c0-9.219,7.474-16.693,16.693-16.693h67.44c9.219,0,16.693,7.474,16.693,16.693v56.514  C310.137,497.24,302.663,504.714,293.444,504.714z"/>
<path style="fill:#FF9D00;" d="M293.444,414.813h-16.567v89.901h16.567c9.219,0,16.693-7.474,16.693-16.693v-56.514  C310.137,422.287,302.663,414.813,293.444,414.813z"/>
<path style="fill:#FFB427;" d="M173.541,31.196h-71.927c-1.849,0-3.347,1.499-3.347,3.347V51.29c0,1.849,1.499,3.347,3.347,3.347  h71.927c1.849,0,3.347-1.499,3.347-3.347V34.543C176.888,32.694,175.39,31.196,173.541,31.196z"/>
<path style="fill:#FF9D00;" d="M176.85,34.16c-0.193-1.665-1.591-2.963-3.309-2.963h-29.896v23.441h29.896  c1.717,0,3.116-1.298,3.309-2.963V34.16z"/>
<path style="fill:#1A1A1A;" d="M467.9,170.742L366.427,87.477c-3.11-2.551-7.702-2.101-10.255,1.01s-2.101,7.703,1.01,10.255  l92.415,75.832h-35.834c-4.025,0-7.286,3.262-7.286,7.286v190.955c0,0.703-0.829,1.487-2.019,1.487h-84.782V232.059  c0-10.286-8.368-18.655-18.654-18.655h-83.81c-10.286,0-18.654,8.368-18.654,18.655v142.243h-91.014  c-1.19,0-2.019-0.784-2.019-1.487V181.861c0-4.025-3.262-7.286-7.286-7.286H62.405l53.854-44.19  c1.687-1.384,2.664-3.451,2.664-5.633V61.924h39.468v18.485c0,2.817,1.624,5.382,4.171,6.587c2.547,1.205,5.56,0.833,7.738-0.954  l85.701-70.325l74.217,60.9c3.11,2.551,7.702,2.101,10.255-1.01s2.101-7.702-1.01-10.255L262.754,2.407  c-3.913-3.209-9.594-3.209-13.508,0.002l-67.015,54.99c1.22-1.731,1.944-3.835,1.944-6.109V34.543  c0-5.863-4.77-10.634-10.634-10.634h-71.927c-5.863,0-10.634,4.77-10.634,10.634v16.747c0,5.863,4.77,10.634,10.634,10.634h2.735  v59.381l-60.247,49.436c-3.428,2.813-4.685,7.305-3.205,11.443c1.514,4.23,5.441,6.963,10.006,6.963h40.049v183.668  c0,8.856,7.443,16.06,16.592,16.06h98.3h27.655v18.652h-7.496c-13.222,0-23.979,10.757-23.979,23.98v6.255h-66.25  c-4.025,0-7.286,3.262-7.286,7.286c0,4.025,3.262,7.286,7.286,7.286h66.25v23.303H69.3c-0.079,0-0.142-0.064-0.142-0.142v-23.019  c0-0.078,0.064-0.141,0.142-0.141h31.772c4.025,0,7.286-3.262,7.286-7.286c0-4.025-3.262-7.286-7.286-7.286H69.3  c-8.114,0-14.715,6.601-14.715,14.714v23.019c0,8.114,6.601,14.715,14.715,14.715h132.829c1.11,12.2,11.391,21.79,23.875,21.79  h67.441c12.483,0,22.765-9.59,23.875-21.79h131.615c8.114,0,14.714-6.602,14.714-14.715v-23.019c0-8.114-6.601-14.714-14.714-14.714  H317.423v-6.255c0-13.223-10.757-23.98-23.979-23.98h-7.496v-18.652h26.441h92.069c9.149,0,16.592-7.204,16.592-16.06V189.148  h40.049c4.565,0,8.491-2.733,10.006-6.963C472.585,178.046,471.327,173.555,467.9,170.742z M172.963,61.924h0.578  c1.523,0,2.97-0.328,4.281-0.907l-4.859,3.987L172.963,61.924L172.963,61.924z M105.554,38.482h64.048v8.868h-3.925h-54.041h-6.083  v-8.868H105.554z M317.424,452.335h131.51c0.078,0,0.141,0.064,0.141,0.141v23.019c0,0.079-0.064,0.142-0.141,0.142h-131.51  L317.424,452.335L317.424,452.335z M293.444,422.099c5.187,0,9.406,4.22,9.406,9.407v56.514c0,5.187-4.219,9.407-9.406,9.407  h-67.441c-5.187,0-9.406-4.22-9.406-9.407v-5.097v-37.876v-13.542c0-5.187,4.219-9.407,9.406-9.407h14.783h37.876L293.444,422.099  L293.444,422.099z M248.072,407.526v-18.652h23.303v18.652H248.072z M305.102,374.301h-26.441h-37.876h-27.654V232.059  c0-2.25,1.83-4.082,4.081-4.082h83.81c2.25,0,4.081,1.831,4.081,4.082L305.102,374.301L305.102,374.301z"/>
<g>
</g>
<g>
</g>
<g>
</g>
<g>
</g>
<g>
</g>
<g>
</g>
<g>
</g>
<g>
</g>
<g>
</g>
<g>
</g>
<g>
</g>
<g>
</g>
<g>
</g>
<g>
</g>
<g>
</g>
</svg>
