<?xml version="1.0" encoding="iso-8859-1"?>
<!-- Generator: Adobe Illustrator 19.0.0, SVG Export Plug-In . SVG Version: 6.00 Build 0)  -->
<svg xmlns="http://www.w3.org/2000/svg" xmlns:xlink="http://www.w3.org/1999/xlink" version="1.1" id="Capa_1" x="0px" y="0px" viewBox="0 0 512 512" style="enable-background:new 0 0 512 512;" xml:space="preserve">
<g>
	<path style="fill:#FFB427;" d="M377.662,222.009c-5.928,0-11.857-2.262-16.381-6.785c-28.121-28.122-65.511-43.61-105.281-43.61   s-77.16,15.488-105.281,43.609c-9.047,9.047-23.714,9.047-32.761,0s-9.047-23.714,0-32.761   C154.83,145.59,203.855,125.283,256,125.283c52.146,0,101.171,20.307,138.043,57.179c9.047,9.047,9.047,23.714,0,32.761   C389.519,219.747,383.59,222.009,377.662,222.009z"/>
	<path style="fill:#FFB427;" d="M434.631,153.784c-5.928,0-11.857-2.262-16.381-6.785C374.912,103.66,317.29,79.793,256,79.793   S137.088,103.66,93.749,146.999c-9.047,9.047-23.714,9.047-32.761,0s-9.047-23.714,0-32.761   C113.078,62.148,182.335,33.462,256,33.462s142.922,28.687,195.011,80.776c9.047,9.047,9.047,23.714,0,32.761   C446.488,151.522,440.559,153.784,434.631,153.784z"/>
	<path style="fill:#FFB427;" d="M323.699,290.041c-5.928,0-11.857-2.262-16.381-6.785c-28.296-28.296-74.34-28.297-102.638,0   c-9.047,9.047-23.714,9.047-32.761,0s-9.047-23.714,0-32.761c46.363-46.362,121.799-46.362,168.16,0   c9.047,9.047,9.047,23.714,0,32.761C335.557,287.78,329.628,290.041,323.699,290.041z"/>
</g>
<path style="fill:#A0D860;" d="M473.082,478.536H34.083c-14.799,0-26.796-11.997-26.796-26.796v-85.394  c0-14.799,11.997-26.796,26.796-26.796h438.999c17.47,0,31.632,14.162,31.632,31.632v75.723  C504.713,464.374,490.551,478.536,473.082,478.536z"/>
<path style="fill:#61C979;" d="M473.082,339.55h-4.779v70.944c0,17.47-14.162,31.632-31.632,31.632H7.287v9.614  c0,14.799,11.997,26.796,26.796,26.796h438.999c17.47,0,31.632-14.162,31.632-31.632v-75.723  C504.713,353.712,490.551,339.55,473.082,339.55z"/>
<g>
	<circle style="fill:#FFFFFF;" cx="96.03" cy="409.039" r="32.02"/>
	<path style="fill:#FFFFFF;" d="M435.926,431.362H202.167c-6.662,0-12.063-5.401-12.063-12.063v-20.513   c0-6.662,5.401-12.063,12.063-12.063h233.758c6.662,0,12.063,5.401,12.063,12.063v20.513   C447.989,425.961,442.588,431.362,435.926,431.362z"/>
</g>
<g>
	<path style="fill:#FF9D00;" d="M256,215.724v46.31c18.586,0,37.171,7.074,51.319,21.223c4.523,4.523,10.452,6.785,16.381,6.785   c5.928,0,11.857-2.261,16.38-6.785c9.047-9.047,9.047-23.714,0-32.761C316.899,227.314,286.45,215.724,256,215.724z"/>
	<path style="fill:#FF9D00;" d="M256,125.283v46.331c39.77,0,77.16,15.488,105.282,43.609c4.523,4.523,10.452,6.785,16.381,6.785   c5.928,0,11.857-2.262,16.381-6.785c9.047-9.047,9.047-23.714,0-32.761C357.17,145.59,308.145,125.283,256,125.283z"/>
	<path style="fill:#FF9D00;" d="M256,33.462L256,33.462v46.331l0,0c61.29,0,118.911,23.868,162.25,67.206   c4.523,4.523,10.452,6.785,16.381,6.785s11.857-2.262,16.381-6.785c9.047-9.047,9.047-23.714,0-32.761   c-23.068-23.069-49.504-41.547-78.198-54.977c-10.476-4.903-21.254-9.133-32.279-12.668C313.572,37.947,285.131,33.462,256,33.462z   "/>
</g>
<g>
	<path style="fill:#1A1A1A;" d="M473.082,332.263H95.211c-4.024,0-7.287,3.262-7.287,7.287s3.262,7.287,7.287,7.287h377.871   c13.424,0,24.345,10.921,24.345,24.345v75.723c0,13.424-10.921,24.345-24.345,24.345H34.083c-10.758,0-19.509-8.751-19.509-19.509   v-85.394c0-10.758,8.752-19.51,19.509-19.51h26.136c4.024,0,7.287-3.262,7.287-7.287s-3.262-7.287-7.287-7.287H34.083   C15.289,332.263,0,347.552,0,366.346v85.394c0,18.793,15.289,34.083,34.083,34.083h438.999c21.459,0,38.918-17.458,38.918-38.918   v-75.723C512,349.721,494.541,332.263,473.082,332.263z"/>
	<path style="fill:#1A1A1A;" d="M96.032,448.35c21.674,0,39.307-17.633,39.307-39.307s-17.633-39.306-39.307-39.306   s-39.307,17.633-39.307,39.306C56.725,430.717,74.358,448.35,96.032,448.35z M96.032,384.309c13.639,0,24.734,11.096,24.734,24.733   c0,13.639-11.095,24.734-24.734,24.734s-24.734-11.096-24.734-24.734C71.298,395.405,82.394,384.309,96.032,384.309z"/>
	<path style="fill:#1A1A1A;" d="M435.926,438.649c10.669,0,19.349-8.68,19.349-19.35v-20.512c0-10.669-8.68-19.349-19.349-19.349   H202.167c-10.669,0-19.35,8.68-19.35,19.349v20.512c0,10.67,8.68,19.35,19.35,19.35H435.926z M197.391,419.299v-20.512   c0-2.634,2.143-4.776,4.777-4.776h233.759c2.634,0,4.776,2.142,4.776,4.776v20.512c0,2.634-2.142,4.777-4.776,4.777h-233.76   C199.534,424.076,197.391,421.933,197.391,419.299z"/>
	<path style="fill:#1A1A1A;" d="M377.662,229.295c8.133,0,15.78-3.167,21.533-8.919c11.872-11.873,11.872-31.193-0.001-43.066   c-38.249-38.248-89.103-59.312-143.195-59.312s-104.946,21.065-143.195,59.313c-11.872,11.873-11.872,31.193,0,43.066   c5.751,5.751,13.398,8.918,21.533,8.918c8.134,0,15.781-3.167,21.533-8.918c26.745-26.746,62.305-41.475,100.129-41.475   s73.385,14.73,100.13,41.475C361.88,226.128,369.528,229.295,377.662,229.295z M145.566,210.071   c-2.999,2.999-6.987,4.651-11.228,4.651s-8.229-1.652-11.228-4.65c-6.191-6.192-6.191-16.267,0-22.457   C158.606,152.119,205.8,132.57,256,132.57s97.394,19.548,132.89,55.044c6.191,6.192,6.191,16.267,0.001,22.457   c-3,2.999-6.988,4.651-11.229,4.651c-4.242,0-8.23-1.652-11.228-4.651c-29.498-29.497-68.718-45.743-110.435-45.743   S175.064,180.574,145.566,210.071z"/>
	<path style="fill:#1A1A1A;" d="M98.902,152.152C140.865,110.189,196.657,87.079,256,87.079s115.136,23.11,157.099,65.073   c5.752,5.751,13.399,8.918,21.532,8.918c8.135,0,15.782-3.167,21.533-8.918c11.873-11.874,11.873-31.193,0-43.066   c-23.525-23.524-50.528-42.508-80.262-56.424c-3.645-1.706-7.983-0.133-9.689,3.51c-1.706,3.645-0.134,7.983,3.51,9.689   c28.196,13.196,53.811,31.206,76.135,53.53c6.192,6.191,6.192,16.265,0,22.455c-2.998,2.999-6.986,4.651-11.228,4.651   c-4.241,0-8.229-1.652-11.228-4.651C378.688,97.132,319.236,72.506,256,72.506s-122.687,24.626-167.403,69.34   c-6.19,6.192-16.265,6.194-22.457,0c-6.191-6.191-6.191-16.265,0-22.455C116.853,68.677,184.28,40.749,256,40.749   c28.162,0,55.856,4.301,82.31,12.783c3.835,1.229,7.935-0.881,9.163-4.713c1.229-3.832-0.881-7.935-4.714-9.163   c-27.895-8.944-57.085-13.479-86.76-13.479c-75.613,0-146.699,29.445-200.164,82.91c-11.873,11.874-11.873,31.193,0,43.066   C67.711,164.026,87.03,164.025,98.902,152.152z"/>
	<path style="fill:#1A1A1A;" d="M166.768,245.342c-5.751,5.752-8.919,13.399-8.919,21.533s3.168,15.781,8.919,21.533   c5.751,5.751,13.398,8.918,21.533,8.918c8.134,0,15.781-3.167,21.533-8.918c12.31-12.309,28.706-19.088,46.167-19.088   c17.462,0,33.857,6.779,46.166,19.088c5.752,5.751,13.399,8.919,21.533,8.919c8.135,0,15.782-3.168,21.533-8.919   c11.873-11.874,11.873-31.193,0-43.066c-23.799-23.798-55.489-36.905-89.232-36.905   C222.257,208.437,190.567,221.545,166.768,245.342z M334.927,278.104c-2.999,2.999-6.986,4.651-11.228,4.651   c-4.241,0-8.229-1.652-11.228-4.652c-15.062-15.062-35.117-23.356-56.471-23.356s-41.409,8.294-56.472,23.356   c-2.999,2.999-6.987,4.651-11.228,4.651s-8.229-1.652-11.228-4.651c-6.191-6.191-6.191-16.265,0-22.455   c21.047-21.046,49.077-32.638,78.928-32.638s57.881,11.591,78.927,32.638C341.119,261.839,341.119,271.913,334.927,278.104z"/>
</g>
<g>
</g>
<g>
</g>
<g>
</g>
<g>
</g>
<g>
</g>
<g>
</g>
<g>
</g>
<g>
</g>
<g>
</g>
<g>
</g>
<g>
</g>
<g>
</g>
<g>
</g>
<g>
</g>
<g>
</g>
</svg>
