<?xml version="1.0" encoding="iso-8859-1"?>
<!-- Generator: Adobe Illustrator 19.0.0, SVG Export Plug-In . SVG Version: 6.00 Build 0)  -->
<svg xmlns="http://www.w3.org/2000/svg" xmlns:xlink="http://www.w3.org/1999/xlink" version="1.1" id="Capa_1" x="0px" y="0px" viewBox="0 0 512 512" style="enable-background:new 0 0 512 512;" xml:space="preserve">
<g>
	<path style="fill:#D96B37;" d="M497.582,337.737H14.418c-3.939,0-7.132-3.193-7.132-7.132v-40.568c0-3.939,3.193-7.132,7.132-7.132   h483.163c3.939,0,7.132,3.193,7.132,7.132v40.568C504.713,334.544,501.52,337.737,497.582,337.737z"/>
	<path style="fill:#D96B37;" d="M497.582,234.921H14.418c-3.939,0-7.132-3.193-7.132-7.132v-40.568c0-3.939,3.193-7.132,7.132-7.132   h483.163c3.939,0,7.132,3.193,7.132,7.132v40.568C504.713,231.728,501.52,234.921,497.582,234.921z"/>
</g>
<g>
	<path style="fill:#B14418;" d="M497.582,234.921H14.418c-3.939,0-7.132-3.193-7.132-7.132v-34.531c0,3.939,3.193,7.132,7.132,7.132   h483.163c3.939,0,7.132-3.193,7.132-7.132v34.531C504.713,231.728,501.52,234.921,497.582,234.921z"/>
	<path style="fill:#B14418;" d="M497.582,337.737H14.418c-3.939,0-7.132-3.193-7.132-7.132v-34.531c0,3.939,3.193,7.132,7.132,7.132   h483.163c3.939,0,7.132-3.193,7.132-7.132v34.531C504.713,334.544,501.52,337.737,497.582,337.737z"/>
</g>
<path style="fill:#FFB427;" d="M71.459,102.979L71.459,102.979c-21.105,0-38.214,17.109-38.214,38.213v242.79h76.427v-242.79  C109.672,120.087,92.564,102.979,71.459,102.979z"/>
<path style="fill:#FF9D00;" d="M71.459,102.979L71.459,102.979c-6.233,0-12.111,1.502-17.309,4.148  c12.403,6.315,20.904,19.193,20.904,34.065v242.79h34.618v-242.79C109.672,120.087,92.564,102.979,71.459,102.979z"/>
<g>
	<path style="fill:#FFB427;" d="M194.486,102.979L194.486,102.979c-21.105,0-38.213,17.109-38.213,38.213v242.79H232.7v-242.79   C232.7,120.087,215.591,102.979,194.486,102.979z"/>
	<path style="fill:#FFB427;" d="M317.514,102.979L317.514,102.979c-21.105,0-38.213,17.109-38.213,38.213v242.79h76.427v-242.79   C355.727,120.087,338.618,102.979,317.514,102.979z"/>
	<path style="fill:#FFB427;" d="M440.541,102.979L440.541,102.979c-21.105,0-38.213,17.109-38.213,38.213v242.79h76.427v-242.79   C478.754,120.087,461.646,102.979,440.541,102.979z"/>
</g>
<g>
	<path style="fill:#FF9D00;" d="M194.486,102.979L194.486,102.979c-6.233,0-12.111,1.502-17.309,4.148   c12.403,6.315,20.904,19.193,20.904,34.065v242.79H232.7v-242.79C232.7,120.087,215.591,102.979,194.486,102.979z"/>
	<path style="fill:#FF9D00;" d="M317.514,102.979L317.514,102.979c-6.233,0-12.111,1.502-17.309,4.148   c12.403,6.315,20.904,19.193,20.904,34.065v242.79h34.618v-242.79C355.727,120.087,338.618,102.979,317.514,102.979z"/>
	<path style="fill:#FF9D00;" d="M440.541,102.979L440.541,102.979c-6.233,0-12.111,1.502-17.309,4.148   c12.403,6.315,20.904,19.193,20.904,34.065v242.79h34.618v-242.79C478.754,120.087,461.646,102.979,440.541,102.979z"/>
</g>
<path style="fill:#D96B37;" d="M498.267,409.019H13.733c-3.56,0-6.446-2.886-6.446-6.446v-17.329c0-3.56,2.886-6.446,6.446-6.446  h484.535c3.56,0,6.446,2.886,6.446,6.446v17.329C504.713,406.133,501.827,409.019,498.267,409.019z"/>
<path style="fill:#B14418;" d="M498.267,378.798h-26.654v30.221h26.654c3.56,0,6.446-2.886,6.446-6.446v-17.329  C504.713,381.684,501.827,378.798,498.267,378.798z"/>
<path style="fill:#1A1A1A;" d="M497.582,242.208c7.95,0,14.418-6.468,14.418-14.418v-40.567c0-7.951-6.468-14.418-14.418-14.418  h-11.541v-10.017c0-4.025-3.262-7.287-7.287-7.287s-7.287,3.262-7.287,7.287v17.304v54.831v47.985v54.831v33.774h-61.853v-33.774  v-54.831v-47.985v-54.831v-38.898c0-17.053,13.874-30.927,30.927-30.927c12.944,0,24.622,8.164,29.06,20.316  c1.381,3.781,5.564,5.724,9.344,4.344s5.725-5.565,4.344-9.344c-6.53-17.878-23.71-29.889-42.75-29.889  c-25.089,0-45.5,20.411-45.5,45.5v31.612h-32.027v-31.612c0-25.089-20.411-45.5-45.5-45.5s-45.5,20.411-45.5,45.5v31.612h-32.028  v-31.612c0-25.089-20.411-45.5-45.5-45.5s-45.5,20.411-45.5,45.5v31.612h-32.028v-31.612c0-25.089-20.411-45.5-45.5-45.5  s-45.5,20.411-45.5,45.5v31.612H14.418C6.468,172.804,0,179.271,0,187.222v40.567c0,7.951,6.468,14.418,14.418,14.418h11.541v33.412  H14.418C6.468,275.619,0,282.087,0,290.038v40.567c0,7.951,6.468,14.418,14.418,14.418h11.541v26.488H13.732  C6.16,371.511,0,377.672,0,385.244v17.329c0,7.573,6.16,13.733,13.732,13.733h29.421c4.024,0,7.287-3.262,7.287-7.287  c0-4.025-3.262-7.287-7.287-7.287h-28.58v-15.649h18.673h76.426h46.601H232.7h46.6h76.427h46.601h76.426h18.673v15.649H77.642  c-4.024,0-7.287,3.262-7.287,7.287c0,4.025,3.262,7.287,7.287,7.287h420.625c7.572,0,13.732-6.16,13.732-13.733v-17.329  c0-7.572-6.16-13.732-13.732-13.732H486.04v-26.488h11.541c7.95,0,14.418-6.468,14.418-14.418v-40.567  c0-7.951-6.468-14.418-14.418-14.418H486.04v-33.412L497.582,242.208L497.582,242.208z M486.041,187.377h11.386v40.258h-11.386  V187.377z M25.959,330.451H14.573v-40.258h11.386V330.451z M25.959,227.635H14.573v-40.258h11.386V227.635z M102.386,180.09v54.831  v47.985v54.831v33.774H40.532v-33.774v-54.831v-47.985V180.09v-38.898c0-17.053,13.874-30.927,30.927-30.927  s30.926,13.874,30.926,30.927L102.386,180.09L102.386,180.09z M148.986,371.511h-32.028v-26.488h32.028V371.511z M148.986,330.451  h-32.028v-40.258h32.028V330.451z M148.986,275.619h-32.028v-33.412h32.028V275.619z M148.986,227.635h-32.028v-40.258h32.028  V227.635z M225.413,180.09v54.831v47.985v54.831v33.774h-61.854v-33.774v-54.831v-47.985V180.09v-38.898  c0-17.053,13.874-30.927,30.927-30.927s30.927,13.874,30.927,30.927V180.09z M272.014,371.511h-32.028v-26.488h32.028V371.511z   M272.014,330.451h-32.028v-40.258h32.028V330.451z M272.014,275.619h-32.028v-33.412h32.028V275.619z M272.014,227.635h-32.028  v-40.258h32.028V227.635z M348.441,180.09v54.831v47.985v54.831v33.774h-61.854v-33.774v-54.831v-47.985V180.09v-38.898  c0-17.053,13.874-30.927,30.927-30.927s30.927,13.874,30.927,30.927V180.09z M395.041,371.511h-32.027v-26.488h32.027V371.511z   M395.041,330.451h-32.027v-40.258h32.027V330.451z M395.041,275.619h-32.027v-33.412h32.027V275.619z M395.041,227.635h-32.027  v-40.258h32.027V227.635z M497.427,290.193v40.258h-11.386v-40.258H497.427z"/>
<g>
</g>
<g>
</g>
<g>
</g>
<g>
</g>
<g>
</g>
<g>
</g>
<g>
</g>
<g>
</g>
<g>
</g>
<g>
</g>
<g>
</g>
<g>
</g>
<g>
</g>
<g>
</g>
<g>
</g>
</svg>
