<?xml version="1.0" encoding="iso-8859-1"?>
<!-- Generator: Adobe Illustrator 19.0.0, SVG Export Plug-In . SVG Version: 6.00 Build 0)  -->
<svg xmlns="http://www.w3.org/2000/svg" xmlns:xlink="http://www.w3.org/1999/xlink" version="1.1" id="Capa_1" x="0px" y="0px" viewBox="0 0 512 512" style="enable-background:new 0 0 512 512;" xml:space="preserve">
<path style="fill:#FF4D4A;" d="M213.943,86.538l-2.731-74.118c-0.115-2.868-2.473-5.133-5.343-5.133h-18.221  c-2.87,0-5.228,2.266-5.343,5.133l-2.731,74.118H213.943z"/>
<path style="fill:#E13F33;" d="M205.869,7.287h-9.111v79.251h17.185l-2.731-74.118C211.097,9.552,208.739,7.287,205.869,7.287z"/>
<path style="fill:#0072A2;" d="M406.047,504.713H105.953c-12.547,0-21.653-8.982-18.334-18.085l28.426-77.98  c2.938-8.06,12.676-13.647,23.786-13.647H372.17c11.109,0,20.848,5.587,23.786,13.647l28.427,77.98  C427.7,495.731,418.594,504.713,406.047,504.713z"/>
<path style="fill:#006289;" d="M424.382,486.629l-28.426-77.98c-2.938-8.06-12.676-13.647-23.786-13.647h-16.611L389,486.629  c3.318,9.103-5.788,18.085-18.335,18.085h35.381C418.594,504.713,427.7,495.731,424.382,486.629z"/>
<path style="fill:#F7F9F9;" d="M340.321,478.717H171.679c-3.497,0-6.332-2.835-6.332-6.332v-7.332c0-3.497,2.835-6.332,6.332-6.332  h168.642c3.497,0,6.332,2.835,6.332,6.332v7.332C346.653,475.882,343.818,478.717,340.321,478.717z"/>
<path style="fill:#A0D860;" d="M331,430.224c10.02,0,18.224-7.969,18.514-17.985l9.184-317.112c0.235-7.895-6.101-14.423-14-14.423  H167.302c-7.898,0-14.235,6.528-14,14.423l9.185,317.112c0.29,10.016,8.493,17.985,18.514,17.985H331z"/>
<path style="fill:#61C979;" d="M344.698,80.705h-33.239c7.898,0,14.235,6.528,14,14.423l-9.184,317.112  c-0.29,10.016-8.494,17.986-18.514,17.986H331c10.02,0,18.224-7.969,18.514-17.986l9.184-317.112  C358.933,87.232,352.597,80.705,344.698,80.705z"/>
<path style="fill:#FF8B00;" d="M194.555,185.26h122.891c3.654,0,6.647-2.905,6.755-6.557l1.757-59.044  c0.113-3.81-2.944-6.96-6.756-6.96H192.797c-3.811,0-6.869,3.15-6.756,6.96l1.757,59.044  C187.908,182.356,190.9,185.26,194.555,185.26z"/>
<path style="fill:#FF6900;" d="M319.203,112.7h-25.554l-1.67,66.003c-0.109,3.653-3.101,6.558-6.755,6.558h32.223  c3.654,0,6.647-2.905,6.756-6.558l1.757-59.043C326.072,115.85,323.014,112.7,319.203,112.7z"/>
<g>
	<path style="fill:#FF4D4A;" d="M219.497,268.854h-26.85c-1.27,0-2.311-1.011-2.347-2.28l-0.826-28.695   c-0.038-1.323,1.024-2.416,2.347-2.416h27.247c1.283,0,2.329,1.03,2.348,2.313l0.429,28.695   C221.865,267.781,220.808,268.854,219.497,268.854z"/>
	<path style="fill:#FF4D4A;" d="M269.426,268.854h-26.852c-1.29,0-2.339-1.041-2.348-2.332l-0.198-28.695   c-0.009-1.303,1.045-2.364,2.348-2.364h27.248c1.303,0,2.357,1.061,2.348,2.364l-0.198,28.695   C271.765,267.812,270.716,268.854,269.426,268.854z"/>
	<path style="fill:#FF4D4A;" d="M319.353,268.854h-26.85c-1.31,0-2.367-1.073-2.348-2.383l0.429-28.695   c0.019-1.283,1.065-2.313,2.348-2.313h27.247c1.323,0,2.385,1.093,2.347,2.416l-0.826,28.695   C321.664,267.843,320.624,268.854,319.353,268.854z"/>
	<path style="fill:#FF4D4A;" d="M220.235,324.196h-26.169c-1.27,0-2.311-1.011-2.347-2.281l-0.784-27.256   c-0.038-1.323,1.024-2.416,2.347-2.416h26.545c1.283,0,2.329,1.03,2.348,2.313l0.408,27.255   C222.603,323.124,221.546,324.196,220.235,324.196z"/>
	<path style="fill:#FF4D4A;" d="M269.085,324.196h-26.17c-1.29,0-2.339-1.042-2.348-2.332l-0.188-27.256   c-0.009-1.303,1.045-2.364,2.348-2.364h26.546c1.303,0,2.357,1.061,2.348,2.364l-0.188,27.256   C271.424,323.155,270.375,324.196,269.085,324.196z"/>
	<path style="fill:#FF4D4A;" d="M317.933,324.196h-26.169c-1.311,0-2.367-1.073-2.348-2.383l0.408-27.255   c0.019-1.283,1.065-2.313,2.348-2.313h26.545c1.323,0,2.385,1.093,2.347,2.416l-0.784,27.256   C320.244,323.186,319.204,324.196,317.933,324.196z"/>
	<path style="fill:#FF4D4A;" d="M220.942,379.45h-25.516c-1.27,0-2.311-1.011-2.347-2.281l-0.746-25.907   c-0.038-1.323,1.024-2.416,2.347-2.416h25.874c1.283,0,2.329,1.03,2.348,2.313l0.388,25.907   C223.31,378.378,222.253,379.45,220.942,379.45z"/>
	<path style="fill:#FF4D4A;" d="M268.758,379.45h-25.517c-1.29,0-2.339-1.041-2.348-2.332l-0.179-25.907   c-0.009-1.303,1.045-2.364,2.348-2.364h25.875c1.303,0,2.357,1.061,2.348,2.364l-0.179,25.907   C271.098,378.409,270.049,379.45,268.758,379.45z"/>
	<path style="fill:#FF4D4A;" d="M316.573,379.45h-25.516c-1.31,0-2.367-1.073-2.348-2.383l0.388-25.907   c0.019-1.283,1.065-2.313,2.348-2.313h25.874c1.323,0,2.385,1.093,2.347,2.416l-0.746,25.907   C318.884,378.44,317.844,379.45,316.573,379.45z"/>
</g>
<g>
	<path style="fill:#1A1A1A;" d="M219.497,276.14c2.601,0,5.038-1.02,6.863-2.873c1.825-1.852,2.809-4.305,2.77-6.906l-0.429-28.694   c-0.077-5.233-4.399-9.491-9.633-9.491h-27.247c-2.588,0-5.106,1.065-6.909,2.92c-1.803,1.856-2.795,4.404-2.721,6.991   l0.826,28.695c0.151,5.248,4.381,9.358,9.63,9.358H219.497z M214.203,242.75l0.282,18.818h-17.039l-0.542-18.818H214.203z"/>
	<path style="fill:#1A1A1A;" d="M279.259,237.878c0.018-2.586-0.976-5.021-2.798-6.856s-4.25-2.845-6.836-2.845h-27.249   c-2.586,0-5.014,1.01-6.836,2.845c-1.823,1.835-2.816,4.269-2.798,6.856l0.198,28.695c0.037,5.275,4.359,9.567,9.634,9.567h26.852   c5.276,0,9.597-4.292,9.634-9.568L279.259,237.878z M264.521,261.567h-17.043l-0.13-18.818h17.303L264.521,261.567z"/>
	<path style="fill:#1A1A1A;" d="M329.81,238.087c0.074-2.586-0.918-5.135-2.721-6.991c-1.804-1.856-4.322-2.92-6.909-2.92h-27.247   c-5.234,0-9.556,4.258-9.633,9.491l-0.429,28.695c-0.039,2.601,0.945,5.053,2.77,6.905c1.825,1.853,4.262,2.873,6.863,2.873h26.851   c5.25,0,9.48-4.11,9.63-9.358L329.81,238.087z M314.555,261.567h-17.039l0.282-18.818h17.299L314.555,261.567z"/>
	<path style="fill:#1A1A1A;" d="M194.067,331.483h26.168c2.601,0,5.039-1.021,6.864-2.874s2.809-4.306,2.769-6.905l-0.407-27.256   c-0.079-5.232-4.401-9.49-9.634-9.49h-26.545c-2.588,0-5.106,1.065-6.91,2.92c-1.804,1.856-2.795,4.404-2.721,6.991l0.785,27.255   C184.587,327.373,188.817,331.483,194.067,331.483z M214.963,299.531l0.26,17.379h-16.357l-0.5-17.379H214.963z"/>
	<path style="fill:#1A1A1A;" d="M278.908,294.657c0.017-2.585-0.977-5.02-2.8-6.854c-1.822-1.834-4.25-2.844-6.835-2.844h-26.546   c-2.585,0-5.013,1.01-6.835,2.844c-1.823,1.834-2.816,4.269-2.8,6.857l0.189,27.253c0.035,5.277,4.357,9.57,9.634,9.57h26.17   c5.278,0,9.599-4.293,9.634-9.568L278.908,294.657z M264.18,316.91h-16.36l-0.12-17.379h16.602L264.18,316.91z"/>
	<path style="fill:#1A1A1A;" d="M328.349,294.869c0.074-2.586-0.917-5.135-2.721-6.991c-1.804-1.856-4.322-2.92-6.91-2.92h-26.545   c-5.233,0-9.555,4.257-9.634,9.491l-0.408,27.253c-0.04,2.601,0.944,5.054,2.769,6.907c1.825,1.853,4.263,2.874,6.864,2.874h26.168   c5.25,0,9.48-4.11,9.631-9.358L328.349,294.869z M313.135,316.91h-16.357l0.26-17.379h16.598L313.135,316.91z"/>
	<path style="fill:#1A1A1A;" d="M195.426,386.737h25.516c2.601,0,5.038-1.02,6.863-2.873c1.825-1.853,2.809-4.305,2.77-6.906   l-0.388-25.907c-0.077-5.233-4.399-9.491-9.633-9.491H194.68c-2.588,0-5.106,1.065-6.909,2.92   c-1.803,1.856-2.795,4.404-2.721,6.991l0.746,25.907C185.947,382.627,190.177,386.737,195.426,386.737z M215.689,356.134   l0.24,16.03h-15.704l-0.462-16.03H215.689z"/>
	<path style="fill:#1A1A1A;" d="M268.937,341.561h-25.875c-2.586,0-5.014,1.01-6.836,2.845c-1.823,1.835-2.816,4.269-2.798,6.856   l0.179,25.905c0.035,5.277,4.357,9.57,9.634,9.57h25.517c5.277,0,9.599-4.293,9.634-9.568l0.179-25.907   c0.018-2.586-0.976-5.021-2.798-6.856C273.952,342.571,271.524,341.561,268.937,341.561z M263.854,372.164h-15.708l-0.111-16.03   h15.93L263.854,372.164z"/>
	<path style="fill:#1A1A1A;" d="M317.319,341.561h-25.874c-5.234,0-9.556,4.257-9.633,9.49l-0.388,25.909   c-0.039,2.601,0.945,5.052,2.77,6.905c1.825,1.853,4.263,2.873,6.863,2.873h25.516c5.25,0,9.48-4.11,9.63-9.358l0.746-25.908   c0.074-2.586-0.918-5.135-2.721-6.991S319.907,341.561,317.319,341.561z M311.775,372.164h-15.704l0.24-16.03h15.926   L311.775,372.164z"/>
	<path style="fill:#1A1A1A;" d="M333.241,119.876c0.114-3.828-1.293-7.451-3.961-10.199c-2.668-2.749-6.248-4.263-10.078-4.263   H192.797c-3.831,0-7.41,1.514-10.078,4.263s-4.074,6.371-3.961,10.199l1.757,59.044c0.227,7.641,6.394,13.627,14.039,13.627   h122.891c7.645,0,13.812-5.986,14.039-13.627L333.241,119.876z M316.933,177.973H195.067l-1.726-57.987h125.318L316.933,177.973z"/>
	<path style="fill:#1A1A1A;" d="M340.321,486.004c7.509,0,13.619-6.109,13.619-13.619v-7.333c0-7.509-6.109-13.619-13.619-13.619   H171.679c-7.509,0-13.619,6.109-13.619,13.619v7.333c0,7.509,6.109,13.619,13.619,13.619H340.321z M172.633,466.007h166.733v5.424   H172.633V466.007z"/>
	<path style="fill:#1A1A1A;" d="M431.227,484.133l-28.426-77.98c-4.02-11.027-16.331-18.437-30.632-18.437h-14.656l6.186-213.603   c0.116-4.022-3.05-7.378-7.073-7.494c-4.059-0.094-7.378,3.051-7.495,7.073l-6.403,221.098c0,0.001,0,0.002,0,0.003l-0.499,17.236   c-0.177,6.118-5.11,10.91-11.231,10.91H181c-6.12,0-11.053-4.792-11.23-10.909l-9.185-317.12c-0.055-1.831,0.618-3.565,1.895-4.879   c1.277-1.316,2.989-2.04,4.822-2.04h12.488h33.939h130.97c1.833,0,3.545,0.724,4.822,2.04c1.277,1.314,1.949,3.047,1.894,4.885   l-1.259,43.471c-0.116,4.022,3.05,7.378,7.073,7.494c4.056,0.121,7.378-3.051,7.495-7.073l1.259-43.464   c0.173-5.805-1.959-11.296-6.004-15.464c-4.045-4.167-9.471-6.462-15.279-6.462H220.752l-2.259-61.29   C218.221,5.327,212.676,0,205.869,0h-18.221c-6.806,0-12.351,5.327-12.624,12.151l-2.258,61.268h-5.464   c-5.808,0-11.234,2.295-15.279,6.462c-4.045,4.168-6.177,9.659-6.004,15.457l8.468,292.378h-14.656   c-14.302,0-26.611,7.41-30.631,18.438l-8.324,22.835c-1.379,3.781,0.569,7.963,4.35,9.341c3.782,1.38,7.964-0.569,9.342-4.35   l8.324-22.835c1.87-5.131,8.995-8.856,16.94-8.856h15.078l0.294,10.161c0.407,14.053,11.738,25.061,25.797,25.061H331   c14.059,0,25.39-11.008,25.798-25.061l0.294-10.161h15.078c7.945,0,15.069,3.725,16.94,8.856l28.426,77.979   c0.295,0.81,0.552,2.08-0.618,3.752c-1.469,2.1-5.198,4.551-10.87,4.551H105.953c-5.672,0-9.401-2.452-10.87-4.551   c-1.17-1.673-0.913-2.942-0.618-3.752l8.102-22.225c1.378-3.781-0.569-7.963-4.35-9.341c-3.782-1.381-7.963,0.568-9.342,4.35   l-8.102,22.225c-2.089,5.73-1.225,11.961,2.37,17.099C87.861,507.974,96.389,512,105.953,512h300.095   c9.564,0,18.091-4.026,22.81-10.768C432.452,496.094,433.316,489.862,431.227,484.133z M189.518,14.573H204l2.169,58.845h-18.82   L189.518,14.573z"/>
</g>
<g>
</g>
<g>
</g>
<g>
</g>
<g>
</g>
<g>
</g>
<g>
</g>
<g>
</g>
<g>
</g>
<g>
</g>
<g>
</g>
<g>
</g>
<g>
</g>
<g>
</g>
<g>
</g>
<g>
</g>
</svg>
