<?xml version="1.0" encoding="iso-8859-1"?>
<!-- Generator: Adobe Illustrator 19.0.0, SVG Export Plug-In . SVG Version: 6.00 Build 0)  -->
<svg xmlns="http://www.w3.org/2000/svg" xmlns:xlink="http://www.w3.org/1999/xlink" version="1.1" id="Capa_1" x="0px" y="0px" viewBox="0 0 512 512" style="enable-background:new 0 0 512 512;" xml:space="preserve">
<path style="fill:#0072A2;" d="M40.562,13.48v457.069h430.877V13.48c0-3.421-2.773-6.194-6.194-6.194H46.755  C43.335,7.287,40.562,10.059,40.562,13.48z"/>
<path style="fill:#006289;" d="M465.245,7.287h-31.963c3.421,0,6.194,2.773,6.194,6.194v25.768v431.3h31.963V13.48  C471.438,10.059,468.665,7.287,465.245,7.287z"/>
<polygon style="fill:#A0D860;" points="256,271.821 72.524,271.821 72.524,470.549 256,470.549 439.476,470.549 439.476,271.821 "/>
<path style="fill:#F7F9F9;" d="M94.874,441.989V260.523c0-3.43,2.781-6.211,6.211-6.211h138.022c3.43,0,6.211,2.781,6.211,6.211  v181.466c0,3.43-2.781,6.211-6.211,6.211H101.084C97.654,448.2,94.874,445.419,94.874,441.989z"/>
<path style="fill:#E4E4E4;" d="M239.106,254.312h-33.281c3.43,0,6.211,2.781,6.211,6.211v181.466c0,3.43-2.781,6.211-6.211,6.211  h33.281c3.43,0,6.211-2.781,6.211-6.211V260.523C245.317,257.092,242.536,254.312,239.106,254.312z"/>
<path style="fill:#F7F9F9;" d="M266.683,441.989V260.523c0-3.43,2.781-6.211,6.211-6.211h138.022c3.43,0,6.211,2.781,6.211,6.211  v181.466c0,3.43-2.781,6.211-6.211,6.211H272.894C269.464,448.2,266.683,445.419,266.683,441.989z"/>
<path style="fill:#E4E4E4;" d="M410.915,254.312h-33.032c3.43,0,6.211,2.781,6.211,6.211v181.466c0,3.43-2.781,6.211-6.211,6.211  h33.032c3.43,0,6.211-2.781,6.211-6.211V260.523C417.126,257.092,414.346,254.312,410.915,254.312z"/>
<path style="fill:#D96B37;" d="M495.222,504.713H16.778c-3.102,0-5.617-2.515-5.617-5.617v-26.594c0-3.102,2.515-5.617,5.617-5.617  h478.444c3.102,0,5.617,2.515,5.617,5.617v26.594C500.84,502.198,498.325,504.713,495.222,504.713z"/>
<path style="fill:#FFB427;" d="M433.75,39.249H78.25c-3.162,0-5.725,2.563-5.725,5.725v40.789v46.514v46.514v46.515v46.514h366.951  v-46.514v-46.515v-46.514V85.763V44.974C439.476,41.812,436.912,39.249,433.75,39.249z"/>
<path style="fill:#FF4D4A;" d="M387.901,353.043h-2.915c-6.581,0-11.916-5.335-11.916-11.916V39.249h26.746v301.878  C399.816,347.708,394.482,353.043,387.901,353.043z"/>
<path style="fill:#E13F33;" d="M386.443,39.249v313.794h1.457c6.581,0,11.916-5.335,11.916-11.916V39.249H386.443z"/>
<path style="fill:#B14418;" d="M495.222,466.884h-27.664v37.829h27.664c3.102,0,5.617-2.515,5.617-5.617v-26.594  C500.84,469.399,498.325,466.884,495.222,466.884z"/>
<g>
	<path style="fill:#1A1A1A;" d="M40.562,354.732c4.025,0,7.287-3.262,7.287-7.287V14.573h416.304v48.9   c0,4.025,3.262,7.287,7.287,7.287s7.287-3.262,7.287-7.287V13.48c0-7.433-6.047-13.48-13.48-13.48H46.755   c-7.433,0-13.48,6.047-13.48,13.48v333.966C33.275,351.471,36.537,354.732,40.562,354.732z"/>
	<path style="fill:#1A1A1A;" d="M495.222,459.598h-16.497V98.49c0-4.025-3.262-7.287-7.287-7.287s-7.287,3.262-7.287,7.287v361.108   h-17.39V271.821v-46.514v-46.514v-46.514V85.763v-40.79c0-7.175-5.837-13.011-13.011-13.011h-33.934h-0.001H373.07H78.25   c-7.175,0-13.011,5.837-13.011,13.011v40.789v46.515v46.514v46.514v46.514v187.777h-17.39V382.3c0-4.025-3.262-7.287-7.287-7.287   s-7.287,3.262-7.287,7.287v77.298H16.778c-7.116,0-12.904,5.788-12.904,12.904v26.594c0,7.116,5.788,12.904,12.904,12.904h478.444   c7.116,0,12.904-5.788,12.904-12.904v-26.594C508.126,465.386,502.338,459.598,495.222,459.598z M407.103,46.535h25.085v31.941   h-25.085V46.535z M407.103,93.049h25.085v31.942h-25.085V93.049z M407.103,139.565h25.085v31.941h-25.085V139.565z    M407.103,186.079h25.085v31.941h-25.085V186.079z M407.103,232.593h25.085v31.941h-15.063h-10.023v-31.941H407.103z    M380.357,271.821v-46.514v-46.514v-46.514V85.763V46.535h12.173v39.228v46.515v46.514v46.514v46.514v69.306   c0,2.552-2.077,4.629-4.629,4.629h-2.915c-2.552,0-4.629-2.077-4.629-4.629V271.821z M384.986,360.329h2.915   c10.588,0,19.203-8.614,19.203-19.202v-62.02h2.736v161.806H273.97V279.107h91.814v62.02   C365.784,351.715,374.398,360.329,384.986,360.329z M79.811,46.535h285.973v31.941H79.811V46.535z M79.811,93.049h285.973v31.942   H79.811V93.049z M79.811,139.565h285.973v31.941H79.811V139.565z M79.811,186.079h285.973v31.941H79.811V186.079z M79.811,232.593   h285.973v31.941h-99.101h-21.366H94.874H79.811V232.593z M238.03,279.107v161.806H102.16V279.107H238.03z M79.811,279.107h7.776   v162.881c0,7.442,6.055,13.497,13.497,13.497h138.022c7.442,0,13.497-6.055,13.497-13.497V279.107h6.793v162.881   c0,7.442,6.055,13.497,13.497,13.497h138.022c7.442,0,13.497-6.055,13.497-13.497V279.107h7.776v180.491H79.811V279.107z    M493.553,497.427H18.447v-23.256h22.115h31.963h366.951h31.963h22.115L493.553,497.427L493.553,497.427z"/>
</g>
<g>
</g>
<g>
</g>
<g>
</g>
<g>
</g>
<g>
</g>
<g>
</g>
<g>
</g>
<g>
</g>
<g>
</g>
<g>
</g>
<g>
</g>
<g>
</g>
<g>
</g>
<g>
</g>
<g>
</g>
</svg>
