<?xml version="1.0" encoding="iso-8859-1"?>
<!-- Generator: Adobe Illustrator 19.0.0, SVG Export Plug-In . SVG Version: 6.00 Build 0)  -->
<svg xmlns="http://www.w3.org/2000/svg" xmlns:xlink="http://www.w3.org/1999/xlink" version="1.1" id="Capa_1" x="0px" y="0px" viewBox="0 0 512 512" style="enable-background:new 0 0 512 512;" xml:space="preserve">
<path style="fill:#FFB427;" d="M256.005,68.496c10.483,0,20.791,0.748,30.884,2.163V36.561h-61.768V70.66  C235.214,69.245,245.522,68.496,256.005,68.496z"/>
<path style="fill:#FF9D00;" d="M253.695,68.517c0.77-0.008,1.538-0.021,2.31-0.021c10.483,0,20.791,0.748,30.884,2.163V36.561  h-33.194V68.517z"/>
<circle style="fill:#FF4D4A;" cx="256.001" cy="284.18" r="220.54"/>
<path style="fill:#E13F33;" d="M256.005,63.636c-5.584,0-11.118,0.212-16.597,0.62C353.455,72.742,443.35,167.959,443.35,284.175  s-89.894,211.433-203.942,219.919c5.479,0.408,11.013,0.62,16.597,0.62c121.8,0,220.539-98.739,220.539-220.539  S377.805,63.636,256.005,63.636z"/>
<circle style="fill:#F7F9F9;" cx="256.001" cy="284.18" r="169.53"/>
<path style="fill:#E4E4E4;" d="M256.005,114.641c-5.279,0-10.499,0.254-15.655,0.726c86.29,7.902,153.878,80.456,153.878,168.807  S326.64,445.079,240.35,452.981c5.156,0.472,10.376,0.726,15.655,0.726c93.631,0,169.533-75.903,169.533-169.533  S349.635,114.641,256.005,114.641z"/>
<g>
	<path style="fill:#0072A2;" d="M305.988,7.287h-99.965c-2.214,0-4.009,1.795-4.009,4.009v25.146c0,2.214,1.795,4.009,4.009,4.009   h99.965c2.214,0,4.009-1.795,4.009-4.009V11.295C309.996,9.081,308.201,7.287,305.988,7.287z"/>
	<circle style="fill:#0072A2;" cx="256.001" cy="284.18" r="22.345"/>
</g>
<path style="fill:#006289;" d="M305.988,7.287h-29.186V40.45h29.186c2.214,0,4.009-1.795,4.009-4.009V11.295  C309.996,9.081,308.201,7.287,305.988,7.287z"/>
<path style="fill:#0072A2;" d="M256.005,143.686v88.482c28.722,0,52.006,23.284,52.006,52.006h88.482  c1.781,0,3.198-1.473,3.159-3.254c-1.706-76.769-63.624-138.687-140.393-140.393C257.478,140.488,256.005,141.905,256.005,143.686z"/>
<g>
	<path style="fill:#1A1A1A;" d="M350.577,368.055c-2.952-2.952-7.739-2.952-10.692,0c-2.952,2.952-2.952,7.739,0,10.692   l12.524,12.525c2.952,2.952,7.739,2.952,10.692,0c2.952-2.952,2.952-7.739,0-10.692L350.577,368.055z"/>
	<path style="fill:#1A1A1A;" d="M159.6,177.078c-2.952-2.953-7.739-2.953-10.692,0c-2.952,2.952-2.952,7.739,0,10.692l12.525,12.524   c2.952,2.952,7.739,2.952,10.692,0c2.952-2.952,2.952-7.739,0-10.692L159.6,177.078z"/>
	<path style="fill:#1A1A1A;" d="M161.433,368.055l-12.525,12.525c-2.952,2.952-2.952,7.739,0,10.692   c2.952,2.952,7.739,2.952,10.692,0l12.525-12.525c2.952-2.952,2.952-7.739,0-10.692   C169.172,365.102,164.386,365.102,161.433,368.055z"/>
	<path style="fill:#1A1A1A;" d="M256.005,402.799c-4.175,0-7.56,3.385-7.56,7.56v17.712c0,4.175,3.385,7.56,7.56,7.56   c4.175,0,7.56-3.385,7.56-7.56v-17.712C263.565,406.184,260.18,402.799,256.005,402.799z"/>
	<path style="fill:#1A1A1A;" d="M129.82,276.614h-17.712c-4.175,0-7.56,3.385-7.56,7.56s3.385,7.56,7.56,7.56h17.712   c4.175,0,7.56-3.385,7.56-7.56C137.381,279.999,133.996,276.614,129.82,276.614z"/>
	<path style="fill:#1A1A1A;" d="M256.005,107.355c-97.499,0-176.82,79.321-176.82,176.82s79.321,176.82,176.82,176.82   s176.82-79.321,176.82-176.82S353.503,107.355,256.005,107.355z M256.005,446.421c-89.463,0-162.247-72.784-162.247-162.247   s72.784-162.247,162.247-162.247s162.247,72.784,162.247,162.247S345.468,446.421,256.005,446.421z"/>
	<path style="fill:#1A1A1A;" d="M35.434,277.902c0.15,0.009,0.299,0.013,0.447,0.013c3.823,0,7.032-2.979,7.267-6.846   c6.238-102.947,85.426-185.423,185.356-198.366c1.176-0.152,2.353-0.293,3.532-0.425c0.655-0.074,1.309-0.148,1.965-0.216   c0.866-0.089,1.732-0.171,2.598-0.25c0.627-0.057,1.255-0.109,1.883-0.161c0.838-0.069,1.676-0.139,2.515-0.198   c1.315-0.092,2.633-0.173,3.954-0.241c0.619-0.032,1.237-0.055,1.855-0.081c0.999-0.043,1.998-0.081,3-0.11   c0.534-0.016,1.067-0.031,1.601-0.042c1.529-0.033,3.06-0.056,4.596-0.056s3.066,0.023,4.595,0.056   c0.532,0.012,1.065,0.027,1.598,0.042c1.005,0.029,2.007,0.067,3.009,0.11c0.614,0.027,1.227,0.049,1.841,0.081   c1.327,0.068,2.651,0.15,3.973,0.242c0.818,0.058,1.635,0.126,2.453,0.193c0.657,0.054,1.313,0.109,1.968,0.168   c0.841,0.077,1.682,0.156,2.523,0.243c0.721,0.074,1.441,0.156,2.16,0.237c1.04,0.117,2.079,0.241,3.117,0.374   c100,12.83,179.317,95.31,185.613,198.284c0.245,4.016,3.718,7.055,7.717,6.828c4.017-0.246,7.074-3.701,6.828-7.718   c-6.533-106.885-86.697-193.11-189.222-210.504V47.736h11.812c6.228,0,11.296-5.067,11.296-11.295V11.295   C317.283,5.067,312.216,0,305.987,0h-99.965c-6.228,0-11.296,5.067-11.296,11.295v25.146c0,6.228,5.067,11.295,11.296,11.295   h11.812v11.822C115.253,76.954,35.082,163.234,28.602,270.188C28.358,274.205,31.418,277.658,35.434,277.902z M279.603,57.573   c-0.079-0.008-0.158-0.013-0.237-0.021c-1.749-0.179-3.504-0.337-5.263-0.476c-0.168-0.013-0.335-0.03-0.502-0.043   c-1.816-0.14-3.638-0.257-5.465-0.354c-0.134-0.007-0.269-0.018-0.403-0.025c-1.763-0.09-3.532-0.157-5.306-0.207   c-0.197-0.006-0.395-0.017-0.592-0.022c-1.938-0.049-3.88-0.076-5.829-0.076s-3.893,0.027-5.831,0.076   c-0.189,0.005-0.379,0.015-0.569,0.021c-1.783,0.05-3.562,0.117-5.336,0.208c-0.115,0.006-0.229,0.015-0.344,0.021   c-1.851,0.097-3.696,0.217-5.535,0.358c-0.135,0.01-0.27,0.024-0.405,0.035c-1.797,0.142-3.588,0.303-5.374,0.486   c-0.068,0.007-0.137,0.012-0.205,0.019v-9.837h47.195v9.837H279.603z M209.3,33.163v-18.59h93.41v18.59h-15.821h-61.768H209.3z"/>
	<path style="fill:#1A1A1A;" d="M476.234,298.06c-4.011-0.37-7.562,2.559-7.944,6.565   C457.836,414.54,366.574,497.427,256.005,497.427c-110.699,0-201.972-82.994-212.308-193.051c-0.377-4.007-3.929-6.944-7.936-6.573   c-4.007,0.376-6.95,3.929-6.574,7.935c5.279,56.211,31.214,108.248,73.027,146.524C144.295,490.785,198.913,512,256.005,512   c57.046,0,111.629-21.185,153.697-59.653c41.796-38.219,67.755-90.192,73.095-146.343   C483.179,301.998,480.24,298.441,476.234,298.06z"/>
	<path style="fill:#1A1A1A;" d="M256.005,254.543c-16.339,0-29.632,13.293-29.632,29.632s13.293,29.632,29.632,29.632   s29.632-13.293,29.632-29.632S272.344,254.543,256.005,254.543z M256.005,299.233c-8.304,0-15.059-6.755-15.059-15.059   s6.755-15.059,15.059-15.059c8.304,0,15.059,6.755,15.059,15.059S264.308,299.233,256.005,299.233z"/>
	<path style="fill:#1A1A1A;" d="M259.418,133.243c-0.053-0.001-0.177-0.003-0.231-0.003c-5.772,0-10.469,4.687-10.469,10.447v88.482   c0,4.025,3.262,7.287,7.287,7.287c24.658,0,44.719,20.061,44.719,44.719c0,4.025,3.262,7.287,7.287,7.287h88.482   c2.831,0,5.481-1.115,7.46-3.139c1.959-2.003,3.046-4.76,2.983-7.564c-0.867-39.013-16.557-75.712-44.18-103.335   S298.435,134.11,259.418,133.243z M314.852,276.888c-3.308-26.881-24.679-48.251-51.56-51.561v-77.359   c69.741,3.651,125.268,59.176,128.919,128.919h-77.359V276.888z"/>
</g>
<g>
</g>
<g>
</g>
<g>
</g>
<g>
</g>
<g>
</g>
<g>
</g>
<g>
</g>
<g>
</g>
<g>
</g>
<g>
</g>
<g>
</g>
<g>
</g>
<g>
</g>
<g>
</g>
<g>
</g>
</svg>
