<?xml version="1.0" encoding="iso-8859-1"?>
<!-- Generator: Adobe Illustrator 19.0.0, SVG Export Plug-In . SVG Version: 6.00 Build 0)  -->
<svg xmlns="http://www.w3.org/2000/svg" xmlns:xlink="http://www.w3.org/1999/xlink" version="1.1" id="Capa_1" x="0px" y="0px" viewBox="0 0 512 512" style="enable-background:new 0 0 512 512;" xml:space="preserve">
<polygon style="fill:#FFB427;" points="292.799,449.502 219.201,449.502 228.085,371.083 283.915,371.083 "/>
<polygon style="fill:#FF9D00;" points="283.915,371.083 248.869,371.083 257.753,449.502 292.799,449.502 "/>
<path style="fill:#A0D860;" d="M498.94,380.429H13.061c-3.57,0-6.02-3.508-5.476-7.817L49.047,44.215  c0.376-2.979,3.073-5.386,6.026-5.386h401.856c2.952,0,5.649,2.407,6.026,5.386l41.462,328.397  C504.96,376.922,502.509,380.429,498.94,380.429z"/>
<path style="fill:#61C979;" d="M504.416,372.612L462.954,44.215c-0.376-2.979-3.073-5.386-6.026-5.386h-34.546  c2.952,0,5.649,2.407,6.026,5.386l41.462,328.397c0.544,4.31-1.907,7.817-5.476,7.817h34.546  C502.509,380.429,504.96,376.922,504.416,372.612z"/>
<g>
	<path style="fill:#FFFCFD;" d="M171.306,233.711H69.084c-1.898,0-3.248-1.725-3.015-3.848l6.795-62.008   c0.216-1.969,1.867-3.562,3.69-3.562h98.137c1.822,0,3.225,1.593,3.133,3.562l-2.9,62.008   C174.823,231.986,173.204,233.711,171.306,233.711z"/>
	<path style="fill:#FFFCFD;" d="M307.111,233.711H204.889c-1.898,0-3.382-1.725-3.316-3.848l1.947-62.008   c0.062-1.969,1.589-3.562,3.411-3.562h98.137c1.822,0,3.349,1.593,3.411,3.562l1.947,62.008   C310.494,231.986,309.009,233.711,307.111,233.711z"/>
	<path style="fill:#FFFCFD;" d="M442.916,233.711H340.695c-1.898,0-3.517-1.725-3.617-3.848l-2.9-62.008   c-0.092-1.969,1.311-3.562,3.133-3.562h98.137c1.822,0,3.474,1.593,3.69,3.562l6.795,62.008   C446.164,231.986,444.814,233.711,442.916,233.711z"/>
	<path style="fill:#FFFCFD;" d="M166.022,342.097h-108.6c-2.016,0-3.438-1.947-3.175-4.343l7.65-69.813   c0.242-2.212,2.004-4.001,3.935-4.001h104c1.931,0,3.413,1.789,3.309,4.001l-3.266,69.813   C169.764,340.15,168.038,342.097,166.022,342.097z"/>
	<path style="fill:#FFFCFD;" d="M310.3,342.097H201.7c-2.016,0-3.59-1.947-3.515-4.343l2.192-69.813   c0.069-2.212,1.691-4.001,3.622-4.001H308c1.931,0,3.553,1.789,3.622,4.001l2.192,69.813   C313.89,340.15,312.316,342.097,310.3,342.097z"/>
	<path style="fill:#FFFCFD;" d="M454.578,342.097h-108.6c-2.016,0-3.742-1.947-3.854-4.343l-3.266-69.813   c-0.103-2.212,1.378-4.001,3.309-4.001h104c1.931,0,3.693,1.789,3.935,4.001l7.65,69.813   C458.016,340.15,456.595,342.097,454.578,342.097z"/>
	<path style="fill:#FFFCFD;" d="M176.004,137.35H79.453c-1.793,0-3.077-1.539-2.87-3.434l6.075-55.443   c0.193-1.764,1.748-3.192,3.473-3.192h92.899c1.725,0,3.056,1.427,2.974,3.192l-2.593,55.443   C179.322,135.811,177.797,137.35,176.004,137.35z"/>
</g>
<g>
	<path style="fill:#E6E6E6;" d="M174.69,164.293h-34.88c1.822,0,3.225,1.593,3.133,3.562l-2.901,62.008   c-0.099,2.123-1.719,3.848-3.617,3.848h34.88c1.898,0,3.517-1.725,3.617-3.848l2.9-62.008   C177.915,165.885,176.513,164.293,174.69,164.293z"/>
	<path style="fill:#E6E6E6;" d="M169.832,263.94h-34.88c1.931,0,3.413,1.789,3.309,4.001l-3.266,69.813   c-0.112,2.396-1.838,4.343-3.854,4.343h34.88c2.016,0,3.742-1.947,3.854-4.343l3.266-69.813   C173.245,265.73,171.763,263.94,169.832,263.94z"/>
	<path style="fill:#E6E6E6;" d="M179.03,75.281h-34.88c1.725,0,3.056,1.427,2.974,3.192l-2.593,55.443   c-0.089,1.895-1.614,3.434-3.407,3.434h34.88c1.793,0,3.318-1.539,3.407-3.434l2.593-55.443   C182.087,76.709,180.755,75.281,179.03,75.281z"/>
</g>
<path style="fill:#FFFCFD;" d="M304.276,137.35h-96.551c-1.793,0-3.198-1.539-3.138-3.434l1.741-55.443  c0.055-1.764,1.499-3.192,3.223-3.192h92.899c1.725,0,3.168,1.427,3.223,3.192l1.741,55.443  C307.474,135.811,306.069,137.35,304.276,137.35z"/>
<g>
	<path style="fill:#E6E6E6;" d="M308.48,167.855c-0.062-1.969-1.589-3.562-3.411-3.562H270.69c1.822,0,3.349,1.593,3.411,3.562   l1.947,62.008c0.067,2.123-1.418,3.848-3.316,3.848h34.379c1.898,0,3.382-1.725,3.316-3.848L308.48,167.855z"/>
	<path style="fill:#E6E6E6;" d="M311.623,267.942c-0.069-2.212-1.691-4.001-3.622-4.001h-34.379c1.931,0,3.553,1.789,3.622,4.001   l2.192,69.813c0.075,2.396-1.498,4.343-3.515,4.343H310.3c2.016,0,3.59-1.947,3.515-4.343L311.623,267.942z"/>
	<path style="fill:#E6E6E6;" d="M305.673,78.473c-0.055-1.765-1.499-3.192-3.223-3.192h-34.379c1.725,0,3.168,1.427,3.223,3.192   l1.741,55.443c0.059,1.895-1.345,3.434-3.138,3.434h34.379c1.793,0,3.198-1.539,3.138-3.434L305.673,78.473z"/>
</g>
<path style="fill:#FFFCFD;" d="M432.548,137.35h-96.551c-1.793,0-3.318-1.539-3.407-3.434l-2.593-55.443  c-0.083-1.764,1.249-3.192,2.974-3.192h92.899c1.725,0,3.28,1.427,3.473,3.192l6.075,55.443  C435.625,135.811,434.341,137.35,432.548,137.35z"/>
<g>
	<path style="fill:#E6E6E6;" d="M445.931,229.863l-6.795-62.008c-0.216-1.969-1.867-3.562-3.69-3.562h-35.402   c1.822,0,3.474,1.593,3.69,3.562l6.795,62.008c0.233,2.123-1.117,3.848-3.015,3.848h35.402   C444.814,233.711,446.164,231.986,445.931,229.863z"/>
	<path style="fill:#E6E6E6;" d="M457.754,337.754l-7.65-69.813c-0.242-2.212-2.004-4.001-3.935-4.001h-35.402   c1.931,0,3.692,1.789,3.935,4.001l7.65,69.813c0.263,2.396-1.159,4.343-3.175,4.343h35.402   C456.595,342.097,458.016,340.15,457.754,337.754z"/>
	<path style="fill:#E6E6E6;" d="M435.418,133.916l-6.075-55.443c-0.193-1.765-1.748-3.192-3.473-3.192h-35.402   c1.725,0,3.28,1.427,3.473,3.192l6.075,55.443c0.208,1.895-1.077,3.434-2.87,3.434h35.402   C434.341,137.35,435.625,135.811,435.418,133.916z"/>
</g>
<path style="fill:#FF4D4A;" d="M382.747,473.173H129.253c-1.755,0-3.178-1.423-3.178-3.178v-10.233c0-11.2,9.08-20.28,20.28-20.28  h219.29c11.2,0,20.28,9.08,20.28,20.28v10.233C385.925,471.751,384.503,473.173,382.747,473.173z"/>
<path style="fill:#E13F33;" d="M351.191,473.173h31.556c1.708,0,3.091-1.351,3.164-3.041l-0.027-11.174  c-0.426-10.824-9.311-19.476-20.239-19.476H351.11L351.191,473.173z"/>
<g>
	<path style="fill:#1A1A1A;" d="M511.866,371.671L479.73,117.128c-0.52-4.115-4.286-7.025-8.392-6.51   c-4.115,0.52-7.03,4.277-6.511,8.392l32.058,253.91H284.974h-57.948H15.115L56.349,46.338h399.303l4.638,36.736   c0.52,4.115,4.286,7.024,8.392,6.51c4.115-0.52,7.03-4.277,6.511-8.392l-4.788-37.918c-0.846-6.705-6.765-11.957-13.477-11.957   H55.073c-6.712,0-12.631,5.252-13.477,11.955l-41.463,328.4c-0.565,4.487,0.683,8.844,3.424,11.954   c2.452,2.781,5.827,4.313,9.503,4.313h205.557l-4.988,44.033h-67.275c-15.323,0-27.79,12.467-27.79,27.79v10.233   c0,5.894,4.794,10.688,10.688,10.688h253.495c5.894,0,10.688-4.794,10.688-10.688v-10.233c0-15.324-12.467-27.79-27.79-27.79   H298.37l-4.988-44.033H498.94c3.676,0,7.05-1.532,9.503-4.313C511.185,380.516,512.432,376.159,511.866,371.671z M233.733,387.939   h44.534l4.988,44.033h-54.51L233.733,387.939z M365.646,446.992c7.042,0,12.77,5.729,12.77,12.77v5.901H133.585v-5.901   c0-7.042,5.728-12.77,12.77-12.77h73.982h71.327H365.646z"/>
	<path style="fill:#1A1A1A;" d="M185.325,168.205c0.141-3.03-0.954-6.001-3.006-8.151c-2.013-2.11-4.723-3.271-7.629-3.271H76.553   c-5.624,0-10.524,4.504-11.154,10.254l-6.794,62.008c-0.353,3.218,0.637,6.392,2.714,8.709c1.975,2.204,4.805,3.467,7.766,3.467   h102.222c5.945,0,10.829-4.834,11.119-11.007L185.325,168.205z M167.576,226.201H74.025l5.961-54.399h90.134L167.576,226.201z"/>
	<path style="fill:#1A1A1A;" d="M194.068,229.628c-0.098,3.114,1.059,6.152,3.173,8.333c2.037,2.102,4.753,3.26,7.649,3.26h102.222   c2.895,0,5.612-1.158,7.649-3.26c2.114-2.182,3.271-5.219,3.173-8.334l-1.947-62.008c-0.187-5.976-5.085-10.838-10.918-10.838   h-98.136c-5.833,0-10.731,4.861-10.918,10.837L194.068,229.628z M210.91,171.802h90.18l1.708,54.399h-93.597L210.91,171.802z"/>
	<path style="fill:#1A1A1A;" d="M340.695,241.221h102.222c2.961,0,5.791-1.263,7.766-3.467c2.077-2.318,3.067-5.492,2.714-8.709   l-6.794-62.01c-0.631-5.749-5.531-10.253-11.154-10.253H337.31c-2.906,0-5.616,1.162-7.629,3.271   c-2.052,2.15-3.147,5.121-3.006,8.152l2.9,62.01C329.866,236.387,334.749,241.221,340.695,241.221z M432.014,171.802l5.961,54.399   h-93.551l-2.544-54.399H432.014z"/>
	<path style="fill:#1A1A1A;" d="M57.001,312.616c-4.136-0.452-7.833,2.525-8.282,6.647l-1.936,17.672   c-0.375,3.408,0.653,6.749,2.818,9.165c1.998,2.229,4.848,3.507,7.822,3.507h108.599c6.066,0,11.054-5.052,11.357-11.502   l3.265-69.812c0.15-3.197-0.99-6.314-3.125-8.551c-2.037-2.135-4.767-3.311-7.686-3.311h-104c-5.735,0-10.743,4.697-11.4,10.693   l-1.742,15.892c-0.452,4.123,2.524,7.831,6.647,8.283c4.135,0.448,7.831-2.525,8.283-6.647l1.447-13.201h96.392l-2.953,63.137   H62.149l1.499-13.688C64.1,316.776,61.124,313.067,57.001,312.616z"/>
	<path style="fill:#1A1A1A;" d="M190.68,337.519c-0.104,3.305,1.103,6.508,3.313,8.788c2.062,2.128,4.799,3.3,7.708,3.3H310.3   c2.908,0,5.645-1.172,7.707-3.3c2.21-2.28,3.417-5.483,3.313-8.788l-2.191-69.813c-0.199-6.322-5.086-11.275-11.128-11.275H204   c-6.042,0-10.93,4.953-11.128,11.275L190.68,337.519z M207.781,271.451h96.439l1.982,63.137H205.799L207.781,271.451z"/>
	<path style="fill:#1A1A1A;" d="M345.979,349.607h108.599c2.974,0,5.824-1.278,7.822-3.507c2.165-2.416,3.193-5.757,2.818-9.164   l-7.65-69.813c-0.657-5.996-5.665-10.692-11.4-10.692h-104c-2.919,0-5.649,1.176-7.686,3.311c-2.136,2.238-3.275,5.355-3.125,8.551   l3.265,69.814C334.925,344.556,339.913,349.607,345.979,349.607z M442.933,271.451l6.918,63.137H349.494l-2.953-63.137H442.933z"/>
	<path style="fill:#1A1A1A;" d="M189.505,78.826c0.137-2.894-0.92-5.745-2.899-7.82c-1.962-2.056-4.723-3.235-7.575-3.235h-92.9   c-5.526,0-10.33,4.341-10.938,9.884L69.118,133.1c-0.335,3.062,0.621,6.098,2.624,8.332c1.953,2.178,4.764,3.428,7.711,3.428   h96.552c5.841,0,10.631-4.654,10.908-10.592L189.505,78.826z M172.083,129.84H84.584l5.156-47.049h84.544L172.083,129.84z"/>
	<path style="fill:#1A1A1A;" d="M207.724,144.86h96.552c2.883,0,5.579-1.144,7.592-3.222c2.033-2.098,3.146-4.998,3.052-7.957   l-1.741-55.445c-0.182-5.77-4.996-10.465-10.73-10.465H209.55c-5.734,0-10.548,4.694-10.73,10.466l-1.741,55.443   c-0.094,2.96,1.019,5.86,3.052,7.958C202.145,143.716,204.842,144.86,207.724,144.86z M213.705,82.791h84.591l1.477,47.049h-87.544   L213.705,82.791z"/>
	<path style="fill:#1A1A1A;" d="M432.548,144.86c2.947,0,5.759-1.25,7.711-3.428c2.003-2.234,2.959-5.271,2.624-8.333l-6.075-55.445   c-0.608-5.542-5.412-9.882-10.938-9.882h-92.899c-2.852,0-5.614,1.179-7.576,3.235c-1.979,2.075-3.036,4.925-2.9,7.818   l2.593,55.441c0.277,5.941,5.067,10.595,10.908,10.595h96.552V144.86z M422.261,82.791l5.155,47.049h-87.499l-2.2-47.049   C337.717,82.791,422.261,82.791,422.261,82.791z"/>
</g>
<g>
</g>
<g>
</g>
<g>
</g>
<g>
</g>
<g>
</g>
<g>
</g>
<g>
</g>
<g>
</g>
<g>
</g>
<g>
</g>
<g>
</g>
<g>
</g>
<g>
</g>
<g>
</g>
<g>
</g>
</svg>
