<?xml version="1.0" encoding="iso-8859-1"?>
<!-- Generator: Adobe Illustrator 19.0.0, SVG Export Plug-In . SVG Version: 6.00 Build 0)  -->
<svg xmlns="http://www.w3.org/2000/svg" xmlns:xlink="http://www.w3.org/1999/xlink" version="1.1" id="Capa_1" x="0px" y="0px" viewBox="0 0 511.999 511.999" style="enable-background:new 0 0 511.999 511.999;" xml:space="preserve">
<path style="fill:#0072A2;" d="M253.455,27.287l-105.238,91.588V82.568H83.731v92.429L8.66,240.33  c-2.761,2.403-1.062,6.945,2.599,6.945h56.486v241.674c0,6.132,4.971,11.103,11.103,11.103h354.304  c6.132,0,11.103-4.971,11.103-11.103V247.275h56.485c3.66,0,5.36-4.542,2.599-6.945L258.545,27.287  C257.086,26.017,254.914,26.017,253.455,27.287z"/>
<path style="fill:#006289;" d="M504.696,243.402c-0.116-0.884-0.531-1.751-1.323-2.441l-7.428-6.465  c-0.051-0.282-0.145-0.558-0.261-0.829L258.545,27.287c-1.459-1.27-3.631-1.27-5.09,0l-16.213,14.11l0.379,0.33l-0.65,0.566  l198.812,173.024c-0.127,0.842-0.806,1.592-1.821,1.592h-18.817c-1.023,0-1.852,0.829-1.852,1.852v239.822  c0,6.132-4.971,11.103-11.103,11.103H67.744v19.262c0,6.132,4.971,11.103,11.103,11.103h354.304c6.132,0,11.103-4.971,11.103-11.103  V247.275h56.485C503.1,247.275,504.636,245.387,504.696,243.402z"/>
<path style="fill:#A0D860;" d="M157.482,54.845H71.891c-2.272,0-4.113,1.842-4.113,4.114v21.44c0,2.272,1.842,4.114,4.113,4.114  h85.591c2.272,0,4.114-1.842,4.114-4.114v-21.44C161.596,56.687,159.754,54.845,157.482,54.845z"/>
<path style="fill:#61C979;" d="M157.482,54.845h-26.757v29.667h26.757c2.272,0,4.114-1.842,4.114-4.114v-21.44  C161.596,56.687,159.754,54.845,157.482,54.845z"/>
<g>
	<path style="fill:#FFFCFD;" d="M151.987,411.85h-29.691c-2.942,0-5.327-2.385-5.327-5.327v-29.691c0-2.942,2.385-5.327,5.327-5.327   h29.691c2.942,0,5.327,2.385,5.327,5.327v29.691C157.314,409.465,154.929,411.85,151.987,411.85z"/>
	<path style="fill:#FFFCFD;" d="M383.36,411.85h-29.691c-2.942,0-5.327-2.385-5.327-5.327v-29.691c0-2.942,2.385-5.327,5.327-5.327   h29.691c2.942,0,5.327,2.385,5.327,5.327v29.691C388.687,409.465,386.302,411.85,383.36,411.85z"/>
	<path style="fill:#FFFCFD;" d="M306.236,411.85h-29.691c-2.942,0-5.327-2.385-5.327-5.327v-29.691c0-2.942,2.385-5.327,5.327-5.327   h29.691c2.942,0,5.327,2.385,5.327,5.327v29.691C311.563,409.465,309.178,411.85,306.236,411.85z"/>
	<path style="fill:#FFFCFD;" d="M229.111,411.85H199.42c-2.942,0-5.327-2.385-5.327-5.327v-29.691c0-2.942,2.385-5.327,5.327-5.327   h29.691c2.942,0,5.327,2.385,5.327,5.327v29.691C234.438,409.465,232.053,411.85,229.111,411.85z"/>
</g>
<path style="fill:#FFB427;" d="M410.587,340.487H95.068c-1.402,0-2.539-1.137-2.539-2.539v-75.139c0-1.402,1.137-2.539,2.539-2.539  h315.519c1.402,0,2.539,1.137,2.539,2.539v75.139C413.127,339.35,411.99,340.487,410.587,340.487z"/>
<g>
	<path style="fill:#1A1A1A;" d="M115.579,321.941c1.423,1.423,3.288,2.134,5.153,2.134s3.73-0.712,5.153-2.134l11.257-11.257   l11.257,11.257c1.423,1.423,3.287,2.134,5.153,2.134c1.864,0,3.73-0.712,5.153-2.134c2.845-2.845,2.845-7.459,0-10.304   l-11.257-11.258l11.257-11.258c2.845-2.845,2.845-7.459,0-10.304c-2.846-2.845-7.459-2.845-10.305,0l-11.257,11.257l-11.257-11.257   c-2.845-2.846-7.458-2.846-10.305,0c-2.845,2.845-2.845,7.459,0,10.304l11.257,11.258l-11.257,11.258   C112.734,314.482,112.734,319.095,115.579,321.941z"/>
	<path style="fill:#1A1A1A;" d="M192.703,321.941c1.423,1.423,3.287,2.134,5.153,2.134c1.864,0,3.73-0.712,5.153-2.134   l11.257-11.257l11.257,11.257c1.423,1.423,3.288,2.134,5.153,2.134s3.73-0.712,5.153-2.134c2.845-2.845,2.845-7.459,0-10.304   l-11.258-11.258l11.258-11.258c2.845-2.845,2.845-7.459,0-10.304c-2.845-2.846-7.458-2.846-10.305,0l-11.257,11.257l-11.257-11.257   c-2.846-2.845-7.459-2.845-10.305,0c-2.845,2.845-2.845,7.459,0,10.304l11.258,11.258l-11.258,11.258   C189.858,314.482,189.858,319.095,192.703,321.941z"/>
	<path style="fill:#1A1A1A;" d="M508.123,227.632L384.202,119.785c-3.035-2.641-7.638-2.322-10.28,0.713   c-2.642,3.036-2.323,7.638,0.713,10.28l117.213,102.009h-47.593c-4.025,0-7.286,3.262-7.286,7.286v241.674   c0,2.105-1.712,3.817-3.818,3.817H78.848c-2.105,0-3.818-1.712-3.818-3.817V359.944c0-4.024-3.262-7.286-7.286-7.286   s-7.286,3.262-7.286,7.286v121.803c0,10.14,8.25,18.389,18.39,18.389h354.304c10.14,0,18.39-8.249,18.39-18.389V247.36h49.199   c4.737,0,8.871-2.867,10.531-7.303S511.697,230.743,508.123,227.632z"/>
	<path style="fill:#1A1A1A;" d="M122.296,364.219c-6.955,0-12.614,5.658-12.614,12.613v29.691c0,6.955,5.658,12.613,12.614,12.613   h29.691c6.955,0,12.614-5.658,12.614-12.613v-29.691c0-6.955-5.658-12.613-12.614-12.613H122.296z M150.028,404.564h-25.773   v-25.772h25.773V404.564z"/>
	<path style="fill:#1A1A1A;" d="M353.669,364.219c-6.955,0-12.614,5.658-12.614,12.613v29.691c0,6.955,5.658,12.613,12.614,12.613   h29.691c6.955,0,12.614-5.658,12.614-12.613v-29.691c0-6.955-5.658-12.613-12.614-12.613H353.669z M381.401,404.564h-25.773   v-25.772h25.773V404.564z"/>
	<path style="fill:#1A1A1A;" d="M276.545,364.219c-6.955,0-12.614,5.658-12.614,12.613v29.691c0,6.955,5.658,12.613,12.614,12.613   h29.691c6.955,0,12.614-5.658,12.614-12.613v-29.691c0-6.955-5.658-12.613-12.614-12.613H276.545z M304.276,404.564h-25.773   v-25.772h25.773V404.564z"/>
	<path style="fill:#1A1A1A;" d="M199.42,364.219c-6.955,0-12.614,5.658-12.614,12.613v29.691c0,6.955,5.658,12.613,12.614,12.613   h29.691c6.955,0,12.614-5.658,12.614-12.613v-29.691c0-6.955-5.658-12.613-12.614-12.613H199.42z M227.152,404.564h-25.773v-25.772   h25.773V404.564z"/>
	<path style="fill:#1A1A1A;" d="M420.413,337.948v-75.139c0-5.418-4.408-9.826-9.825-9.826H95.068c-5.417,0-9.825,4.408-9.825,9.826   v75.139c0,5.418,4.408,9.826,9.825,9.826h315.52C416.005,347.774,420.413,343.366,420.413,337.948z M405.84,333.201H99.815v-65.645   H405.84V333.201z"/>
	<path style="fill:#1A1A1A;" d="M60.458,325.293c0,4.024,3.262,7.286,7.286,7.286s7.286-3.262,7.286-7.286v-85.22   c0-4.024-3.262-7.286-7.286-7.286H20.151l68.363-59.495c1.59-1.384,2.503-3.388,2.503-5.497V91.798h49.914v19.875   c0,2.855,1.668,5.448,4.266,6.631c2.599,1.183,5.65,0.74,7.803-1.135L256,27.53l92.471,80.477c3.036,2.642,7.638,2.323,10.28-0.713   c2.642-3.035,2.323-7.638-0.712-10.28l-94.71-82.424c-4.179-3.637-10.48-3.635-14.657,0l-80.675,70.211   c0.569-1.355,0.886-2.842,0.886-4.402v-21.44c0-6.286-5.114-11.4-11.4-11.4H71.891c-6.286,0-11.4,5.114-11.4,11.4v21.44   c0,6.286,5.114,11.4,11.4,11.4h4.553v72.679L3.877,227.632c-3.574,3.11-4.809,7.987-3.149,12.424s5.794,7.303,10.531,7.303h49.199   V325.293z M155.504,91.798h1.978c1.014,0,1.992-0.146,2.928-0.395l-4.906,4.27L155.504,91.798L155.504,91.798z M75.064,77.226   V62.132h79.246v15.094h-6.092H83.73H75.064z"/>
	<path style="fill:#1A1A1A;" d="M353.254,324.075h35.433c4.025,0,7.286-3.262,7.286-7.286c0-4.024-3.262-7.286-7.286-7.286h-35.433   c-4.025,0-7.286,3.262-7.286,7.286C345.968,320.813,349.23,324.075,353.254,324.075z"/>
	<path style="fill:#1A1A1A;" d="M273.674,324.075h35.433c4.025,0,7.286-3.262,7.286-7.286c0-4.024-3.262-7.286-7.286-7.286h-35.433   c-4.025,0-7.286,3.262-7.286,7.286C266.387,320.813,269.649,324.075,273.674,324.075z"/>
</g>
<g>
</g>
<g>
</g>
<g>
</g>
<g>
</g>
<g>
</g>
<g>
</g>
<g>
</g>
<g>
</g>
<g>
</g>
<g>
</g>
<g>
</g>
<g>
</g>
<g>
</g>
<g>
</g>
<g>
</g>
</svg>
