<?xml version="1.0" encoding="iso-8859-1"?>
<!-- Generator: Adobe Illustrator 19.0.0, SVG Export Plug-In . SVG Version: 6.00 Build 0)  -->
<svg xmlns="http://www.w3.org/2000/svg" xmlns:xlink="http://www.w3.org/1999/xlink" version="1.1" id="Capa_1" x="0px" y="0px" viewBox="0 0 512 512" style="enable-background:new 0 0 512 512;" xml:space="preserve">
<path style="fill:#0072A2;" d="M40.562,470.549v-456.8c0-3.569,2.893-6.462,6.462-6.462h417.953c3.569,0,6.462,2.893,6.462,6.462  v456.8H40.562z"/>
<path style="fill:#006289;" d="M464.976,7.287h-33.194c3.569,0,6.462,2.893,6.462,6.462v456.8h33.194v-456.8  C471.438,10.18,468.545,7.287,464.976,7.287z"/>
<path style="fill:#A0D860;" d="M439.476,470.549H72.524V47.671c0-4.652,3.771-8.422,8.422-8.422h350.106  c4.652,0,8.422,3.771,8.422,8.422v422.878H439.476z"/>
<path style="fill:#61C979;" d="M431.053,39.249h-33.194c4.652,0,8.422,3.771,8.422,8.422v422.878h33.194V47.671  C439.476,43.019,435.705,39.249,431.053,39.249z"/>
<g>
	<path style="fill:#F7F9F9;" d="M100.703,233.129V74.142c0-3.708,3.006-6.715,6.715-6.715h127.299c3.708,0,6.715,3.006,6.715,6.715   v158.987c0,3.708-3.006,6.715-6.715,6.715H107.418C103.71,239.844,100.703,236.838,100.703,233.129z"/>
	<path style="fill:#F7F9F9;" d="M100.703,436.628V277.64c0-3.708,3.006-6.715,6.715-6.715h127.299c3.708,0,6.715,3.006,6.715,6.715   v158.987c0,3.708-3.006,6.715-6.715,6.715H107.418C103.71,443.342,100.703,440.336,100.703,436.628z"/>
	<path style="fill:#F7F9F9;" d="M270.569,233.129V74.142c0-3.708,3.006-6.715,6.715-6.715h127.299c3.708,0,6.715,3.006,6.715,6.715   v158.987c0,3.708-3.006,6.715-6.715,6.715h-127.3C273.575,239.844,270.569,236.838,270.569,233.129z"/>
</g>
<path style="fill:#E4E4E4;" d="M404.582,67.427h-33.194c3.708,0,6.715,3.006,6.715,6.715v158.987c0,3.708-3.006,6.715-6.715,6.715  h33.194c3.708,0,6.715-3.006,6.715-6.715V74.142C411.296,70.434,408.29,67.427,404.582,67.427z"/>
<path style="fill:#F7F9F9;" d="M270.569,436.628V277.64c0-3.708,3.006-6.715,6.715-6.715h127.299c3.708,0,6.715,3.006,6.715,6.715  v158.987c0,3.708-3.006,6.715-6.715,6.715h-127.3C273.575,443.342,270.569,440.336,270.569,436.628z"/>
<g>
	<path style="fill:#E4E4E4;" d="M404.582,270.926h-33.194c3.708,0,6.715,3.006,6.715,6.715v158.987c0,3.708-3.006,6.715-6.715,6.715   h33.194c3.708,0,6.715-3.006,6.715-6.715V277.64C411.296,273.932,408.29,270.926,404.582,270.926z"/>
	<path style="fill:#E4E4E4;" d="M234.717,67.427h-33.194c3.708,0,6.715,3.006,6.715,6.715v158.987c0,3.708-3.006,6.715-6.715,6.715   h33.194c3.708,0,6.715-3.006,6.715-6.715V74.142C241.431,70.434,238.425,67.427,234.717,67.427z"/>
	<path style="fill:#E4E4E4;" d="M234.717,270.926h-33.194c3.708,0,6.715,3.006,6.715,6.715v158.987c0,3.708-3.006,6.715-6.715,6.715   h33.194c3.708,0,6.715-3.006,6.715-6.715V277.64C241.431,273.932,238.425,270.926,234.717,270.926z"/>
</g>
<path style="fill:#D96B37;" d="M493.522,504.713H18.478c-4.041,0-7.318-3.276-7.318-7.318v-23.194c0-4.041,3.276-7.318,7.318-7.318  h475.044c4.041,0,7.318,3.276,7.318,7.318v23.194C500.84,501.437,497.563,504.713,493.522,504.713z"/>
<path style="fill:#B14418;" d="M493.522,466.884h-25.876v37.829h25.876c4.041,0,7.318-3.276,7.318-7.318v-23.194  C500.84,470.161,497.563,466.884,493.522,466.884z"/>
<g>
	<path style="fill:#1A1A1A;" d="M234.717,60.141H107.418c-7.72,0-14.001,6.281-14.001,14.001V233.13   c0,7.72,6.281,14.001,14.001,14.001h127.299c7.72,0,14.001-6.281,14.001-14.001V74.142   C248.718,66.422,242.437,60.141,234.717,60.141z M234.145,232.557H107.99V74.714h126.155L234.145,232.557L234.145,232.557z"/>
	<path style="fill:#1A1A1A;" d="M234.717,263.639H107.418c-7.72,0-14.001,6.281-14.001,14.001v158.987   c0,7.721,6.281,14.001,14.001,14.001h127.299c7.72,0,14.001-6.281,14.001-14.001V277.64   C248.718,269.92,242.437,263.639,234.717,263.639z M234.145,436.056H107.99V278.213h126.155L234.145,436.056L234.145,436.056z"/>
	<path style="fill:#1A1A1A;" d="M404.582,60.141H277.284c-7.721,0-14.002,6.281-14.002,14.001V233.13   c0,7.72,6.281,14.001,14.002,14.001h127.298c7.721,0,14.002-6.281,14.002-14.001V74.142   C418.583,66.422,412.303,60.141,404.582,60.141z M404.01,232.557H277.855V74.714H404.01V232.557z"/>
	<path style="fill:#1A1A1A;" d="M404.582,263.639H277.284c-7.721,0-14.002,6.281-14.002,14.001v158.987   c0,7.721,6.281,14.001,14.002,14.001h127.298c7.721,0,14.002-6.281,14.002-14.001V277.64   C418.583,269.92,412.303,263.639,404.582,263.639z M404.01,436.056H277.855V278.213H404.01V436.056z"/>
	<path style="fill:#1A1A1A;" d="M493.522,459.598h-14.797v-349.51c0-4.024-3.262-7.287-7.287-7.287s-7.287,3.262-7.287,7.287v349.51   h-17.39V47.671c0-8.662-7.047-15.709-15.709-15.709H80.947c-8.662,0-15.709,7.047-15.709,15.709v411.927h-17.39v-71.842   c0-4.024-3.262-7.287-7.287-7.287s-7.287,3.262-7.287,7.287v71.842H18.478c-8.053,0-14.604,6.552-14.604,14.604v23.194   c0,8.053,6.552,14.604,14.604,14.604h475.044c8.053,0,14.604-6.552,14.604-14.604v-23.194   C508.126,466.149,501.575,459.598,493.522,459.598z M79.811,47.671c0-0.626,0.509-1.136,1.136-1.136h350.106   c0.626,0,1.136,0.509,1.136,1.136v411.927H79.811V47.671z M493.536,497.426c0,0-0.004,0.001-0.014,0.001l-475.075-0.031   l0.031-23.225l475.075,0.031L493.536,497.426z"/>
	<path style="fill:#1A1A1A;" d="M40.562,360.451c4.024,0,7.287-3.262,7.287-7.287V14.573h416.304v60.842   c0,4.024,3.262,7.287,7.287,7.287s7.287-3.262,7.287-7.287V13.749C478.725,6.167,472.557,0,464.976,0H47.024   c-7.581,0-13.749,6.167-13.749,13.749v339.416C33.275,357.188,36.537,360.451,40.562,360.451z"/>
</g>
<g>
</g>
<g>
</g>
<g>
</g>
<g>
</g>
<g>
</g>
<g>
</g>
<g>
</g>
<g>
</g>
<g>
</g>
<g>
</g>
<g>
</g>
<g>
</g>
<g>
</g>
<g>
</g>
<g>
</g>
</svg>
