<?xml version="1.0" encoding="iso-8859-1"?>
<!-- Generator: Adobe Illustrator 19.0.0, SVG Export Plug-In . SVG Version: 6.00 Build 0)  -->
<svg xmlns="http://www.w3.org/2000/svg" xmlns:xlink="http://www.w3.org/1999/xlink" version="1.1" id="Capa_1" x="0px" y="0px" viewBox="0 0 512 512" style="enable-background:new 0 0 512 512;" xml:space="preserve">
<path style="fill:#A0D860;" d="M344.684,459.729H167.316c-10.792,0-19.541-8.749-19.541-19.541V71.811  c0-10.792,8.749-19.541,19.541-19.541h177.368c10.792,0,19.54,8.749,19.54,19.541v368.378  C364.224,450.981,355.476,459.729,344.684,459.729z"/>
<path style="fill:#61C979;" d="M344.684,52.271h-36.58c10.792,0,19.541,8.749,19.541,19.541V440.19  c0,10.792-8.749,19.541-19.541,19.541h36.58c10.792,0,19.54-8.749,19.54-19.541V71.811  C364.224,61.019,355.476,52.271,344.684,52.271z"/>
<path style="fill:#FFB427;" d="M338.922,330.919c0.873,47.051-37.445,85.369-84.497,84.497  c-44.342-0.822-80.525-37.005-81.347-81.348c-0.872-47.051,37.445-85.369,84.496-84.496  C301.917,250.393,338.1,286.576,338.922,330.919z"/>
<path style="fill:#FF9D00;" d="M338.937,332.494c0-45.805-37.132-82.937-82.937-82.937V415.43  C301.805,415.43,338.937,378.298,338.937,332.494z"/>
<circle style="fill:#D96B37;" cx="256" cy="332.49" r="54.816"/>
<path style="fill:#FFB427;" d="M307.421,142.632c0.95,29.746-23.359,54.055-53.105,53.106c-26.938-0.86-48.878-22.8-49.737-49.738  c-0.949-29.745,23.359-54.054,53.105-53.105C284.621,93.754,306.561,115.694,307.421,142.632z"/>
<path style="fill:#FF9D00;" d="M307.448,144.316c0-28.414-23.034-51.448-51.448-51.448v102.896  C284.414,195.764,307.448,172.73,307.448,144.316z"/>
<circle style="fill:#D96B37;" cx="256" cy="144.32" r="27.658"/>
<path style="fill:#FFB427;" d="M449.429,368.443c-3.836,0-7.672-1.463-10.599-4.39c-5.854-5.854-5.854-15.344,0-21.197  c47.892-47.892,47.892-125.818,0-173.71c-5.854-5.854-5.854-15.344,0-21.197c5.853-5.854,15.344-5.854,21.197,0  c59.581,59.58,59.581,156.525,0,216.105C457.102,366.979,453.265,368.443,449.429,368.443z"/>
<path style="fill:#FF9D00;" d="M460.028,147.948c-5.083-5.084-12.906-5.746-18.711-2.001c0.88,0.568,1.716,1.23,2.486,2.001  c59.581,59.58,59.581,156.525,0,216.105c-0.77,0.77-1.606,1.433-2.486,2.001c2.463,1.589,5.286,2.39,8.113,2.39  c3.836,0,7.672-1.463,10.599-4.39C519.609,304.472,519.609,207.528,460.028,147.948z"/>
<path style="fill:#FFB427;" d="M410.251,338.982c-3.836,0-7.672-1.463-10.599-4.39c-5.854-5.854-5.854-15.344,0-21.197  c31.647-31.647,31.647-83.142,0-114.789c-5.854-5.854-5.854-15.344,0-21.197c5.853-5.854,15.344-5.854,21.197,0  c43.336,43.335,43.336,113.848,0,157.184C417.923,337.519,414.087,338.982,410.251,338.982z"/>
<path style="fill:#FF9D00;" d="M420.85,177.408c-5.486-5.487-14.168-5.831-20.054-1.033c0.394,0.321,0.776,0.665,1.143,1.033  c43.336,43.335,43.336,113.848,0,157.184c-0.367,0.367-0.749,0.711-1.143,1.033c2.746,2.238,6.101,3.358,9.456,3.358  c3.836,0,7.672-1.463,10.599-4.39C464.186,291.256,464.186,220.744,420.85,177.408z"/>
<path style="fill:#FFB427;" d="M62.571,368.443c3.836,0,7.672-1.463,10.599-4.39c5.854-5.854,5.854-15.344,0-21.197  c-47.892-47.892-47.892-125.818,0-173.71c5.854-5.854,5.854-15.344,0-21.197c-5.853-5.854-15.344-5.854-21.197,0  c-59.581,59.58-59.581,156.525,0,216.105C54.898,366.979,58.735,368.443,62.571,368.443z"/>
<path style="fill:#FF9D00;" d="M73.169,169.145c5.854-5.854,5.854-15.344,0-21.197c-0.77-0.77-1.606-1.433-2.486-2.001  c-0.88,0.568-1.687,1.26-2.486,2.001c-64.149,59.475-59.581,156.525,0,216.105c0.77,0.77,1.606,1.433,2.486,2.001  c0.88-0.568,1.716-1.23,2.486-2.001c5.854-5.854,5.854-15.344,0-21.197C25.278,294.963,25.278,217.037,73.169,169.145z"/>
<path style="fill:#FFB427;" d="M101.749,338.982c3.836,0,7.672-1.463,10.599-4.39c5.854-5.854,5.854-15.344,0-21.197  c-31.647-31.647-31.647-83.142,0-114.789c5.854-5.854,5.854-15.344,0-21.197c-5.853-5.854-15.344-5.854-21.197,0  c-43.336,43.335-43.336,113.848,0,157.184C94.077,337.519,97.913,338.982,101.749,338.982z"/>
<path style="fill:#FF9D00;" d="M112.348,198.606c5.854-5.854,5.854-15.344,0-21.197c-0.37-0.37-0.754-0.715-1.151-1.038  c0.002,0.002,0.005,0.004,0.008,0.006c-0.394,0.321-0.765,0.676-1.143,1.033c-51.413,48.474-43.336,113.848,0,157.184  c0.367,0.367,0.749,0.711,1.143,1.033c0.394-0.321,0.776-0.665,1.143-1.033c5.854-5.854,5.854-15.344,0-21.197  C80.701,281.747,80.701,230.253,112.348,198.606z"/>
<g>
	<path style="fill:#1A1A1A;" d="M165.793,334.203c0.433,23.341,9.839,45.364,26.486,62.011   c16.648,16.647,38.67,26.054,62.011,26.486c0.574,0.011,1.139,0.016,1.71,0.016c24.415,0,47.282-9.598,64.389-27.025   c17.102-17.423,26.272-40.474,25.819-64.908c-0.433-23.341-9.84-45.364-26.487-62.011c-16.648-16.648-38.67-26.054-62.011-26.486   c-0.574-0.011-1.139-0.016-1.71-0.016c-24.414,0-47.281,9.597-64.388,27.024C174.509,286.717,165.34,309.768,165.793,334.203z    M256,256.843c0.481,0,0.956,0.004,1.439,0.013c40.168,0.744,73.453,34.029,74.198,74.197c0.38,20.491-7.308,39.821-21.648,54.429   c-14.681,14.956-34.395,23.056-55.428,22.647c-40.168-0.745-73.453-34.03-74.198-74.198c-0.38-20.491,7.309-39.821,21.649-54.429   C216.356,264.891,235.529,256.843,256,256.843z"/>
	<path style="fill:#1A1A1A;" d="M256,394.596c34.244,0,62.103-27.859,62.103-62.103c0-34.243-27.859-62.102-62.103-62.102   s-62.103,27.859-62.103,62.102C193.897,366.737,221.756,394.596,256,394.596z M256,284.964c26.208,0,47.53,21.322,47.53,47.529   c0,26.208-21.322,47.53-47.53,47.53s-47.53-21.322-47.53-47.53C208.47,306.286,229.792,284.964,256,284.964z"/>
	<path style="fill:#1A1A1A;" d="M254.083,203.02c0.642,0.02,1.278,0.031,1.917,0.031c16.043,0,31.027-6.348,42.192-17.875   c11.161-11.523,17.025-26.714,16.512-42.777c-0.985-30.859-25.929-55.802-56.788-56.787c-16.808-0.539-32.5,5.86-44.109,17.845   c-11.16,11.522-17.024,26.714-16.511,42.775C198.281,177.091,223.225,202.035,254.083,203.02z M224.276,113.596   c8.395-8.668,19.662-13.442,31.724-13.442c0.483,0,0.964,0.008,1.451,0.023c23.196,0.741,41.947,19.491,42.687,42.686   c0.386,12.083-4.023,23.509-12.414,32.173c-8.732,9.015-20.526,13.825-33.176,13.418c-23.196-0.741-41.947-19.491-42.687-42.687   C211.476,133.684,215.884,122.259,224.276,113.596z"/>
	<path style="fill:#1A1A1A;" d="M256,179.26c19.268,0,34.945-15.676,34.945-34.945S275.268,109.371,256,109.371   s-34.945,15.676-34.945,34.945S236.732,179.26,256,179.26z M256,123.944c11.233,0,20.372,9.139,20.372,20.372   c0,11.233-9.139,20.371-20.372,20.371s-20.372-9.139-20.372-20.371C235.628,133.083,244.767,123.944,256,123.944z"/>
	<path style="fill:#1A1A1A;" d="M364.224,125.085c-4.024,0-7.287,3.262-7.287,7.287v307.817c0,6.757-5.497,12.254-12.254,12.254   H167.316c-6.757,0-12.254-5.497-12.254-12.254v-35.061c0-4.024-3.262-7.287-7.287-7.287c-4.024,0-7.287,3.262-7.287,7.287v35.061   c0,14.793,12.035,26.827,26.827,26.827h177.368c14.792,0,26.827-12.035,26.827-26.827V132.372   C371.511,128.348,368.249,125.085,364.224,125.085z"/>
	<path style="fill:#1A1A1A;" d="M344.684,44.984H167.316c-14.792,0-26.827,12.035-26.827,26.827V370.46   c0,4.024,3.262,7.287,7.287,7.287c4.024,0,7.287-3.262,7.287-7.287V71.811c0-6.757,5.497-12.254,12.254-12.254h177.368   c6.757,0,12.254,5.497,12.254,12.254V97.76c0,4.024,3.262,7.287,7.287,7.287c4.024,0,7.287-3.262,7.287-7.287V71.811   C371.511,57.019,359.476,44.984,344.684,44.984z"/>
	<path style="fill:#1A1A1A;" d="M465.181,142.796c-4.207-4.208-9.801-6.526-15.751-6.526c-5.951,0-11.545,2.318-15.751,6.525   c-8.685,8.685-8.685,22.817,0,31.502c45.051,45.051,45.051,118.354,0,163.405c-8.685,8.685-8.685,22.817,0,31.501   c4.207,4.208,9.801,6.525,15.751,6.525c5.951,0,11.545-2.317,15.751-6.525C495.372,339.013,512,298.809,512,256   S495.372,172.987,465.181,142.796z M454.875,358.9c-1.454,1.454-3.389,2.256-5.446,2.256s-3.991-0.801-5.446-2.256   c-3.003-3.003-3.003-7.889,0-10.893c50.733-50.733,50.733-133.281,0-184.014c-3.003-3.003-3.003-7.889,0.001-10.893   c1.454-1.455,3.388-2.256,5.445-2.256s3.991,0.801,5.446,2.257c27.44,27.439,42.551,63.983,42.551,102.9   S482.315,331.461,454.875,358.9z"/>
	<path style="fill:#1A1A1A;" d="M426.002,172.256c-4.207-4.208-9.801-6.525-15.751-6.525s-11.545,2.317-15.751,6.525   c-8.684,8.685-8.684,22.817,0,31.502c28.806,28.806,28.806,75.677,0,104.484c-8.684,8.685-8.684,22.817,0,31.502   c4.207,4.208,9.801,6.525,15.751,6.525s11.545-2.317,15.751-6.524c22.335-22.335,34.636-52.076,34.636-83.744   S448.337,194.591,426.002,172.256z M415.697,329.44c-1.454,1.454-3.388,2.255-5.446,2.255s-3.992-0.801-5.446-2.256   c-3.003-3.003-3.003-7.89,0-10.893c34.488-34.488,34.488-90.605,0-125.093c-3.003-3.003-3.003-7.89,0-10.894   c1.454-1.454,3.389-2.256,5.446-2.256s3.991,0.801,5.446,2.256c19.583,19.583,30.368,45.664,30.368,73.44   S435.28,309.857,415.697,329.44z"/>
	<path style="fill:#1A1A1A;" d="M78.322,174.297c8.685-8.685,8.685-22.817,0-31.501c-4.207-4.208-9.801-6.526-15.751-6.526   s-11.545,2.318-15.751,6.525C16.628,172.987,0,213.191,0,256s16.628,83.013,46.819,113.204c4.207,4.208,9.801,6.525,15.751,6.525   s11.545-2.317,15.751-6.525c8.685-8.685,8.685-22.817,0-31.502C33.271,292.652,33.271,219.348,78.322,174.297z M68.017,358.9   c-1.454,1.454-3.389,2.256-5.446,2.256s-3.991-0.801-5.446-2.256c-27.44-27.439-42.551-63.983-42.551-102.9   s15.111-75.461,42.552-102.9c1.454-1.455,3.389-2.256,5.446-2.256s3.991,0.801,5.446,2.257c3.003,3.003,3.003,7.889,0,10.893   c-50.733,50.733-50.733,133.281,0,184.014C71.02,351.01,71.02,355.897,68.017,358.9z"/>
	<path style="fill:#1A1A1A;" d="M117.5,172.256c-4.207-4.208-9.801-6.525-15.751-6.525c-5.951,0-11.545,2.317-15.751,6.525   C63.663,194.591,51.362,224.332,51.362,256s12.301,61.409,34.636,83.744c4.207,4.208,9.801,6.525,15.751,6.525   c5.951,0,11.545-2.317,15.751-6.524c8.684-8.685,8.684-22.817,0-31.502c-28.806-28.806-28.806-75.677,0-104.484   C126.185,195.073,126.185,180.941,117.5,172.256z M107.195,193.454c-34.488,34.488-34.488,90.605,0,125.093   c3.003,3.003,3.003,7.89,0,10.894c-1.454,1.454-3.388,2.255-5.446,2.255s-3.992-0.801-5.446-2.256   C76.72,309.857,65.935,283.776,65.935,256s10.785-53.857,30.368-73.44c1.454-1.454,3.389-2.256,5.446-2.256   s3.991,0.801,5.446,2.256C110.198,185.564,110.198,190.45,107.195,193.454z"/>
</g>
<g>
</g>
<g>
</g>
<g>
</g>
<g>
</g>
<g>
</g>
<g>
</g>
<g>
</g>
<g>
</g>
<g>
</g>
<g>
</g>
<g>
</g>
<g>
</g>
<g>
</g>
<g>
</g>
<g>
</g>
</svg>
