<?xml version="1.0" encoding="iso-8859-1"?>
<!-- Generator: Adobe Illustrator 19.0.0, SVG Export Plug-In . SVG Version: 6.00 Build 0)  -->
<svg xmlns="http://www.w3.org/2000/svg" xmlns:xlink="http://www.w3.org/1999/xlink" version="1.1" id="Capa_1" x="0px" y="0px" viewBox="0 0 511.999 511.999" style="enable-background:new 0 0 511.999 511.999;" xml:space="preserve">
<path style="fill:#0072A2;" d="M342.771,57.907V24.441c0-9.452-7.662-17.114-17.114-17.114H186.341  c-9.452,0-17.114,7.662-17.114,17.114v33.466c0,22.049-7.366,47.071-26.98,57.143h227.504  C350.137,104.978,342.771,79.956,342.771,57.907z"/>
<path style="fill:#006289;" d="M342.771,57.907V24.441c0-9.452-7.662-17.114-17.114-17.114h-25.968c5.037,0,9.12,4.083,9.12,9.12  v41.46c0,22.049,7.366,47.071,26.98,57.143h33.962C350.137,104.978,342.771,79.956,342.771,57.907z"/>
<path style="fill:#0072A2;" d="M342.771,454.093v33.466c0,9.452-7.662,17.114-17.114,17.114H186.341  c-9.452,0-17.114-7.662-17.114-17.114v-33.466c0-22.049-7.366-47.071-26.98-57.143h227.504  C350.137,407.022,342.771,432.044,342.771,454.093z"/>
<path style="fill:#006289;" d="M334.612,396.95c-19.614,10.072-26.98,35.094-26.98,57.143v43.124c0,4.118-3.338,7.456-7.456,7.456  h25.481c9.452,0,17.114-7.662,17.114-17.114v-33.466c0-22.049,7.366-47.071,26.98-57.143L334.612,396.95L334.612,396.95z"/>
<path style="fill:#FF4D4A;" d="M364.623,399.93H147.375c-19.499,0-35.306-15.807-35.306-35.306V147.376  c0-19.499,15.807-35.306,35.306-35.306h217.247c19.499,0,35.306,15.807,35.306,35.306v217.247  C399.929,384.123,384.122,399.93,364.623,399.93z"/>
<path style="fill:#E13F33;" d="M364.623,112.07h-34.239c11.971,0,22.539,5.985,28.889,15.124c1.095,1.575-0.068,3.737-1.986,3.737  H147.375c-9.083,0-16.446,7.363-16.446,16.446v217.247c0,9.083,7.363,16.446,16.446,16.446h209.911c1.918,0,3.081,2.161,1.986,3.737  c-6.35,9.138-16.918,15.124-28.889,15.124h34.239c19.499,0,35.306-15.807,35.306-35.306V147.376  C399.929,127.877,384.122,112.07,364.623,112.07z"/>
<path style="fill:#F8F5EE;" d="M147.376,376.33c-6.455,0-11.707-5.252-11.706-11.706V147.377c0-6.455,5.252-11.706,11.706-11.706  h217.247c6.455,0,11.706,5.252,11.706,11.706v217.247c0,6.455-5.251,11.706-11.706,11.706H147.376z"/>
<path style="fill:#E4E4E4;" d="M364.623,135.67h-28.834c6.455,0,11.706,5.252,11.706,11.706v217.247  c0,6.455-5.251,11.706-11.706,11.706h28.834c6.455,0,11.706-5.252,11.706-11.706V147.377  C376.329,140.922,371.078,135.67,364.623,135.67z"/>
<path style="fill:#A0D860;" d="M257.189,171.905c-0.682-0.594-1.698-0.594-2.38,0l-87.913,76.51c-1.264,1.1-0.486,3.18,1.19,3.18  h25.206v87.801c0,1.001,0.812,1.813,1.813,1.813h41.914v-70.646c0-1.79,1.451-3.242,3.242-3.242h31.48  c1.79,0,3.242,1.451,3.242,3.242v70.646h41.914c1.001,0,1.813-0.811,1.813-1.813v-87.801h25.206c1.676,0,2.454-2.08,1.19-3.18  L257.189,171.905z"/>
<path style="fill:#61C979;" d="M345.102,248.415l-87.913-76.51c-0.682-0.594-1.698-0.594-2.38,0l-11.58,10.078l76.333,66.432  c1.264,1.1,0.486,3.18-1.19,3.18h-25.206v87.801c0,1.001-0.812,1.813-1.813,1.813h25.54c1.001,0,1.813-0.812,1.813-1.813v-87.801  h25.206C345.588,251.595,346.367,249.515,345.102,248.415z"/>
<g>
	<path style="fill:#1A1A1A;" d="M399.929,266.014c-4.047,0-7.327,3.281-7.327,7.327v91.283c0,15.352-12.431,27.852-27.755,27.973   c-0.098,0-0.194,0.002-0.304,0.006H147.455c-0.101-0.003-0.2-0.004-0.304-0.006c-15.324-0.122-27.754-12.621-27.754-27.973V273.26   c0-4.047-3.281-7.327-7.327-7.327s-7.327,3.281-7.327,7.327v91.363c0,22.531,17.572,41.024,39.729,42.523   c10.948,8.984,17.428,26.32,17.428,46.946v33.466c0,13.477,10.964,24.441,24.441,24.441h139.317   c13.477,0,24.441-10.964,24.441-24.441v-33.466c0-20.626,6.481-37.962,17.429-46.946c22.157-1.5,39.729-19.993,39.729-42.523   V273.34C407.256,269.294,403.975,266.014,399.929,266.014z M335.444,454.093v33.466c0,5.397-4.39,9.787-9.787,9.787H186.341   c-5.397,0-9.787-4.39-9.787-9.787v-33.466c0-18.294-4.538-34.721-12.59-46.836h184.07   C339.982,419.372,335.444,435.799,335.444,454.093z"/>
	<path style="fill:#1A1A1A;" d="M367.563,104.856c-10.963-8.978-17.465-26.306-17.465-46.949V24.441   C350.098,10.964,339.134,0,325.657,0H186.341C172.864,0,161.9,10.964,161.9,24.441v33.466c0,20.627-6.481,37.962-17.428,46.946   c-22.157,1.499-39.729,19.993-39.729,42.523v91.201c0,4.047,3.281,7.327,7.327,7.327s7.327-3.281,7.327-7.327v-91.201   c0-15.352,12.431-27.852,27.755-27.973c0.098,0,0.195-0.002,0.304-0.006h217.088c0.101,0.003,0.201,0.005,0.304,0.006   c15.324,0.122,27.754,12.621,27.754,27.973v90.917c0,4.047,3.281,7.327,7.327,7.327c4.047,0,7.327-3.281,7.327-7.327v-90.917   C407.256,124.858,389.703,106.373,367.563,104.856z M163.964,104.743c8.052-12.115,12.59-28.542,12.59-46.836V24.441   c0-5.397,4.39-9.787,9.787-9.787h139.317c5.397,0,9.787,4.39,9.787,9.787v33.466c0,18.294,4.538,34.721,12.59,46.836H163.964z"/>
	<path style="fill:#1A1A1A;" d="M262,166.379c-1.664-1.448-3.795-2.246-6.001-2.246s-4.337,0.798-6,2.245l-87.915,76.511   c-2.904,2.528-3.908,6.492-2.558,10.098c1.35,3.606,4.71,5.936,8.56,5.936h17.878v80.474c0,5.039,4.1,9.139,9.14,9.139h41.914   c4.047,0,7.327-3.281,7.327-7.327v-66.56h23.309v66.56c0,4.047,3.28,7.327,7.327,7.327h41.914c5.04,0,9.14-4.1,9.14-9.139v-80.474   h17.879c3.85,0,7.21-2.33,8.56-5.936c1.35-3.606,0.345-7.569-2.559-10.099L262,166.379z M318.707,244.268   c-4.047,0-7.327,3.281-7.327,7.327v82.287h-29.072v-63.319c0-2.823-1.099-5.477-3.095-7.473s-4.65-3.095-7.471-3.095   c-0.001,0-0.002,0-0.003,0h-31.481c-5.827,0-10.568,4.741-10.568,10.569v63.319h-29.071v-82.287c0-4.047-3.281-7.327-7.327-7.327   h-10.469l73.176-63.686l73.177,63.685L318.707,244.268L318.707,244.268z"/>
	<path style="fill:#1A1A1A;" d="M364.623,383.657c5.079,0,9.857-1.981,13.455-5.578c3.598-3.598,5.579-8.376,5.578-13.455V147.377   c0-5.079-1.981-9.858-5.578-13.456c-3.597-3.597-8.376-5.578-13.455-5.578H147.375c-5.079,0-9.857,1.981-13.455,5.579   c-3.597,3.598-5.578,8.376-5.578,13.455v217.246c0,5.079,1.981,9.858,5.578,13.456c3.598,3.598,8.376,5.579,13.455,5.578   L364.623,383.657L364.623,383.657z M144.283,367.716c-0.83-0.83-1.286-1.928-1.286-3.093V147.376c0-1.164,0.457-2.263,1.286-3.092   c0.83-0.83,1.928-1.287,3.093-1.287h217.247c1.165,0,2.263,0.457,3.093,1.287c0.83,0.829,1.286,1.928,1.286,3.093v217.247   c0,1.164-0.457,2.263-1.286,3.092c-0.83,0.83-1.928,1.287-3.093,1.287H147.375C146.21,369.003,145.112,368.546,144.283,367.716z"/>
</g>
<g>
</g>
<g>
</g>
<g>
</g>
<g>
</g>
<g>
</g>
<g>
</g>
<g>
</g>
<g>
</g>
<g>
</g>
<g>
</g>
<g>
</g>
<g>
</g>
<g>
</g>
<g>
</g>
<g>
</g>
</svg>
