<?xml version="1.0" encoding="iso-8859-1"?>
<!-- Generator: Adobe Illustrator 19.0.0, SVG Export Plug-In . SVG Version: 6.00 Build 0)  -->
<svg xmlns="http://www.w3.org/2000/svg" xmlns:xlink="http://www.w3.org/1999/xlink" version="1.1" id="Capa_1" x="0px" y="0px" viewBox="0 0 512 512" style="enable-background:new 0 0 512 512;" xml:space="preserve">
<path style="fill:#0072A2;" d="M253.455,20.086l-105.238,91.588V75.367H83.731v92.429L8.66,233.129  c-2.761,2.403-1.062,6.945,2.599,6.945h56.485v241.674c0,6.132,4.971,11.103,11.103,11.103h354.304  c6.132,0,11.103-4.971,11.103-11.103V240.073h56.485c3.66,0,5.36-4.542,2.599-6.945L258.545,20.086  C257.086,18.816,254.914,18.816,253.455,20.086z"/>
<path style="fill:#006289;" d="M504.696,236.201c-0.116-0.884-0.531-1.751-1.323-2.441l-7.428-6.465  c-0.051-0.282-0.145-0.558-0.261-0.829L258.545,20.086c-1.459-1.27-3.631-1.27-5.09,0l-16.213,14.11l0.379,0.33l-0.65,0.566  l198.812,173.024c-0.127,0.842-0.806,1.592-1.821,1.592h-18.817c-1.023,0-1.852,0.829-1.852,1.852v239.822  c0,6.132-4.971,11.103-11.103,11.103H67.745v19.262c0,6.132,4.971,11.103,11.103,11.103h354.304c6.132,0,11.103-4.971,11.103-11.103  V240.073h56.485C503.1,240.073,504.636,238.186,504.696,236.201z"/>
<path style="fill:#A0D860;" d="M157.482,47.644H71.891c-2.272,0-4.114,1.842-4.114,4.113v21.44c0,2.272,1.842,4.114,4.114,4.114  h85.591c2.272,0,4.113-1.842,4.113-4.114v-21.44C161.596,49.485,159.754,47.644,157.482,47.644z"/>
<path style="fill:#F7F9F9;" d="M340.9,283.085H171.1c-4.677,0-8.469,3.792-8.469,8.469v118.947c0,4.677,3.792,8.469,8.469,8.469  h169.8c4.677,0,8.469-3.792,8.469-8.469V291.554C349.369,286.877,345.577,283.085,340.9,283.085z M266.836,346.491v33.085  c0,5.985-4.852,10.836-10.836,10.836c-5.984,0-10.836-4.852-10.836-10.836v-33.085c-5.378-3.71-8.764-10.103-8.215-17.248  c0.722-9.393,8.407-16.966,17.809-17.56c11.117-0.703,20.352,8.105,20.352,19.07C275.109,337.282,271.833,343.044,266.836,346.491z"/>
<g>
	<path style="fill:#FFDE3E;" d="M340.9,283.085H171.1c-4.677,0-8.469,3.792-8.469,8.469v118.947c0,4.677,3.792,8.469,8.469,8.469   h169.8c4.677,0,8.469-3.792,8.469-8.469V291.554C349.369,286.877,345.577,283.085,340.9,283.085z M265.808,346.922v29.944   c0,5.417-4.391,9.808-9.808,9.808c-5.417,0-9.808-4.391-9.808-9.808v-29.944c-4.868-3.358-7.932-9.144-7.435-15.61   c0.653-8.501,7.609-15.355,16.118-15.893c10.061-0.636,18.419,7.336,18.419,17.259C273.295,338.587,270.33,343.802,265.808,346.922   z"/>
	<path style="fill:#FFDE3E;" d="M197.514,283.085v-43.487c0-32.249,26.236-58.486,58.486-58.486s58.486,26.237,58.486,58.486v43.487   h19.11v-43.487c0-42.786-34.809-77.596-77.596-77.596s-77.596,34.809-77.596,77.596v43.487H197.514z"/>
</g>
<path style="fill:#61C979;" d="M157.482,47.644h-26.757v29.667h26.757c2.272,0,4.114-1.842,4.114-4.114v-21.44  C161.596,49.485,159.754,47.644,157.482,47.644z"/>
<g>
	<path style="fill:#1A1A1A;" d="M60.458,325.293c0,4.024,3.262,7.286,7.286,7.286c4.025,0,7.286-3.262,7.286-7.286v-85.22   c0-4.024-3.262-7.286-7.286-7.286H20.152l68.363-59.495c1.59-1.384,2.503-3.388,2.503-5.497V84.597h49.913v27.076   c0,2.855,1.668,5.448,4.267,6.631c2.599,1.184,5.649,0.74,7.803-1.135L256,27.53l92.471,80.478   c3.037,2.643,7.639,2.323,10.28-0.713c2.642-3.036,2.323-7.638-0.713-10.28L263.329,14.59c-4.178-3.636-10.48-3.636-14.658,0   l-93.168,81.083V84.597h1.979c6.286,0,11.4-5.114,11.4-11.4v-21.44c0-6.286-5.114-11.4-11.4-11.4h-85.59   c-6.286,0-11.4,5.114-11.4,11.4v21.44c0,6.286,5.114,11.4,11.4,11.4h4.553v79.88L3.878,227.632   c-3.574,3.109-4.811,7.986-3.151,12.423s5.794,7.304,10.532,7.304h49.199V325.293z M75.064,70.025V54.93h79.246v15.095h-6.093   H83.731H75.064z"/>
	<path style="fill:#1A1A1A;" d="M508.123,227.632l-123.92-107.847c-3.035-2.641-7.637-2.322-10.28,0.713   c-2.642,3.036-2.323,7.638,0.712,10.28l117.212,102.009h-47.593c-4.025,0-7.286,3.262-7.286,7.286v241.674   c0,2.105-1.712,3.817-3.817,3.817H78.848c-2.104,0-3.817-1.712-3.817-3.817V359.944c0-4.024-3.262-7.286-7.286-7.286   c-4.025,0-7.286,3.262-7.286,7.286v121.803c0,10.14,8.249,18.389,18.389,18.389h354.304c10.14,0,18.389-8.249,18.389-18.389V247.36   h49.199c4.738,0,8.872-2.867,10.532-7.304C512.933,235.618,511.696,230.741,508.123,227.632z"/>
	<path style="fill:#1A1A1A;" d="M254.416,308.147c-12.136,0.767-21.991,10.486-22.923,22.606c-0.565,7.346,2.222,14.534,7.413,19.58   v26.532c0,9.426,7.668,17.094,17.094,17.094s17.094-7.668,17.094-17.094v-26.526c4.745-4.594,7.487-10.95,7.487-17.661   C280.58,318.6,268.682,307.239,254.416,308.147z M261.67,340.924c-1.971,1.36-3.149,3.602-3.149,5.997v29.943   c0,1.39-1.131,2.521-2.521,2.521c-1.39,0-2.521-1.131-2.521-2.521v-29.943c0-2.395-1.177-4.637-3.149-5.998   c-2.975-2.052-4.586-5.437-4.308-9.053c0.373-4.841,4.463-8.873,9.314-9.18c0.223-0.014,0.444-0.021,0.664-0.021   c5.519,0,10.008,4.49,10.008,10.009C266.008,335.967,264.386,339.05,261.67,340.924z"/>
	<path style="fill:#1A1A1A;" d="M256,154.716c-46.804,0-84.882,38.078-84.882,84.882v36.201H171.1   c-8.688,0-15.755,7.068-15.755,15.755v118.947c0,8.688,7.067,15.755,15.755,15.755h169.8c8.688,0,15.755-7.068,15.755-15.755   V291.554c0-8.688-7.067-15.755-15.755-15.755h-0.018v-36.201C340.882,192.794,302.804,154.716,256,154.716z M185.691,239.598   c0-38.769,31.541-70.309,70.309-70.309s70.309,31.54,70.309,70.309v36.201h-4.537v-36.201c0-36.267-29.506-65.773-65.773-65.773   s-65.773,29.505-65.773,65.773v36.201h-4.537v-36.201H185.691z M307.2,239.598v36.201H204.8v-36.201   c0-28.232,22.968-51.2,51.2-51.2S307.2,211.366,307.2,239.598z M340.9,290.372c0.652,0,1.182,0.53,1.182,1.183v118.947   c0,0.652-0.53,1.183-1.182,1.183H171.1c-0.652,0-1.182-0.53-1.182-1.183V291.554c0-0.652,0.53-1.183,1.182-1.183h7.304h19.11   h116.972h19.11h7.304V290.372z"/>
</g>
<g>
</g>
<g>
</g>
<g>
</g>
<g>
</g>
<g>
</g>
<g>
</g>
<g>
</g>
<g>
</g>
<g>
</g>
<g>
</g>
<g>
</g>
<g>
</g>
<g>
</g>
<g>
</g>
<g>
</g>
</svg>
