<?xml version="1.0" encoding="iso-8859-1"?>
<!-- Generator: Adobe Illustrator 19.0.0, SVG Export Plug-In . SVG Version: 6.00 Build 0)  -->
<svg xmlns="http://www.w3.org/2000/svg" xmlns:xlink="http://www.w3.org/1999/xlink" version="1.1" id="Capa_1" x="0px" y="0px" viewBox="0 0 512 512" style="enable-background:new 0 0 512 512;" xml:space="preserve">
<path style="fill:#0072A2;" d="M253.455,20.086l-105.238,91.588V75.367H83.731v92.429L8.66,233.129  c-2.761,2.403-1.062,6.945,2.599,6.945h56.485v241.674c0,6.132,4.971,11.103,11.103,11.103h354.304  c6.132,0,11.103-4.971,11.103-11.103V240.073h56.485c3.66,0,5.36-4.542,2.599-6.945L258.545,20.086  C257.086,18.816,254.914,18.816,253.455,20.086z"/>
<path style="fill:#006289;" d="M504.696,236.201c-0.116-0.884-0.531-1.751-1.323-2.441l-7.428-6.465  c-0.051-0.282-0.145-0.558-0.261-0.829L258.545,20.086c-1.459-1.27-3.631-1.27-5.09,0l-16.213,14.11l0.379,0.33l-0.65,0.566  l198.812,173.024c-0.127,0.842-0.806,1.592-1.821,1.592h-18.817c-1.023,0-1.852,0.829-1.852,1.852v239.822  c0,6.132-4.971,11.103-11.103,11.103H67.745v19.262c0,6.132,4.971,11.103,11.103,11.103h354.304c6.132,0,11.103-4.971,11.103-11.103  V240.073h56.485C503.1,240.073,504.636,238.186,504.696,236.201z"/>
<path style="fill:#A0D860;" d="M157.482,47.644H71.891c-2.272,0-4.114,1.842-4.114,4.113v21.44c0,2.272,1.842,4.114,4.114,4.114  h85.591c2.272,0,4.113-1.842,4.113-4.114v-21.44C161.596,49.485,159.754,47.644,157.482,47.644z"/>
<path style="fill:#FFDE3E;" d="M301.008,164.293L153.565,311.736c-0.947,0.947-0.266,2.565,1.073,2.549l91.011-1.04  c1.179-0.013,1.908,1.281,1.285,2.282l-75.194,120.87c-0.938,1.508,1.069,3.1,2.324,1.845l153.319-153.319  c0.939-0.939,0.277-2.545-1.051-2.549l-92.121-0.337c-1.168-0.004-1.879-1.287-1.264-2.28l70.385-113.62  C304.268,164.628,302.262,163.039,301.008,164.293z"/>
<path style="fill:#61C979;" d="M157.482,47.644h-26.757v29.667h26.757c2.272,0,4.114-1.842,4.114-4.114v-21.44  C161.596,49.485,159.754,47.644,157.482,47.644z"/>
<g>
	<path style="fill:#1A1A1A;" d="M60.458,325.293c0,4.024,3.262,7.286,7.286,7.286c4.025,0,7.286-3.262,7.286-7.286v-85.22   c0-4.024-3.262-7.286-7.286-7.286H20.152l68.363-59.495c1.59-1.384,2.503-3.388,2.503-5.497V84.597h49.913v27.076   c0,2.855,1.668,5.448,4.267,6.631c2.6,1.184,5.649,0.74,7.803-1.135L256,27.53l92.471,80.478c3.037,2.643,7.639,2.323,10.28-0.713   c2.642-3.036,2.323-7.638-0.713-10.28L263.329,14.59c-4.178-3.636-10.48-3.636-14.658,0l-93.168,81.083V84.597h1.979   c6.286,0,11.4-5.114,11.4-11.4v-21.44c0-6.286-5.114-11.4-11.4-11.4h-85.59c-6.286,0-11.4,5.114-11.4,11.4v21.44   c0,6.286,5.114,11.4,11.4,11.4h4.553v79.88L3.878,227.632c-3.574,3.109-4.811,7.986-3.151,12.423s5.794,7.304,10.532,7.304h49.199   V325.293z M75.064,70.025V54.93h79.246v15.095h-6.093H83.731H75.064z"/>
	<path style="fill:#1A1A1A;" d="M508.123,227.632l-123.92-107.847c-3.036-2.641-7.638-2.322-10.28,0.713   c-2.642,3.036-2.323,7.638,0.712,10.28l117.212,102.009h-47.593c-4.025,0-7.286,3.262-7.286,7.286v241.674   c0,2.105-1.712,3.817-3.817,3.817H78.848c-2.104,0-3.817-1.712-3.817-3.817V359.944c0-4.024-3.262-7.286-7.286-7.286   c-4.025,0-7.286,3.262-7.286,7.286v121.803c0,10.14,8.249,18.389,18.389,18.389h354.304c10.14,0,18.389-8.249,18.389-18.389V247.36   h49.199c4.738,0,8.872-2.867,10.532-7.304C512.933,235.618,511.696,230.741,508.123,227.632z"/>
	<path style="fill:#1A1A1A;" d="M165.311,441.425c1.562,2.81,4.518,4.556,7.715,4.556c2.323,0,4.523-0.919,6.191-2.588   l153.321-153.321c2.514-2.515,3.263-6.265,1.907-9.553s-4.529-5.421-8.085-5.433l-81.763-0.299l64.931-104.816   c1.679-2.711,1.767-6.109,0.23-8.869c-1.563-2.806-4.517-4.549-7.71-4.549c-2.325,0-4.525,0.92-6.191,2.588L148.412,306.584   c-2.52,2.52-3.267,6.275-1.903,9.568c1.375,3.318,4.614,5.496,8.212,5.419l80.444-0.92l-69.613,111.898   C163.868,435.26,163.775,438.661,165.311,441.425z M253.123,319.373c1.681-2.706,1.765-6.116,0.217-8.901s-4.489-4.514-7.673-4.514   c-0.028,0-0.074,0-0.102,0l-76.797,0.878l102.051-102.05l-44.065,71.133c-1.673,2.7-1.754,6.103-0.214,8.88   c1.541,2.778,4.47,4.51,7.647,4.522l78.207,0.286L204.549,397.453L253.123,319.373z"/>
</g>
<g>
</g>
<g>
</g>
<g>
</g>
<g>
</g>
<g>
</g>
<g>
</g>
<g>
</g>
<g>
</g>
<g>
</g>
<g>
</g>
<g>
</g>
<g>
</g>
<g>
</g>
<g>
</g>
<g>
</g>
</svg>
