<?xml version="1.0" encoding="iso-8859-1"?>
<!-- Generator: Adobe Illustrator 19.0.0, SVG Export Plug-In . SVG Version: 6.00 Build 0)  -->
<svg xmlns="http://www.w3.org/2000/svg" xmlns:xlink="http://www.w3.org/1999/xlink" version="1.1" id="Capa_1" x="0px" y="0px" viewBox="0 0 511.999 511.999" style="enable-background:new 0 0 511.999 511.999;" xml:space="preserve">
<path style="fill:#0072A2;" d="M253.455,20.086l-105.238,91.588V75.367H83.731v92.429L8.66,233.129  c-2.761,2.403-1.062,6.945,2.599,6.945h56.485v241.674c0,6.132,4.971,11.103,11.103,11.103h354.304  c6.132,0,11.103-4.971,11.103-11.103V240.073h56.485c3.66,0,5.36-4.542,2.599-6.945L258.545,20.086  C257.086,18.816,254.914,18.816,253.455,20.086z"/>
<path style="fill:#006289;" d="M504.696,236.201c-0.116-0.884-0.531-1.751-1.323-2.441l-7.428-6.465  c-0.051-0.282-0.145-0.558-0.261-0.829L258.545,20.086c-1.459-1.27-3.631-1.27-5.09,0l-16.213,14.11l0.379,0.33l-0.65,0.566  l198.812,173.024c-0.127,0.842-0.806,1.592-1.821,1.592h-18.817c-1.023,0-1.852,0.829-1.852,1.852v239.822  c0,6.132-4.971,11.103-11.103,11.103H67.745v19.262c0,6.132,4.971,11.103,11.103,11.103h354.304c6.132,0,11.103-4.971,11.103-11.103  V240.073h56.485C503.1,240.073,504.636,238.186,504.696,236.201z"/>
<path style="fill:#A0D860;" d="M157.482,47.644H71.891c-2.272,0-4.113,1.842-4.113,4.114v21.44c0,2.272,1.842,4.113,4.113,4.113  h85.591c2.272,0,4.114-1.842,4.114-4.113v-21.44C161.596,49.486,159.754,47.644,157.482,47.644z"/>
<path style="fill:#FFDE3E;" d="M340.743,190.356l-154.455,29.448c-2.263,0.431-3.9,2.41-3.9,4.714v173.948  c-3.423-0.732-7.067-1.13-10.85-1.13c-19.82,0-35.886,10.847-35.886,24.226s16.067,24.226,35.886,24.226  c19.82,0,35.886-10.846,35.886-24.226c0-0.925-0.084-1.836-0.234-2.734V265.97c0-2.301,1.633-4.277,3.892-4.712l104.849-20.19  c2.96-0.57,5.706,1.698,5.706,4.712v98.967c-3.492-0.765-7.214-1.183-11.084-1.183c-19.82,0-35.886,10.847-35.886,24.226  c0,13.38,16.067,24.226,35.886,24.226c19.82,0,35.886-10.847,35.886-24.226c0-1.128,0-3.323,0-3.323V195.07  C346.441,192.059,343.7,189.792,340.743,190.356z"/>
<path style="fill:#61C979;" d="M157.482,47.644h-26.757v29.667h26.757c2.272,0,4.114-1.842,4.114-4.114v-21.44  C161.596,49.486,159.754,47.644,157.482,47.644z"/>
<g>
	<path style="fill:#1A1A1A;" d="M60.458,325.293c0,4.024,3.262,7.286,7.286,7.286s7.286-3.262,7.286-7.286v-85.22   c0-4.024-3.262-7.286-7.286-7.286H20.152l68.363-59.495c1.59-1.384,2.503-3.388,2.503-5.497V84.598h49.913v27.076   c0,2.855,1.668,5.448,4.266,6.631c2.599,1.184,5.649,0.74,7.803-1.135l103-89.639l92.471,80.477   c3.037,2.643,7.639,2.323,10.28-0.713c2.642-3.036,2.323-7.638-0.712-10.28l-94.71-82.425c-4.177-3.635-10.479-3.637-14.658,0   l-93.168,81.083V84.598h1.979c6.286,0,11.4-5.114,11.4-11.4v-21.44c0-6.286-5.114-11.4-11.4-11.4H71.891   c-6.286,0-11.4,5.114-11.4,11.4v21.44c0,6.286,5.114,11.4,11.4,11.4h4.553v79.88L3.876,227.633   c-3.573,3.11-4.809,7.987-3.148,12.424c1.66,4.437,5.794,7.303,10.532,7.303h49.199L60.458,325.293L60.458,325.293z M75.064,70.025   V54.93h79.245v15.095h-6.092H83.731H75.064z"/>
	<path style="fill:#1A1A1A;" d="M508.123,227.632l-123.92-107.847c-3.035-2.641-7.638-2.322-10.28,0.713   c-2.642,3.036-2.323,7.638,0.713,10.28l117.212,102.009h-47.593c-4.025,0-7.286,3.262-7.286,7.286v241.674   c0,2.105-1.712,3.817-3.817,3.817H78.848c-2.105,0-3.817-1.712-3.817-3.817V359.944c0-4.024-3.262-7.286-7.286-7.286   s-7.286,3.262-7.286,7.286v121.803c0,10.14,8.249,18.389,18.389,18.389h354.304c10.14,0,18.389-8.249,18.389-18.389V247.36h49.199   c4.738,0,8.872-2.867,10.532-7.304C512.932,235.619,511.696,230.742,508.123,227.632z"/>
	<path style="fill:#1A1A1A;" d="M310.555,336.276c-24.209,0-43.174,13.842-43.174,31.513c0,17.67,18.964,31.513,43.174,31.513   s43.173-13.842,43.173-31.513V195.07c0-6.664-5.417-12.087-12.076-12.087c-0.759,0-1.524,0.073-2.273,0.215l-154.454,29.447   c-5.692,1.084-9.823,6.077-9.823,11.872v165.636c-1.183-0.069-2.371-0.104-3.563-0.104c-24.209,0-43.173,13.842-43.173,31.513   s18.964,31.513,43.173,31.513s43.173-13.842,43.173-31.513c0-1.074-0.079-2.176-0.234-3.285V268.024l99.874-19.232v87.604   C313.092,336.316,311.825,336.276,310.555,336.276z M316.85,233.693c-0.768,0-1.54,0.074-2.296,0.22l-104.849,20.19   c-5.678,1.093-9.8,6.084-9.8,11.867v152.857c0,0.401,0.033,0.801,0.099,1.196c0.091,0.546,0.135,1.049,0.135,1.538   c0,9.024-13.364,16.94-28.6,16.94s-28.6-7.916-28.6-16.94c0-9.024,13.364-16.94,28.6-16.94c3.184,0,6.321,0.326,9.326,0.969   c2.149,0.46,4.395-0.076,6.106-1.46c1.711-1.383,2.705-3.465,2.705-5.665V226.576l149.48-28.499V367.79   c0,9.024-13.364,16.94-28.6,16.94s-28.601-7.916-28.601-16.94c0-9.024,13.365-16.94,28.601-16.94c3.248,0,6.451,0.342,9.523,1.015   c2.154,0.473,4.408-0.057,6.127-1.441c1.719-1.383,2.719-3.47,2.719-5.677V245.78C328.924,239.115,323.507,233.693,316.85,233.693z   "/>
</g>
<g>
</g>
<g>
</g>
<g>
</g>
<g>
</g>
<g>
</g>
<g>
</g>
<g>
</g>
<g>
</g>
<g>
</g>
<g>
</g>
<g>
</g>
<g>
</g>
<g>
</g>
<g>
</g>
<g>
</g>
</svg>
