<?xml version="1.0" encoding="iso-8859-1"?>
<!-- Generator: Adobe Illustrator 19.0.0, SVG Export Plug-In . SVG Version: 6.00 Build 0)  -->
<svg xmlns="http://www.w3.org/2000/svg" xmlns:xlink="http://www.w3.org/1999/xlink" version="1.1" id="Capa_1" x="0px" y="0px" viewBox="0 0 512 512" style="enable-background:new 0 0 512 512;" xml:space="preserve">
<path style="fill:#0072A2;" d="M253.455,20.086l-105.238,91.588V75.367H83.731v92.429L8.66,233.129  c-2.761,2.403-1.062,6.945,2.599,6.945h56.485v241.674c0,6.132,4.971,11.103,11.103,11.103h354.304  c6.132,0,11.103-4.971,11.103-11.103V240.073h56.485c3.66,0,5.36-4.541,2.599-6.945L258.545,20.086  C257.086,18.816,254.914,18.816,253.455,20.086z"/>
<path style="fill:#006289;" d="M504.696,236.201c-0.116-0.884-0.531-1.751-1.323-2.441l-7.428-6.465  c-0.051-0.282-0.145-0.558-0.261-0.829L258.545,20.086c-1.459-1.27-3.631-1.27-5.09,0l-16.213,14.11l0.379,0.33l-0.65,0.566  l198.812,173.024c-0.127,0.842-0.806,1.592-1.821,1.592h-18.817c-1.023,0-1.853,0.829-1.853,1.852v239.822  c0,6.132-4.971,11.103-11.103,11.103H67.745v19.262c0,6.132,4.971,11.103,11.103,11.103h354.304c6.132,0,11.103-4.971,11.103-11.103  V240.073h56.485C503.1,240.073,504.636,238.186,504.696,236.201z"/>
<path style="fill:#A0D860;" d="M157.482,47.644H71.891c-2.272,0-4.114,1.842-4.114,4.113v21.44c0,2.272,1.842,4.114,4.114,4.114  h85.591c2.272,0,4.113-1.842,4.113-4.114v-21.44C161.596,49.486,159.754,47.644,157.482,47.644z"/>
<g>
	<path style="fill:#FFDE3E;" d="M334.933,328.728c-3.846,0-7.693-1.467-10.628-4.402c-18.245-18.245-42.503-28.293-68.306-28.293   c-25.802,0-50.061,10.048-68.306,28.293c-5.869,5.869-15.386,5.869-21.255,0s-5.869-15.386,0-21.255   c23.923-23.923,55.729-37.097,89.561-37.097s65.639,13.175,89.561,37.097c5.869,5.869,5.869,15.386,0,21.255   C342.626,327.261,338.78,328.728,334.933,328.728z"/>
	<path style="fill:#FFDE3E;" d="M371.895,284.464c-3.846,0-7.693-1.467-10.628-4.402c-28.118-28.118-65.502-43.603-105.267-43.603   s-77.149,15.485-105.267,43.603c-5.869,5.869-15.386,5.869-21.255,0s-5.869-15.386,0-21.255   C163.273,225.012,208.206,206.4,256,206.4c47.793,0,92.727,18.612,126.522,52.407c5.869,5.869,5.869,15.386,0,21.255   C379.587,282.997,375.741,284.464,371.895,284.464z"/>
	<path style="fill:#FFDE3E;" d="M299.923,372.867c-3.846,0-7.693-1.467-10.628-4.402c-18.358-18.358-48.231-18.359-66.591,0   c-5.869,5.869-15.386,5.869-21.255,0s-5.869-15.386,0-21.255c30.08-30.079,79.022-30.079,109.101,0   c5.869,5.869,5.869,15.386,0,21.255C307.616,371.4,303.769,372.867,299.923,372.867z"/>
	<circle style="fill:#FFDE3E;" cx="256" cy="405.58" r="21.21"/>
</g>
<path style="fill:#61C979;" d="M157.482,47.644h-26.757v29.667h26.757c2.272,0,4.114-1.842,4.114-4.114v-21.44  C161.596,49.486,159.754,47.644,157.482,47.644z"/>
<g>
	<path style="fill:#1A1A1A;" d="M60.458,325.293c0,4.024,3.262,7.286,7.286,7.286s7.286-3.262,7.286-7.286v-85.22   c0-4.024-3.262-7.286-7.286-7.286H20.152l68.363-59.495c1.59-1.384,2.503-3.388,2.503-5.497V84.597h49.913v27.076   c0,2.855,1.668,5.448,4.266,6.631c2.599,1.184,5.649,0.74,7.803-1.135l103-89.638l92.471,80.477   c3.037,2.642,7.638,2.323,10.28-0.713c2.642-3.035,2.323-7.638-0.713-10.28l-94.71-82.425c-4.178-3.636-10.479-3.636-14.657,0   l-93.168,81.083V84.597h1.979c6.286,0,11.4-5.114,11.4-11.4v-21.44c0-6.286-5.114-11.4-11.4-11.4H71.891   c-6.286,0-11.4,5.114-11.4,11.4v21.44c0,6.286,5.114,11.4,11.4,11.4h4.553v79.88L3.876,227.632   c-3.573,3.11-4.809,7.987-3.148,12.424c1.66,4.437,5.794,7.303,10.532,7.303h49.199L60.458,325.293L60.458,325.293z M75.064,70.025   V54.93h79.245v15.095h-6.092H83.731H75.064z"/>
	<path style="fill:#1A1A1A;" d="M508.123,227.632l-123.92-107.847c-3.036-2.642-7.638-2.321-10.28,0.713   c-2.642,3.035-2.323,7.638,0.713,10.28l117.213,102.009h-47.593c-4.024,0-7.286,3.262-7.286,7.286v241.674   c0,2.105-1.712,3.817-3.817,3.817H78.848c-2.105,0-3.817-1.712-3.817-3.817V359.944c0-4.024-3.262-7.286-7.286-7.286   s-7.286,3.262-7.286,7.286v121.803c0,10.14,8.249,18.389,18.389,18.389h354.304c10.14,0,18.389-8.249,18.389-18.389V247.36h49.199   c4.738,0,8.872-2.867,10.532-7.304C512.932,235.619,511.697,230.742,508.123,227.632z"/>
	<path style="fill:#1A1A1A;" d="M350.713,329.478c8.701-8.701,8.701-22.859,0-31.559c-25.298-25.299-58.934-39.231-94.713-39.231   s-69.415,13.933-94.713,39.231c-8.701,8.701-8.701,22.859,0,31.559c4.215,4.215,9.819,6.536,15.779,6.536s11.565-2.321,15.78-6.536   c16.869-16.869,39.297-26.159,63.154-26.159c23.856,0,46.285,9.29,63.154,26.158c4.214,4.215,9.819,6.537,15.78,6.537   S346.499,333.693,350.713,329.478z M256,288.747c-27.749,0-53.837,10.806-73.458,30.427c-1.462,1.463-3.407,2.268-5.476,2.268   c-2.068,0-4.013-0.805-5.475-2.268c-1.462-1.462-2.268-3.407-2.268-5.475c0-2.069,0.805-4.013,2.268-5.476   c22.546-22.546,52.523-34.963,84.409-34.963s61.863,12.417,84.409,34.963c1.462,1.462,2.268,3.407,2.268,5.476   c0,2.068-0.805,4.013-2.268,5.476c-1.462,1.462-3.406,2.267-5.475,2.267s-4.013-0.805-5.475-2.268   C309.837,299.552,283.749,288.747,256,288.747z"/>
	<path style="fill:#1A1A1A;" d="M387.674,285.214c8.701-8.701,8.701-22.859,0-31.559C352.503,218.484,305.74,199.114,256,199.114   s-96.503,19.37-131.674,54.541c-8.701,8.701-8.701,22.859,0,31.559c4.215,4.215,9.819,6.536,15.779,6.536   c5.961,0,11.565-2.322,15.78-6.536c26.742-26.741,62.296-41.469,100.115-41.469s73.373,14.727,100.115,41.469   c4.215,4.215,9.819,6.536,15.78,6.536C377.856,291.751,383.46,289.429,387.674,285.214z M256,229.173   c-41.711,0-80.925,16.243-110.419,45.737c-1.462,1.462-3.407,2.268-5.476,2.268c-2.068,0-4.013-0.805-5.475-2.268   c-3.019-3.019-3.019-7.931,0-10.951c32.419-32.419,75.522-50.273,121.37-50.273s88.951,17.854,121.37,50.273   c3.019,3.019,3.019,7.932,0,10.951c-1.462,1.462-3.406,2.267-5.475,2.267s-4.013-0.805-5.476-2.268   C336.925,245.416,297.711,229.173,256,229.173z"/>
	<path style="fill:#1A1A1A;" d="M315.703,373.617c8.7-8.701,8.7-22.859,0-31.559c-15.924-15.924-37.127-24.693-59.703-24.693   s-43.779,8.77-59.703,24.693c-8.7,8.701-8.7,22.859,0,31.56c4.215,4.215,9.819,6.536,15.78,6.536s11.565-2.322,15.78-6.536   c7.503-7.503,17.498-11.635,28.143-11.635c10.645,0,20.64,4.132,28.143,11.635c4.215,4.215,9.819,6.536,15.78,6.536   C305.884,380.154,311.488,377.833,315.703,373.617z M256,347.41c-14.538,0-28.192,5.648-38.447,15.903   c-1.462,1.462-3.407,2.268-5.476,2.268c-2.068,0-4.013-0.805-5.475-2.268c-3.019-3.019-3.019-7.932,0-10.951   c13.172-13.171,30.716-20.425,49.399-20.425c18.684,0,36.227,7.254,49.398,20.425c3.019,3.019,3.019,7.932,0,10.951   c-1.462,1.462-3.407,2.268-5.476,2.268c-2.068,0-4.013-0.805-5.476-2.268C284.192,353.058,270.538,347.41,256,347.41z"/>
	<path style="fill:#1A1A1A;" d="M256,377.085c-15.714,0-28.498,12.784-28.498,28.498s12.784,28.498,28.498,28.498   s28.498-12.784,28.498-28.498S271.714,377.085,256,377.085z M256,419.508c-7.679,0-13.926-6.247-13.926-13.925   c0-7.679,6.247-13.926,13.926-13.926c7.679,0,13.926,6.247,13.926,13.926C269.926,413.261,263.679,419.508,256,419.508z"/>
</g>
<g>
</g>
<g>
</g>
<g>
</g>
<g>
</g>
<g>
</g>
<g>
</g>
<g>
</g>
<g>
</g>
<g>
</g>
<g>
</g>
<g>
</g>
<g>
</g>
<g>
</g>
<g>
</g>
<g>
</g>
</svg>
