<?xml version="1.0" encoding="iso-8859-1"?>
<!-- Generator: Adobe Illustrator 19.0.0, SVG Export Plug-In . SVG Version: 6.00 Build 0)  -->
<svg xmlns="http://www.w3.org/2000/svg" xmlns:xlink="http://www.w3.org/1999/xlink" version="1.1" id="Capa_1" x="0px" y="0px" viewBox="0 0 512 512" style="enable-background:new 0 0 512 512;" xml:space="preserve">
<path style="fill:#A0D860;" d="M157.482,47.644H71.891c-2.272,0-4.113,1.842-4.113,4.113v21.44c0,2.272,1.842,4.114,4.113,4.114  h85.591c2.272,0,4.113-1.842,4.113-4.114v-21.44C161.596,49.486,159.754,47.644,157.482,47.644z"/>
<path style="fill:#0072A2;" d="M253.455,20.086l-105.238,91.588V75.367H83.731v92.429L8.66,233.129  c-2.761,2.403-1.062,6.945,2.599,6.945h56.485v241.674c0,6.132,4.971,11.103,11.103,11.103h354.304  c6.132,0,11.103-4.971,11.103-11.103V240.073h56.485c3.66,0,5.36-4.541,2.599-6.945L258.545,20.086  C257.086,18.816,254.914,18.816,253.455,20.086z"/>
<path style="fill:#006289;" d="M504.696,236.201c-0.116-0.884-0.531-1.751-1.323-2.441l-7.428-6.465  c-0.051-0.282-0.145-0.558-0.261-0.829L258.545,20.086c-1.459-1.27-3.631-1.27-5.09,0l-16.213,14.11l0.379,0.33l-0.65,0.566  l198.812,173.024c-0.127,0.842-0.806,1.592-1.821,1.592h-18.817c-1.023,0-1.852,0.829-1.852,1.852v239.822  c0,6.132-4.971,11.103-11.103,11.103H67.745v19.262c0,6.132,4.971,11.103,11.103,11.103h354.304c6.132,0,11.103-4.971,11.103-11.103  V240.073h56.485C503.1,240.073,504.636,238.186,504.696,236.201z"/>
<g>
	<path style="fill:#F7F9F9;" d="M256,336.672c-8.858,0-16.039-7.181-16.039-16.039V186.428c0-8.858,7.181-16.039,16.039-16.039   s16.039,7.181,16.039,16.039v134.205C272.039,329.491,264.858,336.672,256,336.672z"/>
	<path style="fill:#F7F9F9;" d="M256,434.538c-64.174,0-116.382-52.209-116.382-116.382c0-20.255,5.289-40.208,15.295-57.702   c9.693-16.947,23.616-31.307,40.262-41.529c7.549-4.636,17.425-2.273,22.061,5.275c4.635,7.548,2.274,17.425-5.275,22.061   c-25.213,15.482-40.265,42.359-40.265,71.895c0,46.485,37.819,84.304,84.305,84.304c46.485,0,84.304-37.819,84.304-84.304   c0-29.536-15.053-56.413-40.265-71.895c-7.549-4.635-9.91-14.512-5.275-22.061c4.635-7.549,14.512-9.909,22.061-5.275   c16.646,10.222,30.569,24.583,40.262,41.529c10.007,17.493,15.295,37.446,15.295,57.702   C372.382,382.329,320.173,434.538,256,434.538z"/>
</g>
<g>
	<path style="fill:#FFDE3E;" d="M256,336.672c-8.858,0-16.039-7.181-16.039-16.039V186.428c0-8.858,7.181-16.039,16.039-16.039   s16.039,7.181,16.039,16.039v134.205C272.039,329.491,264.858,336.672,256,336.672z"/>
	<path style="fill:#FFDE3E;" d="M256,434.538c-64.174,0-116.382-52.209-116.382-116.382c0-20.255,5.289-40.208,15.295-57.702   c9.693-16.947,23.616-31.307,40.262-41.529c7.549-4.636,17.425-2.273,22.061,5.275c4.635,7.548,2.274,17.425-5.275,22.061   c-25.213,15.482-40.265,42.359-40.265,71.895c0,46.485,37.819,84.304,84.305,84.304c46.485,0,84.304-37.819,84.304-84.304   c0-29.536-15.053-56.413-40.265-71.895c-7.549-4.635-9.91-14.512-5.275-22.061c4.635-7.549,14.512-9.909,22.061-5.275   c16.646,10.222,30.569,24.583,40.262,41.529c10.007,17.493,15.295,37.446,15.295,57.702   C372.382,382.329,320.173,434.538,256,434.538z"/>
</g>
<path style="fill:#61C979;" d="M157.482,47.644h-26.757v29.667h26.757c2.272,0,4.114-1.842,4.114-4.114v-21.44  C161.596,49.486,159.754,47.644,157.482,47.644z"/>
<g>
	<path style="fill:#1A1A1A;" d="M279.325,320.633V186.427c0-12.861-10.464-23.325-23.325-23.325   c-12.862,0-23.325,10.464-23.325,23.325v134.206c0,12.861,10.464,23.325,23.325,23.325   C268.862,343.958,279.325,333.495,279.325,320.633z M247.247,320.633V186.427c0-4.826,3.926-8.752,8.753-8.752   c4.826,0,8.753,3.926,8.753,8.752v134.206c0,4.826-3.926,8.752-8.753,8.752C251.174,329.385,247.247,325.459,247.247,320.633z"/>
	<path style="fill:#1A1A1A;" d="M215.774,252.469c10.959-6.73,14.4-21.122,7.671-32.083c-4.277-6.964-11.713-11.121-19.892-11.121   c-4.299,0-8.514,1.194-12.19,3.451c-17.685,10.86-32.475,26.117-42.774,44.121c-10.635,18.593-16.256,39.797-16.256,61.319   c0,68.191,55.478,123.668,123.669,123.668s123.669-55.477,123.669-123.668c0-21.524-5.621-42.728-16.257-61.319   c-10.297-18.003-25.088-33.26-42.774-44.121c-3.676-2.257-7.892-3.45-12.19-3.45c-8.179,0-15.615,4.157-19.892,11.121   c-3.26,5.31-4.258,11.571-2.809,17.63s5.171,11.192,10.48,14.452c23.038,14.147,36.792,38.703,36.792,65.687   c0,42.468-34.55,77.018-77.018,77.018s-77.018-34.55-77.018-77.018C178.982,291.172,192.736,266.616,215.774,252.469z    M164.409,318.156c0,50.503,41.087,91.59,91.591,91.59s91.591-41.087,91.591-91.59c0-32.089-16.351-61.287-43.739-78.105   c-1.992-1.223-3.388-3.149-3.932-5.423s-0.169-4.623,1.054-6.616c1.605-2.614,4.399-4.174,7.474-4.174   c1.605,0,3.184,0.448,4.565,1.296c15.609,9.586,28.663,23.05,37.75,38.938c9.377,16.392,14.334,35.094,14.334,54.084   c0,60.156-48.94,109.095-109.096,109.095s-109.096-48.94-109.096-109.095c0-18.989,4.956-37.69,14.333-54.084   c9.088-15.889,22.142-29.353,37.75-38.938c1.381-0.848,2.96-1.296,4.564-1.296c3.075,0,5.869,1.561,7.474,4.174   c2.525,4.113,1.234,9.514-2.878,12.039C180.76,256.869,164.409,286.067,164.409,318.156z"/>
	<path style="fill:#1A1A1A;" d="M60.458,325.293c0,4.024,3.262,7.286,7.286,7.286s7.286-3.262,7.286-7.286v-85.22   c0-4.024-3.262-7.286-7.286-7.286H20.152l68.363-59.495c1.59-1.384,2.503-3.388,2.503-5.497V84.597h49.913v27.076   c0,2.855,1.668,5.448,4.266,6.631c2.599,1.184,5.649,0.74,7.803-1.135l103-89.638l92.471,80.477   c3.036,2.642,7.638,2.323,10.28-0.713c2.642-3.035,2.323-7.638-0.713-10.28l-94.71-82.425c-4.178-3.636-10.479-3.636-14.657,0   l-93.168,81.083V84.597h1.979c6.286,0,11.4-5.114,11.4-11.4v-21.44c0-6.286-5.114-11.4-11.4-11.4H71.891   c-6.286,0-11.4,5.114-11.4,11.4v21.44c0,6.286,5.114,11.4,11.4,11.4h4.553v79.88L3.876,227.632   c-3.573,3.11-4.809,7.987-3.148,12.424c1.66,4.437,5.794,7.303,10.532,7.303h49.199L60.458,325.293L60.458,325.293z M75.064,70.025   V54.93h79.245v15.095h-6.092H83.731H75.064z"/>
	<path style="fill:#1A1A1A;" d="M508.123,227.632l-123.92-107.847c-3.036-2.642-7.638-2.321-10.28,0.713   c-2.642,3.035-2.323,7.638,0.713,10.28l117.213,102.009h-47.593c-4.024,0-7.286,3.262-7.286,7.286v241.674   c0,2.105-1.712,3.817-3.817,3.817H78.848c-2.105,0-3.817-1.712-3.817-3.817V359.944c0-4.024-3.262-7.286-7.286-7.286   s-7.286,3.262-7.286,7.286v121.803c0,10.14,8.249,18.389,18.389,18.389h354.304c10.14,0,18.389-8.249,18.389-18.389V247.36h49.199   c4.738,0,8.872-2.867,10.532-7.304C512.932,235.619,511.697,230.742,508.123,227.632z"/>
</g>
<g>
</g>
<g>
</g>
<g>
</g>
<g>
</g>
<g>
</g>
<g>
</g>
<g>
</g>
<g>
</g>
<g>
</g>
<g>
</g>
<g>
</g>
<g>
</g>
<g>
</g>
<g>
</g>
<g>
</g>
</svg>
