<?xml version="1.0" encoding="iso-8859-1"?>
<!-- Generator: Adobe Illustrator 19.0.0, SVG Export Plug-In . SVG Version: 6.00 Build 0)  -->
<svg xmlns="http://www.w3.org/2000/svg" xmlns:xlink="http://www.w3.org/1999/xlink" version="1.1" id="Capa_1" x="0px" y="0px" viewBox="0 0 512.001 512.001" style="enable-background:new 0 0 512.001 512.001;" xml:space="preserve">
<polygon style="fill:#FFB427;" points="300.326,412.742 211.674,412.742 219.294,376.318 292.707,376.318 "/>
<polygon style="fill:#FF9D00;" points="292.706,376.318 240.707,376.318 248.327,412.742 300.326,412.742 "/>
<path style="fill:#A0D860;" d="M500.023,78.134H11.977c-2.59,0-4.69,2.1-4.69,4.69v292.754c0,2.59,2.1,4.69,4.69,4.69h488.047  c2.59,0,4.69-2.1,4.69-4.69V82.825C504.713,80.234,502.614,78.134,500.023,78.134z"/>
<path style="fill:#61C979;" d="M500.023,78.134h-33.356c2.59,0,4.69,2.1,4.69,4.69v292.754c0,2.59-2.1,4.69-4.69,4.69h33.356  c2.59,0,4.69-2.1,4.69-4.69V82.825C504.713,80.234,502.614,78.134,500.023,78.134z"/>
<path style="fill:#F7F9F9;" d="M36.433,348.618V109.785c0-1.383,1.121-2.504,2.504-2.504h434.126c1.383,0,2.504,1.121,2.504,2.504  v238.833c0,1.383-1.121,2.504-2.504,2.504H38.937C37.554,351.122,36.433,350.001,36.433,348.618z"/>
<path style="fill:#E4E4E4;" d="M473.063,107.281h-21.46v217.373c0,1.383-1.121,2.504-2.504,2.504H36.433v21.46  c0,1.383,1.121,2.504,2.504,2.504h434.126c1.383,0,2.504-1.121,2.504-2.504V109.785  C475.567,108.402,474.446,107.281,473.063,107.281z"/>
<path style="fill:#A0D860;" d="M334.168,433.868H177.832c-2.303,0-4.17-1.867-4.17-4.169v-16.111c0-2.303,1.867-4.169,4.17-4.169  h156.336c2.303,0,4.17,1.867,4.17,4.169v16.111C338.338,432.001,336.471,433.868,334.168,433.868z"/>
<path style="fill:#61C979;" d="M334.168,409.417H304.97v24.45h29.198c2.303,0,4.17-1.867,4.17-4.169v-16.111  C338.338,411.284,336.471,409.417,334.168,409.417z"/>
<circle style="fill:#FF4D4A;" cx="256" cy="223.371" r="87.56"/>
<path style="fill:#E13F33;" d="M343.56,223.368c0-48.358-39.202-87.561-87.56-87.561v175.121  C304.358,310.929,343.56,271.727,343.56,223.368z"/>
<path style="fill:#F7F9F9;" d="M228.268,178.147v90.444c0,2.705,2.995,4.337,5.268,2.87l70.063-45.222  c2.084-1.345,2.084-4.394,0-5.739l-70.063-45.222C231.263,173.81,228.268,175.441,228.268,178.147z"/>
<g>
	<path style="fill:#1A1A1A;" d="M500.024,70.848h-71.94c-4.025,0-7.287,3.262-7.287,7.287s3.262,7.287,7.287,7.287h69.343v287.561   H293.533h-75.066H97.388c-4.025,0-7.287,3.262-7.287,7.287s3.262,7.287,7.287,7.287h112.111l-3.049,14.575h-28.617   c-6.317,0-11.456,5.139-11.456,11.456v16.111c0,6.317,5.139,11.456,11.456,11.456h156.336c6.317,0,11.456-5.139,11.456-11.456   v-16.111c0-6.317-5.139-11.456-11.456-11.456h-28.617l-3.049-14.575h197.522c6.603,0,11.976-5.373,11.976-11.977V82.825   C512,76.221,506.627,70.848,500.024,70.848z M224.387,387.555h63.226l3.049,14.575h-69.324L224.387,387.555z M331.051,416.704   v9.878H180.949v-9.878h31.412c0.003,0,0.006,0,0.009,0h87.262c0.003,0,0.006,0,0.009,0H331.051z"/>
	<path style="fill:#1A1A1A;" d="M62.502,372.982H14.573V85.421h378.535c4.025,0,7.287-3.262,7.287-7.287s-3.262-7.287-7.287-7.287   H11.976C5.373,70.848,0,76.221,0,82.825v292.754c0,6.604,5.373,11.977,11.976,11.977h50.526c4.025,0,7.287-3.262,7.287-7.287   S66.527,372.982,62.502,372.982z"/>
	<path style="fill:#1A1A1A;" d="M29.146,109.785v238.833c0,5.398,4.392,9.791,9.79,9.791h434.127c5.398,0,9.79-4.392,9.79-9.791   V109.785c0-5.398-4.392-9.791-9.79-9.791H38.936C33.538,99.994,29.146,104.386,29.146,109.785z M43.719,114.567h424.562v229.269   H43.719V114.567z"/>
	<path style="fill:#1A1A1A;" d="M256,128.521c-52.299,0-94.847,42.548-94.847,94.847s42.548,94.847,94.847,94.847   s94.847-42.548,94.847-94.847S308.299,128.521,256,128.521z M256,303.642c-44.264,0-80.274-36.01-80.274-80.274   s36.01-80.274,80.274-80.274s80.274,36.011,80.274,80.274S300.264,303.642,256,303.642z"/>
	<path style="fill:#1A1A1A;" d="M307.55,214.377l-70.064-45.222c-1.739-1.122-3.743-1.716-5.795-1.716   c-5.906,0-10.711,4.803-10.711,10.707v90.444c0,5.904,4.805,10.707,10.71,10.707c0.001,0,0.001,0,0.002,0   c2.051,0,4.055-0.593,5.794-1.716l70.064-45.222c3.067-1.98,4.898-5.341,4.898-8.991S310.618,216.357,307.55,214.377z    M235.554,261.484v-76.232l59.054,38.116L235.554,261.484z"/>
</g>
<g>
</g>
<g>
</g>
<g>
</g>
<g>
</g>
<g>
</g>
<g>
</g>
<g>
</g>
<g>
</g>
<g>
</g>
<g>
</g>
<g>
</g>
<g>
</g>
<g>
</g>
<g>
</g>
<g>
</g>
</svg>
