<?xml version="1.0" encoding="iso-8859-1"?>
<!-- Generator: Adobe Illustrator 19.0.0, SVG Export Plug-In . SVG Version: 6.00 Build 0)  -->
<svg xmlns="http://www.w3.org/2000/svg" xmlns:xlink="http://www.w3.org/1999/xlink" version="1.1" id="Capa_1" x="0px" y="0px" viewBox="0 0 512 512" style="enable-background:new 0 0 512 512;" xml:space="preserve">
<g>
	<path style="fill:#E13F33;" d="M488.099,137.266H84.978v-33.12h403.121c9.146,0,16.56,7.414,16.56,16.56l0,0   C504.659,129.852,497.245,137.266,488.099,137.266z"/>
	<path style="fill:#E13F33;" d="M488.099,407.854H84.978v-33.12h403.121c9.146,0,16.56,7.414,16.56,16.56l0,0   C504.659,400.44,497.245,407.854,488.099,407.854z"/>
</g>
<g>
	<path style="fill:#FFB427;" d="M122.474,440.716V71.284c0-16.18,13.116-29.296,29.296-29.296l0,0   c16.18,0,29.296,13.116,29.296,29.296v369.433c0,16.18-13.116,29.296-29.296,29.296l0,0   C135.59,470.013,122.474,456.896,122.474,440.716z"/>
	<path style="fill:#FFB427;" d="M181.066,440.716V71.284c0-16.18,13.116-29.296,29.296-29.296l0,0   c16.18,0,29.296,13.116,29.296,29.296v369.433c0,16.18-13.116,29.296-29.296,29.296l0,0   C194.183,470.013,181.066,456.896,181.066,440.716z"/>
	<path style="fill:#FFB427;" d="M239.659,440.716V71.284c0-16.18,13.116-29.296,29.296-29.296l0,0   c16.18,0,29.296,13.116,29.296,29.296v369.433c0,16.18-13.116,29.296-29.296,29.296l0,0   C252.776,470.013,239.659,456.896,239.659,440.716z"/>
	<path style="fill:#FFB427;" d="M298.252,440.716V71.284c0-16.18,13.116-29.296,29.296-29.296l0,0   c16.18,0,29.296,13.116,29.296,29.296v369.433c0,16.18-13.116,29.296-29.296,29.296l0,0   C311.368,470.013,298.252,456.896,298.252,440.716z"/>
	<path style="fill:#FFB427;" d="M356.845,440.716V71.284c0-16.18,13.116-29.296,29.296-29.296l0,0   c16.18,0,29.296,13.116,29.296,29.296v369.433c0,16.18-13.116,29.296-29.296,29.296l0,0   C369.961,470.013,356.845,456.896,356.845,440.716z"/>
	<path style="fill:#FFB427;" d="M415.437,440.716V71.284c0-16.18,13.116-29.296,29.296-29.296l0,0   c16.18,0,29.296,13.116,29.296,29.296v369.433c0,16.18-13.116,29.296-29.296,29.296l0,0   C428.554,470.013,415.437,456.896,415.437,440.716z"/>
</g>
<g>
	<path style="fill:#FF9D00;" d="M151.77,41.987L151.77,41.987c-6.374,0-12.267,2.042-17.076,5.498   c7.398,5.318,12.22,13.992,12.22,23.798v369.433c0,9.806-4.823,18.48-12.22,23.798c4.809,3.456,10.702,5.498,17.076,5.498l0,0   c16.18,0,29.296-13.117,29.296-29.296V71.284C181.066,55.104,167.95,41.987,151.77,41.987z"/>
	<path style="fill:#FF9D00;" d="M210.363,41.987L210.363,41.987c-6.374,0-12.268,2.042-17.076,5.498   c7.398,5.318,12.22,13.992,12.22,23.798v369.433c0,9.806-4.823,18.48-12.22,23.798c4.809,3.456,10.702,5.498,17.076,5.498l0,0   c16.18,0,29.296-13.117,29.296-29.296V71.284C239.659,55.104,226.543,41.987,210.363,41.987z"/>
	<path style="fill:#FF9D00;" d="M268.956,41.987L268.956,41.987c-6.374,0-12.268,2.042-17.076,5.498   c7.398,5.318,12.22,13.992,12.22,23.798v369.433c0,9.806-4.823,18.48-12.22,23.798c4.809,3.456,10.702,5.498,17.076,5.498l0,0   c16.18,0,29.296-13.117,29.296-29.296V71.284C298.252,55.104,285.135,41.987,268.956,41.987z"/>
	<path style="fill:#FF9D00;" d="M327.548,41.987L327.548,41.987c-6.374,0-12.268,2.042-17.076,5.498   c7.398,5.318,12.22,13.992,12.22,23.798v369.433c0,9.806-4.823,18.48-12.22,23.798c4.808,3.456,10.702,5.498,17.076,5.498l0,0   c16.18,0,29.296-13.117,29.296-29.296V71.284C356.845,55.104,343.728,41.987,327.548,41.987z"/>
	<path style="fill:#FF9D00;" d="M386.141,41.987L386.141,41.987c-6.374,0-12.268,2.042-17.076,5.498   c7.398,5.318,12.22,13.992,12.22,23.798v369.433c0,9.806-4.823,18.48-12.22,23.798c4.809,3.456,10.702,5.498,17.076,5.498l0,0   c16.18,0,29.296-13.117,29.296-29.296V71.284C415.438,55.104,402.321,41.987,386.141,41.987z"/>
	<path style="fill:#FF9D00;" d="M444.734,41.987c-6.374,0-12.268,2.042-17.076,5.498c7.398,5.318,12.22,13.992,12.22,23.798v369.433   c0,9.806-4.823,18.48-12.22,23.798c4.809,3.456,10.702,5.498,17.076,5.498c16.18,0,29.296-13.117,29.296-29.296V71.284   C474.03,55.104,460.914,41.987,444.734,41.987z"/>
</g>
<path style="fill:#FF8B00;" d="M17.832,470.013h64.49c5.794,0,10.491-4.697,10.491-10.491V52.479  c0-5.794-4.697-10.491-10.491-10.491h-64.49c-5.794,0-10.491,4.697-10.491,10.491v407.043  C7.341,465.316,12.038,470.013,17.832,470.013z"/>
<path style="fill:#FF6900;" d="M82.322,41.987H48.17c5.794,0,10.491,4.697,10.491,10.491v407.043  c0,5.794-4.697,10.491-10.491,10.491h34.152c5.794,0,10.491-4.697,10.491-10.491V52.478C92.813,46.684,88.116,41.987,82.322,41.987z  "/>
<path style="fill:#FFDE3E;" d="M66.506,116.752H33.647c-2.334,0-4.226-1.892-4.226-4.226v-32.86c0-2.334,1.892-4.226,4.226-4.226  h32.859c2.334,0,4.226,1.892,4.226,4.226v32.859C70.733,114.86,68.84,116.752,66.506,116.752z"/>
<g>
	<path style="fill:#1A1A1A;" d="M488.099,367.393h-6.727v-97.364c0-4.054-3.286-7.341-7.341-7.341s-7.341,3.287-7.341,7.341v104.704   v33.12v32.862c0,12.107-9.85,21.956-21.956,21.956c-12.107,0-21.955-9.849-21.955-21.956V71.284   c0-12.107,9.849-21.956,21.955-21.956c12.107,0,21.956,9.849,21.956,21.956v32.862v33.12v97.771c0,4.054,3.286,7.341,7.341,7.341   s7.341-3.287,7.341-7.341v-90.431h6.727c13.179,0,23.901-10.722,23.901-23.901s-10.723-23.901-23.901-23.901h-6.727v-25.52   c0-20.202-16.435-36.637-36.638-36.637c-11.964,0-22.606,5.766-29.296,14.664c-6.691-8.898-17.332-14.664-29.296-14.664   s-22.606,5.766-29.296,14.664c-6.691-8.898-17.332-14.664-29.296-14.664c-11.965,0-22.607,5.766-29.297,14.664   c-6.69-8.898-17.332-14.664-29.296-14.664s-22.606,5.766-29.296,14.664c-6.691-8.898-17.332-14.664-29.296-14.664   s-22.606,5.766-29.296,14.664c-6.691-8.898-17.333-14.664-29.297-14.664c-20.201,0-36.637,16.436-36.637,36.637v25.521h-14.979   V52.478c0-9.833-7.999-17.832-17.832-17.832h-64.49C7.999,34.646,0,42.646,0,52.478v331.128c0,4.054,3.286,7.341,7.341,7.341   s7.341-3.287,7.341-7.341V52.478c0-1.737,1.414-3.15,3.15-3.15h64.49c1.737,0,3.15,1.413,3.15,3.15v51.667v33.12v237.467v33.12   v51.667c0,1.737-1.414,3.15-3.15,3.15h-64.49c-1.737,0-3.15-1.413-3.15-3.15v-40.964c0-4.054-3.286-7.341-7.341-7.341   S0,414.503,0,418.558v40.964c0,9.833,7.999,17.832,17.832,17.832h64.49c9.833,0,17.832-7.999,17.832-17.832v-44.327h14.979v25.521   c0,20.202,16.436,36.637,36.637,36.637c11.965,0,22.607-5.766,29.297-14.664c6.69,8.898,17.332,14.664,29.296,14.664   s22.606-5.766,29.296-14.664c6.691,8.898,17.332,14.664,29.296,14.664s22.606-5.766,29.296-14.664   c6.691,8.898,17.333,14.664,29.297,14.664s22.606-5.766,29.296-14.664c6.691,8.898,17.332,14.664,29.296,14.664   s22.606-5.766,29.296-14.664c6.691,8.898,17.332,14.664,29.296,14.664c20.202,0,36.638-16.436,36.638-36.637v-25.521h6.727   c13.179,0,23.901-10.722,23.901-23.901S501.277,367.393,488.099,367.393z M481.371,111.487h6.727c5.084,0,9.22,4.136,9.22,9.219   c0,5.084-4.136,9.219-9.22,9.219h-6.727V111.487z M115.133,400.513h-14.979v-18.439h14.979   C115.133,382.074,115.133,400.513,115.133,400.513z M115.133,367.393h-14.979V144.607h14.979   C115.133,144.607,115.133,367.393,115.133,367.393z M115.133,129.926h-14.979v-18.439h14.979   C115.133,111.487,115.133,129.926,115.133,129.926z M173.726,440.716c0,12.107-9.85,21.956-21.956,21.956   c-12.107,0-21.955-9.849-21.955-21.956v-32.862v-33.12V137.266v-33.12V71.284c0-12.107,9.849-21.956,21.955-21.956   c12.107,0,21.956,9.849,21.956,21.956V440.716z M232.318,440.716c0,12.107-9.849,21.956-21.955,21.956   c-12.107,0-21.955-9.849-21.955-21.956V71.284c0-12.107,9.849-21.956,21.955-21.956c12.107,0,21.955,9.849,21.955,21.956V440.716z    M290.911,440.716c0,12.107-9.849,21.956-21.955,21.956S247,452.823,247,440.716V71.284c0-12.107,9.849-21.956,21.955-21.956   s21.955,9.849,21.955,21.956v369.432H290.911z M349.504,440.716c0,12.107-9.849,21.956-21.955,21.956s-21.956-9.849-21.956-21.956   V71.284c0-12.107,9.85-21.956,21.956-21.956s21.955,9.849,21.955,21.956V440.716z M408.096,440.716   c0,12.107-9.849,21.956-21.955,21.956c-12.107,0-21.955-9.849-21.955-21.956V71.284c0-12.107,9.849-21.956,21.955-21.956   c12.107,0,21.955,9.849,21.955,21.956V440.716z M488.099,400.513h-6.727v-18.439h6.727c5.084,0,9.22,4.136,9.22,9.219   S493.183,400.513,488.099,400.513z"/>
	<path style="fill:#1A1A1A;" d="M66.507,124.093c6.378,0,11.566-5.189,11.566-11.567V79.667c0-6.378-5.188-11.567-11.566-11.567   h-32.86c-6.378,0-11.566,5.189-11.566,11.567v32.859c0,6.378,5.188,11.567,11.566,11.567H66.507z M36.762,82.781h26.629v26.63   H36.762V82.781z"/>
</g>
<g>
</g>
<g>
</g>
<g>
</g>
<g>
</g>
<g>
</g>
<g>
</g>
<g>
</g>
<g>
</g>
<g>
</g>
<g>
</g>
<g>
</g>
<g>
</g>
<g>
</g>
<g>
</g>
<g>
</g>
</svg>
