<?xml version="1.0" encoding="iso-8859-1"?>
<!-- Generator: Adobe Illustrator 19.0.0, SVG Export Plug-In . SVG Version: 6.00 Build 0)  -->
<svg xmlns="http://www.w3.org/2000/svg" xmlns:xlink="http://www.w3.org/1999/xlink" version="1.1" id="Capa_1" x="0px" y="0px" viewBox="0 0 512.001 512.001" style="enable-background:new 0 0 512.001 512.001;" xml:space="preserve">
<path style="fill:#0072A2;" d="M398.926,475.163H113.074V14.757c0-4.126,3.345-7.471,7.471-7.471h270.91  c4.126,0,7.471,3.345,7.471,7.471L398.926,475.163L398.926,475.163z"/>
<path style="fill:#006289;" d="M391.455,7.287h-33.553c4.126,0,7.471,3.345,7.471,7.471v460.406h33.553V14.757  C398.926,10.631,395.581,7.287,391.455,7.287z"/>
<path style="fill:#A0D860;" d="M147.292,475.163V46.528c0-4.647,3.767-8.414,8.414-8.414h200.59c4.647,0,8.414,3.767,8.414,8.414  v428.635L147.292,475.163L147.292,475.163z"/>
<path style="fill:#61C979;" d="M356.296,38.114h-24.897c4.647,0,8.414,3.767,8.414,8.414v428.635h24.897V46.528  C364.71,41.881,360.942,38.114,356.296,38.114z"/>
<g>
	<path style="fill:#F7F9F9;" d="M237.781,175.608h-57.105c-2.823,0-5.112-2.289-5.112-5.112V72.357c0-2.823,2.289-5.112,5.112-5.112   h57.105c2.823,0,5.112,2.289,5.112,5.112v98.139C242.893,173.319,240.604,175.608,237.781,175.608z"/>
	<path style="fill:#F7F9F9;" d="M331.324,175.608h-57.105c-2.823,0-5.112-2.289-5.112-5.112V72.357c0-2.823,2.289-5.112,5.112-5.112   h57.105c2.823,0,5.112,2.289,5.112,5.112v98.139C336.436,173.319,334.147,175.608,331.324,175.608z"/>
	<path style="fill:#F7F9F9;" d="M237.781,311.42h-57.105c-2.823,0-5.112-2.289-5.112-5.112v-98.139c0-2.823,2.289-5.112,5.112-5.112   h57.105c2.823,0,5.112,2.289,5.112,5.112v98.139C242.893,309.131,240.604,311.42,237.781,311.42z"/>
	<path style="fill:#F7F9F9;" d="M331.324,311.42h-57.105c-2.823,0-5.112-2.289-5.112-5.112v-98.139c0-2.823,2.289-5.112,5.112-5.112   h57.105c2.823,0,5.112,2.289,5.112,5.112v98.139C336.436,309.131,334.147,311.42,331.324,311.42z"/>
	<path style="fill:#F7F9F9;" d="M237.781,447.231h-57.105c-2.823,0-5.112-2.289-5.112-5.112V343.98c0-2.823,2.289-5.112,5.112-5.112   h57.105c2.823,0,5.112,2.289,5.112,5.112v98.139C242.893,444.942,240.604,447.231,237.781,447.231z"/>
	<path style="fill:#F7F9F9;" d="M331.324,447.231h-57.105c-2.823,0-5.112-2.289-5.112-5.112V343.98c0-2.823,2.289-5.112,5.112-5.112   h57.105c2.823,0,5.112,2.289,5.112,5.112v98.139C336.436,444.942,334.147,447.231,331.324,447.231z"/>
</g>
<g>
	<path style="fill:#E4E4E4;" d="M331.324,67.245h-24.912c2.823,0,5.112,2.289,5.112,5.112v98.139c0,2.823-2.289,5.112-5.112,5.112   h24.912c2.823,0,5.112-2.289,5.112-5.112V72.357C336.436,69.534,334.147,67.245,331.324,67.245z"/>
	<path style="fill:#E4E4E4;" d="M331.324,203.057h-24.912c2.823,0,5.112,2.289,5.112,5.112v98.139c0,2.823-2.289,5.112-5.112,5.112   h24.912c2.823,0,5.112-2.289,5.112-5.112v-98.139C336.436,205.346,334.147,203.057,331.324,203.057z"/>
	<path style="fill:#E4E4E4;" d="M331.324,338.868h-24.912c2.823,0,5.112,2.289,5.112,5.112v98.139c0,2.823-2.289,5.112-5.112,5.112   h24.912c2.823,0,5.112-2.289,5.112-5.112V343.98C336.436,341.157,334.147,338.868,331.324,338.868z"/>
	<path style="fill:#E4E4E4;" d="M237.781,67.245H212.87c2.823,0,5.112,2.289,5.112,5.112v98.139c0,2.823-2.289,5.112-5.112,5.112   h24.912c2.823,0,5.112-2.289,5.112-5.112V72.357C242.893,69.534,240.604,67.245,237.781,67.245z"/>
	<path style="fill:#E4E4E4;" d="M237.781,203.057H212.87c2.823,0,5.112,2.289,5.112,5.112v98.139c0,2.823-2.289,5.112-5.112,5.112   h24.912c2.823,0,5.112-2.289,5.112-5.112v-98.139C242.893,205.346,240.604,203.057,237.781,203.057z"/>
	<path style="fill:#E4E4E4;" d="M237.781,338.868H212.87c2.823,0,5.112,2.289,5.112,5.112v98.139c0,2.823-2.289,5.112-5.112,5.112   h24.912c2.823,0,5.112-2.289,5.112-5.112V343.98C242.893,341.157,240.604,338.868,237.781,338.868z"/>
</g>
<path style="fill:#D96B37;" d="M427.835,504.713H84.166c-1.87,0-3.386-1.516-3.386-3.386v-25.546c0-1.87,1.516-3.386,3.386-3.386  h343.668c1.87,0,3.386,1.516,3.386,3.386v25.546C431.221,503.197,429.704,504.713,427.835,504.713z"/>
<path style="fill:#B14418;" d="M427.835,472.395h-30.167v32.319h30.167c1.87,0,3.386-1.516,3.386-3.386v-25.546  C431.221,473.911,429.704,472.395,427.835,472.395z"/>
<g>
	<path style="fill:#1A1A1A;" d="M237.781,59.959h-57.105c-6.836,0-12.398,5.562-12.398,12.398v98.139   c0,6.837,5.562,12.399,12.398,12.399h57.105c6.836,0,12.398-5.562,12.398-12.399V72.357   C250.18,65.521,244.617,59.959,237.781,59.959z M235.607,168.322h-52.756v-93.79h52.756V168.322z"/>
	<path style="fill:#1A1A1A;" d="M331.324,59.959H274.22c-6.837,0-12.398,5.562-12.398,12.398v98.139   c0,6.837,5.562,12.399,12.398,12.399h57.104c6.837,0,12.398-5.562,12.398-12.399V72.357   C343.722,65.521,338.161,59.959,331.324,59.959z M329.149,168.322h-52.755v-93.79h52.755V168.322z"/>
	<path style="fill:#1A1A1A;" d="M237.781,195.77h-57.105c-6.836,0-12.398,5.562-12.398,12.398v98.139   c0,6.836,5.562,12.398,12.398,12.398h57.105c6.836,0,12.398-5.562,12.398-12.398v-98.139   C250.18,201.333,244.617,195.77,237.781,195.77z M235.607,304.133h-52.756v-93.789h52.756V304.133z"/>
	<path style="fill:#1A1A1A;" d="M331.324,195.77H274.22c-6.837,0-12.398,5.562-12.398,12.398v98.139   c0,6.836,5.562,12.398,12.398,12.398h57.104c6.837,0,12.398-5.562,12.398-12.398v-98.139   C343.722,201.333,338.161,195.77,331.324,195.77z M329.149,304.133h-52.755v-93.789h52.755V304.133z"/>
	<path style="fill:#1A1A1A;" d="M237.781,331.582h-57.105c-6.836,0-12.398,5.562-12.398,12.398v98.139   c0,6.836,5.562,12.398,12.398,12.398h57.105c6.836,0,12.398-5.562,12.398-12.398V343.98   C250.18,337.144,244.617,331.582,237.781,331.582z M235.607,439.944h-52.756v-93.789h52.756V439.944z"/>
	<path style="fill:#1A1A1A;" d="M331.324,331.582H274.22c-6.837,0-12.398,5.562-12.398,12.398v98.139   c0,6.836,5.562,12.398,12.398,12.398h57.104c6.837,0,12.398-5.562,12.398-12.398V343.98   C343.722,337.144,338.161,331.582,331.324,331.582z M329.149,439.944h-52.755v-93.789h52.755V439.944z"/>
	<path style="fill:#1A1A1A;" d="M427.835,465.108h-21.622V245.192c0-4.024-3.262-7.287-7.287-7.287s-7.287,3.262-7.287,7.287   v219.917h-19.643V46.528c0-8.657-7.043-15.701-15.7-15.701h-200.59c-8.658,0-15.701,7.043-15.701,15.701v418.58h-19.643V245.122   c0-4.024-3.262-7.287-7.287-7.287s-7.287,3.262-7.287,7.287v219.986H84.166c-5.885,0-10.673,4.788-10.673,10.673v25.547   c0,5.885,4.788,10.673,10.673,10.673h343.668c5.885,0,10.673-4.788,10.673-10.673v-25.547   C438.507,469.896,433.719,465.108,427.835,465.108z M154.577,46.528c0-0.622,0.506-1.128,1.128-1.128h200.591   c0.621,0,1.127,0.506,1.127,1.128v418.58H154.577V46.528z M423.934,497.427H88.066v-17.746h25.008h34.216h217.418h34.216h25.009   L423.934,497.427L423.934,497.427z"/>
	<path style="fill:#1A1A1A;" d="M113.074,217.138c4.024,0,7.287-3.262,7.287-7.287V14.757c0-0.102,0.083-0.184,0.184-0.184h270.91   c0.102,0,0.184,0.083,0.184,0.184v195.702c0,4.024,3.262,7.287,7.287,7.287s7.287-3.262,7.287-7.287V14.757   C406.212,6.62,399.592,0,391.455,0h-270.91c-8.137,0-14.757,6.62-14.757,14.757v195.094   C105.788,213.876,109.05,217.138,113.074,217.138z"/>
</g>
<g>
</g>
<g>
</g>
<g>
</g>
<g>
</g>
<g>
</g>
<g>
</g>
<g>
</g>
<g>
</g>
<g>
</g>
<g>
</g>
<g>
</g>
<g>
</g>
<g>
</g>
<g>
</g>
<g>
</g>
</svg>
