<?xml version="1.0" encoding="iso-8859-1"?>
<!-- Generator: Adobe Illustrator 19.0.0, SVG Export Plug-In . SVG Version: 6.00 Build 0)  -->
<svg xmlns="http://www.w3.org/2000/svg" xmlns:xlink="http://www.w3.org/1999/xlink" version="1.1" id="Capa_1" x="0px" y="0px" viewBox="0 0 512.001 512.001" style="enable-background:new 0 0 512.001 512.001;" xml:space="preserve">
<rect x="59.02" y="83.411" style="fill:#FFDE3E;" width="393.96" height="330.03"/>
<polygon style="fill:#FCD400;" points="419.877,83.413 59.021,83.413 59.021,100.118 419.877,100.118 419.877,413.44   452.979,413.44 452.979,100.118 452.979,83.413 "/>
<path style="fill:#F7F9F9;" d="M409.507,413.44H102.493V279.893c0-84.779,68.727-153.506,153.506-153.506l0,0  c84.779,0,153.506,68.727,153.506,153.506V413.44H409.507z"/>
<path style="fill:#E4E4E4;" d="M256,126.386L256,126.386c-33.479,0-64.449,10.724-89.678,28.915  c17.615-7.044,36.836-10.925,56.965-10.925l0,0c84.779,0,153.506,68.727,153.506,153.506v115.557h32.713V279.893  C409.507,195.113,340.779,126.386,256,126.386z"/>
<path style="fill:#FFB427;" d="M188.832,330.797c0.901,19.356,11.604,36.163,26.98,46.645h81.849  c30.79-20.284,25.202-60.486,25.202-60.486s-27.353,48.04-41.379,36.256c-10.45-8.78,18.522-20.492,29.556-63.447  s-37.338-64.476-37.338-64.476s13.909,25.603-2.858,26.25c-32.293,1.245-14.951-62.445-14.951-62.445s-35.854,35.869-32.307,59.514  s38.589,32.882,22.825,48.645c-15.763,15.763-41.773-24.433-41.773-24.433s-16.749,17.044-15.862,56.354  C188.788,329.718,188.807,330.26,188.832,330.797z"/>
<path style="fill:#FF8100;" d="M322.862,316.956c0,0-0.046,0.081-0.127,0.221l0,0v0.001c-0.097,0.167-0.249,0.429-0.454,0.776  c-0.002,0.003-0.003,0.006-0.005,0.009c-0.005,0.008-0.009,0.016-0.014,0.024c-0.194,0.328-0.432,0.728-0.712,1.193  c-0.002,0.002-0.003,0.004-0.004,0.007c-0.002,0.003-0.003,0.005-0.005,0.008c-0.416,0.691-0.924,1.521-1.511,2.464  c-0.044,0.07-0.086,0.138-0.131,0.209c-0.081,0.13-0.165,0.264-0.249,0.398c-0.058,0.092-0.116,0.184-0.175,0.278  c-0.079,0.125-0.159,0.252-0.24,0.38c-0.071,0.112-0.142,0.224-0.215,0.338c-0.08,0.126-0.161,0.252-0.243,0.381  c-0.08,0.124-0.161,0.251-0.242,0.378c-0.074,0.116-0.148,0.23-0.223,0.348c-0.11,0.17-0.222,0.343-0.335,0.517  c-0.056,0.086-0.11,0.169-0.166,0.256c-0.17,0.261-0.343,0.525-0.52,0.794c-0.041,0.062-0.083,0.126-0.124,0.188  c-0.14,0.212-0.28,0.424-0.424,0.64c-0.063,0.094-0.127,0.19-0.19,0.285c-0.127,0.19-0.255,0.381-0.385,0.575  c-0.067,0.1-0.136,0.201-0.204,0.302c-0.13,0.193-0.261,0.387-0.394,0.582c-0.068,0.099-0.135,0.199-0.204,0.299  c-0.139,0.203-0.279,0.408-0.421,0.614c-0.066,0.096-0.132,0.192-0.199,0.289c-0.16,0.232-0.323,0.465-0.486,0.7  c-0.046,0.066-0.091,0.131-0.137,0.197c-0.437,0.625-0.886,1.258-1.346,1.897c-0.021,0.03-0.043,0.06-0.065,0.089  c-0.204,0.283-0.41,0.567-0.618,0.853c-0.052,0.071-0.104,0.141-0.156,0.212c-0.181,0.247-0.363,0.494-0.546,0.742  c-0.062,0.084-0.125,0.168-0.187,0.252c-0.177,0.238-0.355,0.475-0.534,0.713c-0.064,0.085-0.128,0.171-0.193,0.256  c-0.188,0.248-0.377,0.496-0.567,0.744c-0.054,0.071-0.108,0.142-0.163,0.213c-0.219,0.284-0.439,0.568-0.66,0.852  c-0.027,0.034-0.054,0.069-0.081,0.103c-0.51,0.651-1.027,1.299-1.551,1.942c-0.036,0.044-0.072,0.087-0.108,0.131  c-0.219,0.268-0.44,0.536-0.661,0.802c-0.062,0.075-0.125,0.149-0.187,0.224c-0.199,0.237-0.398,0.474-0.598,0.709  c-0.069,0.081-0.138,0.162-0.207,0.242c-0.198,0.231-0.396,0.46-0.595,0.689c-0.069,0.079-0.137,0.158-0.206,0.236  c-0.213,0.243-0.426,0.483-0.641,0.722c-0.051,0.057-0.102,0.115-0.154,0.172c-0.811,0.901-1.632,1.777-2.457,2.616  c-0.058,0.059-0.116,0.116-0.174,0.175c-0.212,0.214-0.424,0.426-0.637,0.635c-0.076,0.075-0.152,0.149-0.229,0.223  c-0.198,0.193-0.397,0.384-0.596,0.572c-0.079,0.075-0.158,0.149-0.237,0.224c-0.201,0.188-0.402,0.373-0.603,0.556  c-0.074,0.068-0.148,0.136-0.223,0.202c-0.221,0.198-0.441,0.393-0.662,0.584c-0.052,0.046-0.105,0.092-0.157,0.138  c-0.555,0.478-1.111,0.934-1.665,1.364c-0.045,0.035-0.091,0.069-0.136,0.104c-0.225,0.173-0.45,0.343-0.675,0.507  c-0.078,0.057-0.155,0.112-0.233,0.168c-0.193,0.139-0.385,0.275-0.578,0.407c-0.088,0.061-0.177,0.12-0.265,0.179  c-0.185,0.124-0.369,0.244-0.553,0.362c-0.088,0.056-0.176,0.112-0.264,0.167c-0.189,0.117-0.377,0.23-0.565,0.339  c-0.081,0.047-0.161,0.096-0.242,0.141c-0.214,0.121-0.427,0.237-0.639,0.348c-0.053,0.028-0.106,0.058-0.158,0.085  c-0.27,0.139-0.539,0.27-0.807,0.392c-0.01,0.005-0.02,0.008-0.031,0.013c-0.251,0.113-0.5,0.218-0.749,0.316  c-0.075,0.03-0.149,0.055-0.224,0.083c-0.184,0.069-0.367,0.135-0.549,0.195c-0.091,0.03-0.181,0.057-0.271,0.084  c-0.167,0.051-0.334,0.099-0.5,0.143c-0.094,0.025-0.188,0.048-0.281,0.07c-0.163,0.038-0.325,0.072-0.486,0.102  c-0.092,0.017-0.184,0.035-0.276,0.05c-0.168,0.027-0.336,0.048-0.502,0.066c-0.081,0.009-0.163,0.02-0.244,0.027  c-0.203,0.017-0.405,0.025-0.605,0.028c-0.043,0.001-0.086,0.005-0.128,0.005c-0.243,0-0.484-0.012-0.723-0.033  c-0.059-0.005-0.118-0.016-0.177-0.023c-0.177-0.02-0.354-0.044-0.529-0.076c-0.083-0.015-0.166-0.036-0.249-0.054  c-0.15-0.033-0.299-0.069-0.447-0.111c-0.089-0.026-0.178-0.055-0.267-0.084c-0.14-0.046-0.28-0.096-0.418-0.151  c-0.089-0.035-0.178-0.072-0.266-0.111c-0.139-0.061-0.276-0.129-0.412-0.2c-0.084-0.044-0.168-0.086-0.252-0.133  c-0.146-0.083-0.291-0.175-0.434-0.269c-0.07-0.046-0.141-0.088-0.211-0.136c-0.212-0.148-0.421-0.305-0.627-0.478  c-0.21-0.177-0.399-0.355-0.577-0.534c-0.048-0.048-0.094-0.096-0.139-0.144c-0.148-0.156-0.285-0.313-0.41-0.471  c-0.021-0.027-0.045-0.053-0.066-0.08c-0.139-0.182-0.26-0.366-0.37-0.551c-0.028-0.047-0.053-0.094-0.079-0.141  c-0.085-0.154-0.161-0.31-0.227-0.466c-0.017-0.041-0.037-0.081-0.053-0.122c-0.074-0.19-0.134-0.383-0.181-0.577  c-0.01-0.043-0.017-0.088-0.027-0.131c-0.034-0.161-0.059-0.325-0.076-0.489c-0.005-0.051-0.012-0.102-0.015-0.153  c-0.014-0.201-0.018-0.405-0.007-0.612c0.002-0.033,0.007-0.067,0.009-0.1c0.013-0.18,0.035-0.362,0.065-0.546  c0.01-0.059,0.019-0.118,0.031-0.177c0.041-0.215,0.09-0.432,0.153-0.654c0.003-0.01,0.007-0.02,0.009-0.029  c0.062-0.214,0.138-0.432,0.22-0.653c0.025-0.067,0.051-0.135,0.078-0.202c0.076-0.193,0.16-0.389,0.25-0.587  c0.02-0.043,0.037-0.086,0.058-0.129c0.109-0.232,0.23-0.469,0.357-0.71c0.041-0.078,0.086-0.157,0.129-0.236  c0.1-0.183,0.206-0.368,0.316-0.555c0.045-0.077,0.089-0.153,0.135-0.23c0.145-0.241,0.299-0.486,0.459-0.734  c0.062-0.097,0.128-0.196,0.193-0.294c0.114-0.173,0.232-0.349,0.353-0.526c0.075-0.111,0.151-0.221,0.229-0.333  c0.167-0.24,0.338-0.483,0.517-0.731c0.105-0.146,0.215-0.296,0.324-0.444c0.098-0.134,0.197-0.269,0.299-0.406  c0.129-0.173,0.259-0.349,0.393-0.526c0.051-0.068,0.104-0.137,0.155-0.205c3.319-4.39,7.984-9.906,12.7-17.204  c0.001-0.002,0.002-0.004,0.004-0.006c0.751-1.162,1.503-2.369,2.25-3.623l0,0c0.008-0.043,0.014-0.061,0.016-0.027  c0.276-0.464,0.552-0.934,0.826-1.411c0.007-0.013,0.014-0.025,0.022-0.038c0.02-0.034,0.039-0.069,0.059-0.103  c0.249-0.434,0.497-0.873,0.745-1.318c0.016-0.029,0.032-0.058,0.048-0.086c0.024-0.044,0.049-0.088,0.073-0.131  c0.236-0.426,0.471-0.858,0.705-1.294c0.045-0.085,0.091-0.169,0.136-0.254c0.231-0.434,0.462-0.875,0.691-1.319  c0.043-0.084,0.087-0.167,0.13-0.251c0.239-0.466,0.476-0.938,0.711-1.415c0.015-0.031,0.031-0.061,0.046-0.093  c0.016-0.032,0.032-0.065,0.048-0.097c0.382-0.777,0.759-1.572,1.132-2.38c0.04-0.086,0.079-0.172,0.119-0.258  c0.371-0.81,0.739-1.633,1.099-2.475c0.047-0.11,0.093-0.223,0.14-0.333c0.198-0.466,0.394-0.935,0.588-1.411  c0.075-0.183,0.148-0.37,0.222-0.554c0.164-0.408,0.327-0.818,0.487-1.232c0.086-0.223,0.172-0.449,0.257-0.674  c0.147-0.387,0.292-0.775,0.437-1.168c0.089-0.242,0.177-0.485,0.264-0.73c0.138-0.385,0.275-0.773,0.41-1.164  c0.088-0.255,0.177-0.511,0.264-0.769c0.132-0.391,0.263-0.787,0.392-1.184c0.023-0.071,0.046-0.142,0.069-0.213  c0.062-0.191,0.124-0.38,0.185-0.573c0.129-0.407,0.256-0.82,0.382-1.234c0.079-0.26,0.16-0.518,0.238-0.781  c0.135-0.456,0.267-0.919,0.399-1.382c0.054-0.19,0.109-0.378,0.162-0.568c0.01-0.035,0.02-0.07,0.03-0.105  c0.192-0.693,0.38-1.394,0.562-2.104c0.228-0.889,0.422-1.766,0.601-2.637c0.045-0.22,0.089-0.44,0.131-0.659  c0.16-0.832,0.304-1.658,0.419-2.473c0.005-0.033,0.011-0.067,0.016-0.1c0.119-0.848,0.206-1.683,0.279-2.512  c0.018-0.205,0.034-0.409,0.049-0.613c0.058-0.776,0.102-1.546,0.122-2.306c0.001-0.051,0.005-0.103,0.006-0.154  c0.019-0.809,0.01-1.607-0.013-2.397c-0.005-0.186-0.013-0.37-0.021-0.555c-0.03-0.734-0.074-1.462-0.139-2.18  c-0.005-0.056-0.008-0.112-0.013-0.168c-0.073-0.775-0.169-1.539-0.28-2.295c-0.024-0.161-0.049-0.321-0.074-0.481  c-0.111-0.705-0.235-1.403-0.377-2.091c-0.01-0.049-0.018-0.099-0.029-0.148c-0.157-0.745-0.334-1.478-0.526-2.203  c-0.035-0.132-0.071-0.262-0.107-0.393c-0.186-0.681-0.384-1.355-0.599-2.019c-0.013-0.039-0.024-0.079-0.037-0.119  c-0.234-0.715-0.486-1.418-0.75-2.113c-0.038-0.101-0.078-0.201-0.117-0.301c-0.258-0.664-0.528-1.32-0.812-1.965  c-0.01-0.024-0.02-0.048-0.031-0.071c-0.304-0.686-0.624-1.361-0.955-2.026c-0.035-0.07-0.071-0.139-0.106-0.209  c-0.326-0.646-0.662-1.283-1.012-1.909c-0.005-0.009-0.01-0.019-0.015-0.028c-0.367-0.656-0.747-1.301-1.138-1.936  c-0.024-0.039-0.049-0.078-0.073-0.117c-0.387-0.624-0.783-1.239-1.191-1.842c0,0-0.001-0.001-0.001-0.002l0,0  c-0.711-1.052-1.451-2.071-2.214-3.058c-0.005-0.007-0.011-0.014-0.016-0.021c-0.011-0.014-0.022-0.029-0.034-0.043  c-0.36-0.464-0.724-0.92-1.093-1.369c-0.005-0.006-0.01-0.012-0.015-0.019c-0.022-0.027-0.044-0.054-0.067-0.081  c-0.585-0.709-1.18-1.399-1.783-2.072c-0.006-0.007-0.013-0.014-0.019-0.021c-0.603-0.672-1.214-1.326-1.831-1.962  c-0.001-0.001-0.002-0.002-0.003-0.003c-0.412-0.425-0.827-0.841-1.243-1.25c-0.01-0.01-0.019-0.019-0.029-0.029  c-2.32-2.274-4.691-4.298-6.98-6.072c-0.004-0.003-0.009-0.007-0.013-0.01c-1.713-1.327-3.379-2.515-4.943-3.563  c-0.004-0.003-0.008-0.006-0.012-0.008c-0.521-0.349-1.03-0.682-1.526-1h-0.001c-0.001,0-0.001-0.001-0.002-0.001  c-1.44-0.922-2.763-1.714-3.923-2.374c-0.016-0.009-0.032-0.018-0.049-0.028c-0.273-0.155-0.537-0.304-0.791-0.445  c-0.012-0.007-0.024-0.014-0.036-0.02c-0.533-0.295-1.022-0.558-1.46-0.788c-0.002-0.001-0.003-0.001-0.004-0.002  c-0.206-0.108-0.399-0.208-0.582-0.302c-0.029-0.015-0.057-0.029-0.086-0.044c-0.161-0.082-0.313-0.159-0.455-0.23  c-0.019-0.01-0.039-0.02-0.058-0.029c-0.315-0.157-0.577-0.284-0.779-0.381c-0.015-0.007-0.028-0.013-0.041-0.019  c-0.005-0.003-0.01-0.005-0.016-0.007c-0.075-0.036-0.141-0.067-0.197-0.093c-0.015-0.007-0.029-0.014-0.042-0.02  c-0.005-0.002-0.01-0.005-0.015-0.007c-0.041-0.019-0.073-0.034-0.099-0.046c-0.015-0.007-0.035-0.016-0.046-0.021  c-0.025-0.011-0.04-0.018-0.04-0.018s0.014,0.027,0.025,0.046l0.001,0.002c0.027,0.051,0.082,0.154,0.166,0.316  c0.003,0.006,0.006,0.012,0.009,0.017c0.012,0.023,0.026,0.051,0.04,0.077l0.001,0.001c0.235,0.457,0.626,1.241,1.097,2.266  c0,0.001,0.001,0.001,0.001,0.002c0.013,0.028,0.026,0.056,0.039,0.085c0,0,0,0.001,0.001,0.002c0.365,0.799,0.77,1.733,1.183,2.764  v0.001c0.014,0.035,0.028,0.069,0.042,0.104c0,0.001,0.001,0.001,0.001,0.002c0.097,0.244,0.194,0.494,0.291,0.748  c0.017,0.045,0.034,0.09,0.051,0.135c0.098,0.259,0.196,0.521,0.293,0.789c0.004,0.011,0.008,0.022,0.012,0.033  c1.473,4.077,2.71,9.062,1.892,12.89l0,0c-0.002,0.009-0.004,0.018-0.006,0.027v0.001c-0.172,0.796-0.434,1.539-0.802,2.214l0,0l0,0  c-0.132,0.241-0.281,0.471-0.441,0.694c-0.026,0.036-0.05,0.073-0.077,0.109c-0.147,0.197-0.309,0.383-0.48,0.564  c-0.053,0.056-0.107,0.112-0.163,0.167c-0.161,0.158-0.333,0.308-0.515,0.451c-0.086,0.068-0.176,0.132-0.266,0.196  c-0.173,0.122-0.351,0.241-0.542,0.35c-0.124,0.071-0.257,0.136-0.388,0.201c-0.181,0.09-0.363,0.18-0.559,0.258  c-0.171,0.069-0.357,0.127-0.54,0.187s-0.36,0.123-0.554,0.174c-0.241,0.063-0.504,0.109-0.764,0.157  c-0.163,0.03-0.316,0.068-0.486,0.092c-0.447,0.063-0.916,0.107-1.417,0.126c-32.293,1.245-14.951-62.445-14.951-62.445  s-15.681,15.69-25.276,33.156c0.605,18.397,5.986,42.681,27.312,45.136c7.229,0.832,13.446,0.695,18.79-0.119  c6.24-0.95,11.891,3.882,11.863,10.194c-0.017,3.885-0.526,7.986-1.635,12.305c-11.034,42.955-35.46,51.141-29.556,63.447  c6.002,12.511,16.914,15.897,25.512,16.421c-2.665,2.809-5.748,5.447-9.335,7.81h24.095  C328.45,357.158,322.862,316.956,322.862,316.956z"/>
<path style="fill:#FF4D4A;" d="M349.326,373.105H162.674c-15.17,0-27.468,12.298-27.468,27.468v12.867h241.588v-12.867  C376.794,385.403,364.496,373.105,349.326,373.105z"/>
<path style="fill:#E13F33;" d="M349.326,373.105h-13.933c5.174,4.995,8.396,11.998,8.396,19.758v20.578h33.004v-12.867  C376.794,385.403,364.496,373.105,349.326,373.105z"/>
<path style="fill:#D96B37;" d="M496.796,36.559H15.204c-3.357,0-6.079,2.722-6.079,6.079v37.105c0,3.357,2.722,6.079,6.079,6.079  h481.592c3.357,0,6.079-2.722,6.079-6.079V42.638C502.875,39.28,500.153,36.559,496.796,36.559z"/>
<path style="fill:#B14418;" d="M496.796,36.559h-27.169v49.263h27.169c3.357,0,6.079-2.722,6.079-6.079V42.638  C502.875,39.28,500.153,36.559,496.796,36.559z"/>
<path style="fill:#D96B37;" d="M479.378,410.187H32.622c-2.783,0-5.039,2.256-5.039,5.039v28.433h456.833v-28.433  C484.416,412.443,482.161,410.187,479.378,410.187z"/>
<path style="fill:#B14418;" d="M479.378,410.187h-33.004c2.783,0,5.039,2.256,5.039,5.039v14.016c0,2.462-1.996,4.458-4.458,4.458  H27.584v9.959h423.829h33.004V433.7v-18.474C484.416,412.443,482.161,410.187,479.378,410.187z"/>
<path style="fill:#D96B37;" d="M498.821,441.972H13.179c-3.286,0-5.951,2.664-5.951,5.951v21.57c0,3.286,2.664,5.951,5.951,5.951  h485.643c3.286,0,5.951-2.664,5.951-5.951v-21.57C504.772,444.636,502.108,441.972,498.821,441.972z"/>
<path style="fill:#B14418;" d="M498.821,441.972h-27.054v18.171c0,2.462-1.996,4.458-4.458,4.458H13.179  c-3.286,0-5.951-2.664-5.951-5.951v10.843c0,3.286,2.664,5.951,5.951,5.951h452.638h33.004c3.286,0,5.951-2.664,5.951-5.951V458.65  v-10.728C504.772,444.636,502.108,441.972,498.821,441.972z"/>
<path style="fill:#1A1A1A;" d="M498.821,434.743h-7.177v-19.518c0-6.764-5.503-12.267-12.267-12.267h-19.171V93.051h36.589  c7.338,0,13.308-5.97,13.308-13.308V42.638c0-7.338-5.97-13.308-13.308-13.308H393.982c-3.992,0-7.228,3.236-7.228,7.228  s3.236,7.228,7.228,7.228h101.665v34.807h-42.668H59.021H16.353V43.787h343.283c3.992,0,7.228-3.236,7.228-7.228  s-3.236-7.228-7.228-7.228H15.204c-7.338,0-13.308,5.97-13.308,13.308v37.105c0,7.338,5.97,13.308,13.308,13.308h36.589v137.952  c0,3.992,3.236,7.228,7.228,7.228s7.228-3.236,7.228-7.228V93.051H445.75v309.908h-29.015V279.893  c0-88.629-72.105-160.735-160.735-160.735S95.265,191.263,95.265,279.893v123.066H66.25v-137.14c0-3.992-3.236-7.228-7.228-7.228  s-7.228,3.236-7.228,7.228v137.14H32.622c-6.764,0-12.267,5.503-12.267,12.267v19.518h-7.177C5.912,434.743,0,440.655,0,447.922  v21.57c0,7.267,5.912,13.179,13.179,13.179h485.643c7.266,0,13.179-5.912,13.179-13.179v-21.57  C512,440.655,506.088,434.743,498.821,434.743z M109.722,279.893c0-80.658,65.62-146.278,146.278-146.278  s146.278,65.62,146.278,146.278v123.066h-18.256v-2.386c0-19.132-15.565-34.696-34.696-34.696h-30.212  c14.484-22.306,11.091-48.593,10.907-49.915c-0.426-3.065-2.756-5.52-5.796-6.104c-3.036-0.583-6.114,0.832-7.645,3.521  c-0.052,0.091-5.266,9.213-12.152,18.254c-9.892,12.988-15.375,15.572-17.22,16.085c1.154-1.891,3.38-4.733,5.264-7.138  c7.688-9.814,19.307-24.645,25.568-49.017c5.181-20.171-0.494-39.275-16.413-55.247c-11.532-11.571-24.444-17.389-24.988-17.631  c-2.827-1.256-6.137-0.572-8.238,1.696c-2.102,2.269-2.526,5.628-1.057,8.35c3.083,5.714,5.202,13.147,4.442,15.419  c-0.202,0.06-0.586,0.142-1.223,0.166c-0.218,0.008-0.435,0.013-0.647,0.013c-0.001,0-0.001,0-0.001,0  c-4.294,0-6.177-1.741-7.337-3.258c-7.151-9.347-3.619-35.679,0.287-50.077c0.861-3.162-0.513-6.508-3.348-8.152  s-6.421-1.175-8.739,1.143c-3.934,3.935-38.316,39.211-34.343,65.696c1.94,12.934,11.019,21.827,18.314,28.973  c3.576,3.503,8.474,8.301,8.485,10.512c0.003,0.648-0.721,1.76-1.937,2.977c-1.363,1.363-2.438,1.547-3.309,1.547  c-0.001,0,0,0-0.001,0c-7.636,0-20.796-14.798-27.282-24.796c-1.192-1.842-3.156-3.043-5.338-3.265  c-2.182-0.22-4.348,0.56-5.886,2.125c-0.771,0.785-18.877,19.702-17.932,61.581c0.014,0.604,0.034,1.204,0.062,1.8  c0.585,12.562,4.801,24.482,12.129,34.743h-31.067c-19.132,0-34.696,15.565-34.696,34.696v2.386h-18.256V279.893H109.722z   M244.867,268.324c-6.348-6.218-12.913-12.648-14.134-20.79c-1.319-8.794,5.303-21.714,13.588-33.409  c-0.942,12.675-0.002,26.859,6.768,35.718c4.47,5.85,11.021,8.969,18.83,8.94c0.393,0,0.796-0.008,1.201-0.023  c8.023-0.309,11.682-4.681,13.149-7.259c1.655-2.909,2.185-6.28,2.048-9.703c11.15,9.142,23.27,24.566,17.721,46.166  c-5.507,21.439-15.586,34.305-22.945,43.699c-3.57,4.557-6.39,8.157-7.896,11.803c-2.381,5.768-1.056,11.337,3.636,15.279  c2.769,2.326,6.111,3.555,9.668,3.555c0.002,0,0.004,0,0.006,0c8.049-0.003,16.662-5.974,26.933-18.728  c-2.167,7.578-6.048,15.628-12.883,22.304h-87.661c-10.265-9.583-16.222-22.066-16.843-35.414c-0.023-0.48-0.04-0.964-0.05-1.453  c-0.484-21.464,4.681-35.686,8.828-43.563c7.518,9.523,20.251,22.699,33.158,22.698c0.001,0,0.004,0,0.005,0  c5.069-0.001,9.747-2.001,13.528-5.782c4.119-4.119,6.195-8.585,6.171-13.274C257.65,280.846,251.441,274.764,244.867,268.324z   M210.14,380.333h93.235h45.951c11.16,0,20.239,9.079,20.239,20.239v2.386H142.434v-2.386c0-11.16,9.079-20.239,20.239-20.239  H210.14z M34.812,417.415h24.209h76.184h241.588h76.184h24.209v17.328H34.812V417.415z M497.543,468.215H14.457V449.2h13.127  h456.833h13.127v19.015H497.543z"/>
<g>
</g>
<g>
</g>
<g>
</g>
<g>
</g>
<g>
</g>
<g>
</g>
<g>
</g>
<g>
</g>
<g>
</g>
<g>
</g>
<g>
</g>
<g>
</g>
<g>
</g>
<g>
</g>
<g>
</g>
</svg>
