<?xml version="1.0" encoding="iso-8859-1"?>
<!-- Generator: Adobe Illustrator 19.0.0, SVG Export Plug-In . SVG Version: 6.00 Build 0)  -->
<svg xmlns="http://www.w3.org/2000/svg" xmlns:xlink="http://www.w3.org/1999/xlink" version="1.1" id="Capa_1" x="0px" y="0px" viewBox="0 0 512 512" style="enable-background:new 0 0 512 512;" xml:space="preserve">
<path style="fill:#0072A2;" d="M58.635,504.713c-28.314,0-51.349-23.035-51.349-51.349V58.636c0-28.314,23.035-51.349,51.349-51.349  h394.729c28.314,0,51.349,23.035,51.349,51.349v394.729c0,28.314-23.036,51.349-51.349,51.349L58.635,504.713L58.635,504.713z"/>
<path style="fill:#006289;" d="M504.624,55.7c-0.017-0.307-0.047-0.61-0.07-0.915c-0.05-0.67-0.108-1.337-0.184-1.999  c-0.039-0.344-0.085-0.686-0.131-1.028c-0.085-0.633-0.182-1.262-0.29-1.888c-0.056-0.327-0.113-0.653-0.175-0.978  c-0.132-0.686-0.282-1.365-0.441-2.041c-0.058-0.245-0.109-0.492-0.17-0.735c-0.47-1.865-1.041-3.689-1.708-5.467  c-0.07-0.186-0.146-0.367-0.218-0.552c-0.275-0.706-0.562-1.405-0.866-2.095c-0.094-0.214-0.192-0.426-0.289-0.639  c-0.311-0.68-0.636-1.352-0.975-2.015c-0.09-0.177-0.18-0.355-0.272-0.531c-0.409-0.777-0.835-1.545-1.283-2.298  c-0.026-0.043-0.049-0.087-0.075-0.13c-1.013-1.695-2.121-3.327-3.317-4.889c-0.001-0.002-0.003-0.004-0.005-0.006  c-0.582-0.76-1.187-1.501-1.809-2.227c-0.045-0.052-0.09-0.104-0.135-0.156c-0.611-0.706-1.239-1.397-1.887-2.069  c-0.018-0.019-0.037-0.039-0.055-0.058c-2.053-2.123-4.287-4.071-6.677-5.817c-0.002-0.003-0.004-0.006-0.006-0.01  c-4.348-3.176-9.209-5.685-14.437-7.378c1.536,8.328,2.368,18.986,2.368,24.353v407.431c0,22.993-10.768,38.646-51.349,38.646  H34.104c-7.824,0-15.241-1.766-21.885-4.91c0.258,0.543,0.53,1.077,0.807,1.609c0.053,0.102,0.104,0.205,0.157,0.307  c0.297,0.561,0.605,1.117,0.921,1.666c8.87,15.419,25.502,25.831,44.531,25.831h386.061h8.667c28.314,0,51.349-23.035,51.349-51.349  V58.636C504.713,57.65,504.679,56.672,504.624,55.7z"/>
<path style="fill:#A0D860;" d="M446.994,467.302H65.005c-11.216,0-20.308-9.092-20.308-20.308V65.006  c0-11.216,9.092-20.308,20.308-20.308h381.989c11.216,0,20.308,9.092,20.308,20.308v381.989  C467.302,458.21,458.21,467.302,446.994,467.302z"/>
<path style="fill:#61C979;" d="M446.994,44.698h-33.55c11.216,0,20.308,9.092,20.308,20.308v381.989  c0,11.216-9.092,20.308-20.308,20.308h33.55c11.216,0,20.308-9.092,20.308-20.308V65.006  C467.302,53.79,458.21,44.698,446.994,44.698z"/>
<circle style="fill:#0072A2;" cx="256" cy="256" r="181.03"/>
<g>
	<circle style="fill:#FF6D3A;" cx="255.93" cy="255.69" r="41.518"/>
	<circle style="fill:#FF6D3A;" cx="255.93" cy="255.69" r="41.518"/>
</g>
<path style="fill:#006289;" d="M256,74.97c-4.059,0-8.084,0.147-12.077,0.411C338.271,81.597,412.876,160.079,412.876,256  S338.27,430.403,243.923,436.619c3.993,0.263,8.017,0.411,12.077,0.411c99.98,0,181.03-81.05,181.03-181.03S355.98,74.97,256,74.97z  "/>
<g>
	<path style="fill:#F7F9F9;" d="M350.474,130.141c-15.301-30.38-104.923-37.819-132.52-2.48   c-21.931,28.084,3.417,77.895,14.751,97.165c6.465-4.874,14.509-7.766,23.229-7.766c14.033,0,26.316,7.484,33.082,18.676   C325.311,207.132,364.302,157.596,350.474,130.141z"/>
	<path style="fill:#F7F9F9;" d="M384.979,290.049c-12.525-33.359-68.245-37.707-90.599-38.087c0.117,1.227,0.183,2.469,0.183,3.727   c0,21.335-17.295,38.63-38.63,38.63c-0.077,0-0.153-0.005-0.23-0.006c5.477,45.888,27.41,104.995,58.049,107.514   C347.654,404.615,400.741,332.026,384.979,290.049z"/>
	<path style="fill:#F7F9F9;" d="M217.304,255.69c0-7.014,1.879-13.585,5.146-19.254c-42.618-17.873-104.855-27.951-122.16-2.542   c-19.147,28.114,17.808,110.1,62.097,117.097c35.195,5.56,66.462-40.76,77.82-60.018   C226.713,284.948,217.304,271.422,217.304,255.69z"/>
</g>
<g>
	<path style="fill:#E4E4E4;" d="M284.505,104.135l-21.416,113.601c10.988,2.06,20.341,8.759,25.926,18.001   c36.296-28.605,75.287-78.141,61.458-105.596C342.427,114.165,313.829,104.539,284.505,104.135z"/>
	<path style="fill:#E4E4E4;" d="M313.753,402.314c17.767,1.461,40.799-17.785,56.433-42.474l-85.643-77.706   c-7.067,7.784-17.267,12.672-28.609,12.672c-0.077,0-0.153-0.005-0.23-0.006C261.181,340.688,283.114,399.795,313.753,402.314z"/>
	<path style="fill:#E4E4E4;" d="M217.304,255.69c0-7.014,1.879-13.585,5.146-19.254c-42.618-17.873-104.855-27.951-122.16-2.542   c-8.687,12.755-5.825,36.599,4.03,59.498l114.138-28.383C217.716,262.023,217.304,258.906,217.304,255.69z"/>
</g>
<circle style="fill:#FF4D4A;" cx="255.93" cy="255.69" r="41.518"/>
<path style="fill:#E13F33;" d="M255.934,214.172c-4.566,0-8.955,0.748-13.064,2.11c16.527,5.477,28.454,21.045,28.454,39.409  s-11.927,33.932-28.454,39.409c4.109,1.362,8.498,2.11,13.064,2.11c22.93,0,41.519-18.589,41.519-41.519  S278.864,214.172,255.934,214.172z"/>
<circle style="fill:#F8F5EE;" cx="255.93" cy="255.69" r="15.389"/>
<circle style="fill:#E4E4E4;" cx="418.25" cy="87.92" r="23.641"/>
<g>
	<path style="fill:#1A1A1A;" d="M453.364,0H58.636C26.304,0,0,26.304,0,58.636v175.828c0,4.024,3.262,7.287,7.287,7.287   s7.287-3.262,7.287-7.287V58.636c0-24.296,19.767-44.062,44.063-44.062h394.728c24.296,0,44.063,19.766,44.063,44.062v394.729   c0,24.296-19.767,44.062-44.063,44.062H58.636c-24.296,0-44.063-19.766-44.063-44.062V269.521c0-4.024-3.262-7.286-7.287-7.286   S0,265.497,0,269.521v183.844C0,485.696,26.304,512,58.636,512h394.728C485.696,512,512,485.696,512,453.364V58.636   C512,26.304,485.696,0,453.364,0z"/>
	<path style="fill:#1A1A1A;" d="M446.994,474.589c15.216,0,27.595-12.379,27.595-27.594V65.006   c0-15.216-12.379-27.594-27.595-27.594H65.006c-15.216,0-27.595,12.379-27.595,27.594v381.989   c0,15.216,12.379,27.594,27.595,27.594H446.994z M51.984,446.994V65.006c0-7.18,5.842-13.021,13.022-13.021h381.988   c7.18,0,13.022,5.842,13.022,13.021v381.989c0,7.18-5.842,13.021-13.022,13.021H65.006   C57.825,460.016,51.984,454.174,51.984,446.994z"/>
	<path style="fill:#1A1A1A;" d="M256,444.316c103.838,0,188.317-84.478,188.317-188.316S359.838,67.684,256,67.684   S67.683,152.162,67.683,256S152.161,444.316,256,444.316z M256,82.257c95.802,0,173.744,77.941,173.744,173.743   S351.802,429.743,256,429.743S82.257,351.802,82.257,256S160.198,82.257,256,82.257z"/>
	<path style="fill:#1A1A1A;" d="M255.934,278.366c12.504,0,22.676-10.172,22.676-22.676s-10.172-22.676-22.676-22.676   s-22.676,10.172-22.676,22.676S243.43,278.366,255.934,278.366z M255.934,247.587c4.468,0,8.103,3.635,8.103,8.103   c0,4.468-3.635,8.103-8.103,8.103c-4.468,0-8.103-3.635-8.103-8.103S251.465,247.587,255.934,247.587z"/>
	<path style="fill:#1A1A1A;" d="M168.257,358.737c0.002,0-0.001,0,0.001,0c31.788,0,58.64-33.223,73.477-56.354   c2.576,0.785,5.244,1.353,7.981,1.703c6.826,42.732,28.314,102.117,63.44,105.004c0.824,0.068,1.673,0.102,2.52,0.102   c0.004,0,0.005,0,0.009,0c21.373,0,43.61-21.1,57.292-40.846c15.421-22.256,28.464-55.185,18.824-80.858   c-12.331-32.841-58.184-40.859-88.256-42.485c-0.721-3.213-1.759-6.305-3.08-9.245c9.248-7.877,18.238-16.71,26.239-25.811   c2.657-3.022,2.361-7.627-0.662-10.283c-3.023-2.658-7.626-2.361-10.283,0.662c-7.111,8.09-15.049,15.959-23.236,23.053   c-7.022-7.99-16.383-13.393-26.762-15.498c-0.008-0.002-0.017-0.003-0.025-0.005c-0.767-0.155-1.539-0.296-2.317-0.415   c-0.174-0.027-0.35-0.045-0.525-0.07c-0.63-0.089-1.261-0.177-1.897-0.242c-0.384-0.04-0.772-0.062-1.158-0.092   c-0.446-0.035-0.89-0.079-1.339-0.102c-0.85-0.044-1.705-0.068-2.566-0.068c-0.904,0-1.801,0.029-2.693,0.078   c-0.35,0.019-0.697,0.053-1.046,0.08c-0.528,0.04-1.055,0.081-1.578,0.138c-0.449,0.048-0.895,0.11-1.342,0.171   c-0.403,0.055-0.805,0.111-1.204,0.176c-0.514,0.083-1.025,0.176-1.535,0.275c-0.303,0.059-0.604,0.122-0.904,0.187   c-0.58,0.124-1.158,0.255-1.732,0.401c-0.168,0.043-0.333,0.09-0.5,0.135c-2.952,0.782-5.82,1.839-8.578,3.169   c-0.012,0.006-0.024,0.011-0.036,0.017c-0.275,0.133-0.555,0.251-0.828,0.389c-10.944-20.76-26.823-58.744-10.259-79.954   c13.618-17.438,45.896-22.663,71.843-20.107c23.7,2.335,43.161,10.927,48.426,21.38c4.492,8.918,1.524,23.113-8.358,39.97   c-2.035,3.472-0.87,7.936,2.601,9.971c3.472,2.035,7.936,0.871,9.971-2.601c12.649-21.577,15.693-40.214,8.801-53.895   c-7.77-15.427-30.205-26.391-60.013-29.328c-27.726-2.73-66.564,2.344-84.758,25.64c-21.598,27.657-4.507,70.983,9.789,97.486   c-1.838,1.781-3.543,3.698-5.085,5.747c-25.276-9.496-52.72-15.095-74.485-15.095c-23.608,0-39.812,6.217-48.163,18.479   c-9.724,14.277-8.432,39.214,3.456,66.707c11.058,25.575,34.331,57.076,63.527,61.688   C163.557,358.552,165.914,358.737,168.257,358.737z M295.646,284.006c0.004-0.006,0.008-0.012,0.013-0.018   c1.86-2.603,3.469-5.395,4.795-8.342c0.058-0.129,0.118-0.256,0.174-0.385c0.207-0.471,0.405-0.946,0.597-1.425   c0.081-0.202,0.161-0.404,0.239-0.606c0.173-0.448,0.342-0.898,0.502-1.353c0.085-0.242,0.165-0.486,0.247-0.729   c0.146-0.436,0.292-0.871,0.426-1.312c0.085-0.28,0.16-0.563,0.24-0.845c0.182-0.641,0.352-1.286,0.508-1.937   c0.107-0.446,0.216-0.891,0.31-1.342c0.067-0.321,0.123-0.646,0.184-0.97c0.08-0.426,0.16-0.852,0.23-1.282   c0.051-0.32,0.096-0.642,0.141-0.964c0.063-0.445,0.12-0.892,0.171-1.341c0.035-0.31,0.067-0.62,0.096-0.932   c0.017-0.187,0.042-0.371,0.057-0.558c23.421,1.488,64.119,7.747,73.58,32.944c6.312,16.811-0.423,43.281-17.16,67.436   c-14.33,20.681-32.538,34.575-45.313,34.573c-0.001,0-0.004,0-0.005,0c-0.452,0-0.899-0.018-1.33-0.053   c-22.441-1.845-42.661-47.193-49.931-90.814c0.188-0.033,0.373-0.076,0.56-0.111c0.412-0.078,0.823-0.156,1.231-0.244   c0.288-0.062,0.573-0.132,0.859-0.199c0.444-0.104,0.889-0.206,1.328-0.322c0.053-0.014,0.104-0.031,0.157-0.045   c1.196-0.321,2.373-0.688,3.531-1.095c0.069-0.024,0.14-0.046,0.209-0.071c0.521-0.186,1.035-0.386,1.548-0.589   c0.146-0.058,0.292-0.114,0.437-0.173c0.508-0.207,1.01-0.423,1.509-0.647c0.13-0.058,0.26-0.117,0.39-0.177   c0.522-0.239,1.039-0.485,1.551-0.742c0.061-0.031,0.122-0.063,0.184-0.094C284.985,295.661,291.068,290.41,295.646,284.006z    M221.767,253.655c0.01-0.172,0.026-0.342,0.039-0.514c0.04-0.53,0.089-1.059,0.154-1.586c0.019-0.157,0.039-0.313,0.06-0.469   c0.083-0.611,0.18-1.22,0.296-1.826c0.01-0.052,0.018-0.106,0.028-0.158c0.269-1.372,0.625-2.726,1.059-4.054   c0.038-0.115,0.078-0.229,0.117-0.344c0.18-0.531,0.374-1.057,0.58-1.578c0.056-0.142,0.11-0.286,0.169-0.427   c0.247-0.602,0.509-1.199,0.79-1.787c0.03-0.063,0.062-0.124,0.093-0.187c0.258-0.53,0.533-1.051,0.818-1.567   c2.505-4.523,6.006-8.417,10.202-11.395c0.37-0.263,0.744-0.518,1.122-0.764c0.291-0.19,0.58-0.382,0.877-0.563   c0.53-0.323,1.069-0.628,1.613-0.921c0.336-0.181,0.677-0.354,1.02-0.523c0.366-0.181,0.736-0.352,1.108-0.52   c0.507-0.229,1.021-0.445,1.541-0.65c0.376-0.148,0.753-0.291,1.134-0.425c0.344-0.121,0.688-0.241,1.037-0.351   c0.619-0.195,1.242-0.375,1.872-0.535c0.288-0.073,0.581-0.136,0.872-0.202c0.538-0.121,1.079-0.231,1.623-0.326   c0.218-0.038,0.434-0.083,0.653-0.117c0.744-0.115,1.495-0.202,2.25-0.268c0.205-0.018,0.412-0.033,0.618-0.047   c0.803-0.056,1.609-0.095,2.421-0.095c0.675,0,1.345,0.026,2.012,0.064c0.238,0.014,0.474,0.035,0.711,0.054   c0.418,0.033,0.834,0.072,1.249,0.12c0.298,0.035,0.596,0.071,0.892,0.114c0.322,0.045,0.641,0.1,0.961,0.154   c0.355,0.061,0.712,0.118,1.063,0.19c0.009,0.002,0.018,0.004,0.028,0.006c8.28,1.705,15.476,6.412,20.401,12.927   c0.055,0.074,0.112,0.146,0.167,0.22c0.268,0.361,0.528,0.728,0.783,1.1c0.123,0.18,0.241,0.363,0.361,0.546   c3.014,4.589,4.953,9.939,5.462,15.697c0,0.005,0,0.01,0.001,0.015c0.046,0.532,0.08,1.037,0.104,1.526   c0.022,0.497,0.038,0.996,0.038,1.498c0,0.588-0.015,1.173-0.045,1.754c-0.916,18.004-15.849,32.415-34.074,32.475   c-0.005,0-0.009,0.001-0.014,0.001c-0.034,0-0.067,0.003-0.1,0.003c-5.144,0-10.023-1.148-14.405-3.189   c-0.663-0.308-1.315-0.632-1.951-0.979c-0.107-0.058-0.21-0.123-0.316-0.182c-0.527-0.295-1.043-0.604-1.551-0.925   c-0.196-0.124-0.392-0.248-0.586-0.376c-0.569-0.375-1.129-0.762-1.672-1.168c-0.125-0.094-0.244-0.194-0.368-0.289   c-0.454-0.35-0.898-0.71-1.332-1.081c-0.167-0.143-0.334-0.286-0.499-0.432c-0.528-0.469-1.047-0.947-1.543-1.446   c-0.021-0.021-0.04-0.043-0.061-0.064c-0.509-0.514-0.999-1.046-1.473-1.59c-0.077-0.089-0.154-0.177-0.231-0.267   c-4.159-4.866-6.933-10.851-7.881-17.289c-0.002-0.011-0.003-0.022-0.004-0.034c-0.104-0.714-0.179-1.435-0.238-2.159   c-0.013-0.167-0.027-0.335-0.038-0.503c-0.05-0.749-0.083-1.502-0.083-2.26C221.702,255.011,221.727,254.332,221.767,253.655z    M111.099,290.716c-9.452-21.86-11.376-43.046-4.787-52.721c6.816-10.008,23.404-12.109,36.119-12.109   c19.588,0,44.346,4.98,67.514,13.472c-0.058,0.164-0.108,0.331-0.164,0.496c-0.583,1.695-1.076,3.431-1.471,5.204   c-0.027,0.119-0.057,0.237-0.082,0.356c-0.108,0.499-0.202,1.003-0.294,1.508c-0.045,0.244-0.09,0.487-0.131,0.732   c-0.074,0.447-0.141,0.895-0.203,1.346c-0.045,0.327-0.086,0.654-0.125,0.981c-0.046,0.394-0.091,0.788-0.128,1.185   c-0.04,0.432-0.07,0.865-0.099,1.299c-0.02,0.31-0.046,0.619-0.06,0.931c-0.036,0.763-0.058,1.528-0.058,2.294   c0,0.953,0.035,1.898,0.089,2.837c0.014,0.234,0.036,0.466,0.053,0.7c0.053,0.741,0.121,1.478,0.208,2.209   c0.025,0.206,0.051,0.411,0.079,0.616c0.109,0.829,0.237,1.652,0.387,2.468c0.015,0.083,0.029,0.166,0.044,0.248   c1.301,6.882,4.048,13.256,7.917,18.795c0.026,0.037,0.053,0.074,0.079,0.112c0.495,0.704,1.008,1.394,1.539,2.07   c0.103,0.132,0.205,0.263,0.309,0.394c0.488,0.609,0.99,1.207,1.506,1.792c0.111,0.126,0.218,0.256,0.33,0.381   c0.596,0.662,1.209,1.31,1.84,1.939c0.21,0.21,0.431,0.409,0.646,0.616c0.416,0.4,0.835,0.797,1.265,1.182   c0.313,0.281,0.634,0.554,0.955,0.828c0.352,0.299,0.708,0.593,1.068,0.882c0.349,0.28,0.698,0.558,1.055,0.829   c0.375,0.284,0.758,0.557,1.141,0.831c0.282,0.202,0.554,0.416,0.841,0.612c-11.923,18.21-35.312,48.132-60.223,48.132   c-1.584,0-3.177-0.124-4.733-0.371C141.671,340.341,121.448,314.648,111.099,290.716z"/>
	<path style="fill:#1A1A1A;" d="M418.246,118.852c17.054,0,30.927-13.874,30.927-30.927S435.3,56.997,418.246,56.997   s-30.927,13.874-30.927,30.927S401.193,118.852,418.246,118.852z M418.246,71.57c9.018,0,16.354,7.336,16.354,16.354   s-7.336,16.354-16.354,16.354s-16.354-7.336-16.354-16.354S409.228,71.57,418.246,71.57z"/>
</g>
<g>
</g>
<g>
</g>
<g>
</g>
<g>
</g>
<g>
</g>
<g>
</g>
<g>
</g>
<g>
</g>
<g>
</g>
<g>
</g>
<g>
</g>
<g>
</g>
<g>
</g>
<g>
</g>
<g>
</g>
</svg>
