<?xml version="1.0" encoding="iso-8859-1"?>
<!-- Generator: Adobe Illustrator 19.0.0, SVG Export Plug-In . SVG Version: 6.00 Build 0)  -->
<svg xmlns="http://www.w3.org/2000/svg" xmlns:xlink="http://www.w3.org/1999/xlink" version="1.1" id="Capa_1" x="0px" y="0px" viewBox="0 0 512 512" style="enable-background:new 0 0 512 512;" xml:space="preserve">
<path style="fill:#D96B37;" d="M166.439,512H65.106c-19.698,0-35.666-15.968-35.666-35.666V35.666C29.439,15.968,45.408,0,65.106,0  h101.333c19.698,0,35.666,15.968,35.666,35.666v440.667C202.105,496.032,186.137,512,166.439,512z"/>
<path style="fill:#B14418;" d="M166.439,0h-34.178c19.698,0,35.666,15.968,35.666,35.666v440.667  c0,19.698-15.968,35.666-35.666,35.666h34.178c19.698,0,35.666-15.968,35.666-35.666V35.666C202.105,15.968,186.137,0,166.439,0z"/>
<path style="fill:#775146;" d="M143.792,352.215c0-18.897-21.813-32.7-41.634-17.601c-11.264,14.802-6.433,30.674,4.583,37.793  v47.856c11.484,13.069,26.042,5.105,26.042-6.259v-41.597C139.405,368.127,143.792,360.686,143.792,352.215z"/>
<path style="fill:#FFB427;" d="M458.009,110.466c0,0-327.955-20.378-330.02-20.378c-25.676,0-46.49,20.814-46.49,46.49  s20.814,46.49,46.49,46.49c2.065,0,330.02-20.378,330.02-20.378c13.797-0.85,24.552-12.289,24.552-26.112l0,0  C482.561,122.755,471.806,111.317,458.009,110.466z"/>
<path style="fill:#FF9D00;" d="M482.164,132.093c0.001-0.006,0.001-0.012,0.002-0.018c-0.824-4.742-2.922-9.06-5.946-12.569  c-4.453,5.179-10.899,8.614-18.212,9.064c0,0-327.955,20.378-330.02,20.378c-19.654,0-36.44-12.205-43.24-29.442  c-1.563,3.955-2.606,8.171-3.029,12.572c0,0.005,0.001,0.011,0.001,0.016c-0.144,1.476-0.222,2.971-0.222,4.485  c0,6.419,1.301,12.534,3.653,18.096c0.882,2.086,1.912,4.094,3.077,6.011c3.883,6.39,9.263,11.77,15.653,15.653  c7.029,4.271,15.281,6.73,24.107,6.73c2.065,0,330.02-20.378,330.02-20.378c3.881-0.239,7.52-1.316,10.748-3.048  c0.359-0.192,0.712-0.393,1.06-0.601c0.553-0.331,1.089-0.687,1.615-1.057c0.618-0.435,1.215-0.895,1.792-1.38  c0.327-0.275,0.648-0.559,0.961-0.849c1.618-1.502,3.05-3.2,4.245-5.064c0.218-0.34,0.429-0.686,0.631-1.036  c2.228-3.855,3.499-8.325,3.499-13.077C482.561,135.049,482.418,133.552,482.164,132.093z"/>
<g>
	<path style="fill:#1A1A1A;" d="M452.711,107.336c-95.867-5.957-319.064-19.812-321.078-19.812   c-28.923,0-52.453,23.53-52.453,52.454c0,28.923,23.53,52.453,52.453,52.453c2.015,0,225.211-13.855,321.074-19.812   c17.211-1.06,30.692-15.398,30.692-32.641C483.398,122.735,469.917,108.397,452.711,107.336z M451.807,158.074   c-108.266,6.727-313.645,19.463-320.309,19.784c-20.826-0.073-37.746-17.037-37.746-37.88s16.92-37.808,37.746-37.88   c6.664,0.32,212.044,13.056,320.312,19.784c9.542,0.588,17.015,8.537,17.015,18.096S461.352,157.486,451.807,158.074z"/>
	<path style="fill:#1A1A1A;" d="M203.639,208.071c-4.024,0-7.287,3.262-7.287,7.287v254.704c0,15.089-12.276,27.365-27.364,27.365   H70.539c-15.089,0-27.364-12.276-27.364-27.365v-65.175c0-4.024-3.262-7.287-7.287-7.287s-7.287,3.262-7.287,7.287v65.175   c0,23.125,18.813,41.938,41.937,41.938h98.449c23.124,0,41.937-18.813,41.937-41.938V215.358   C210.926,211.333,207.663,208.071,203.639,208.071z"/>
	<path style="fill:#1A1A1A;" d="M35.888,377.605c4.024,0,7.287-3.262,7.287-7.287V41.937c0-15.089,12.276-27.364,27.364-27.364   h98.449c15.089,0,27.364,12.276,27.364,27.364v23.561c0,4.024,3.262,7.287,7.287,7.287c4.024,0,7.287-3.262,7.287-7.287V41.937   C210.926,18.813,192.112,0,168.988,0H70.539C47.415,0,28.602,18.813,28.602,41.937v328.381   C28.602,374.342,31.864,377.605,35.888,377.605z"/>
	<path style="fill:#1A1A1A;" d="M101.64,423.292c5.126,5.833,11.562,9.046,18.123,9.046l0,0c5.325,0,10.332-2.074,14.097-5.839   c3.766-3.766,5.839-8.772,5.839-14.098v-36.776c6.761-5.783,10.695-14.211,10.695-23.254c0-16.891-13.741-30.632-30.632-30.632   c-7.434,0-14.875,2.675-21.519,7.735c-0.521,0.397-0.986,0.862-1.383,1.384c-6.273,8.244-8.856,17.768-7.271,26.818   c1.223,6.991,4.883,13.343,10.236,17.942v42.864C99.827,420.253,100.471,421.963,101.64,423.292z M107.872,340.482   c3.854-2.731,7.948-4.17,11.891-4.17c8.855,0,16.059,7.204,16.059,16.059c0,5.472-2.753,10.517-7.364,13.497   c-2.077,1.342-3.332,3.647-3.332,6.12v40.413c0,1.433-0.558,2.78-1.571,3.793s-2.36,1.571-3.792,1.571   c-1.72,0-3.572-0.806-5.364-2.308v-43.469c0-2.473-1.254-4.777-3.332-6.12c-3.761-2.431-6.358-6.332-7.123-10.704   C103.103,350.352,104.46,345.294,107.872,340.482z"/>
</g>
<g>
</g>
<g>
</g>
<g>
</g>
<g>
</g>
<g>
</g>
<g>
</g>
<g>
</g>
<g>
</g>
<g>
</g>
<g>
</g>
<g>
</g>
<g>
</g>
<g>
</g>
<g>
</g>
<g>
</g>
</svg>
