<?xml version="1.0" encoding="iso-8859-1"?>
<!-- Generator: Adobe Illustrator 19.0.0, SVG Export Plug-In . SVG Version: 6.00 Build 0)  -->
<svg xmlns="http://www.w3.org/2000/svg" xmlns:xlink="http://www.w3.org/1999/xlink" version="1.1" id="Capa_1" x="0px" y="0px" viewBox="0 0 512.001 512.001" style="enable-background:new 0 0 512.001 512.001;" xml:space="preserve">
<path style="fill:#0072A2;" d="M267.079,345.236V56.358c0-27.101-21.97-49.072-49.072-49.072l0,0  c-27.102,0-49.072,21.97-49.072,49.072v288.877c0,8.604-3.349,16.855-9.292,23.077c-13.597,14.235-22.042,33.431-22.326,54.604  c-0.589,43.986,34.768,80.741,78.746,81.775c45.456,1.068,82.64-35.46,82.64-80.674c0-21.636-8.523-41.274-22.386-55.761  C270.388,362.059,267.079,353.813,267.079,345.236z"/>
<path style="fill:#006289;" d="M296.305,404.415c-0.627-2.51-1.371-4.973-2.228-7.384c-0.428-1.205-0.884-2.397-1.367-3.575  c-0.966-2.356-2.04-4.656-3.216-6.895c-0.588-1.119-1.202-2.223-1.84-3.31c-1.915-3.262-4.053-6.378-6.393-9.326  c-1.56-1.966-3.209-3.857-4.942-5.668c-1.483-1.549-2.801-3.227-3.946-5.005c-1.144-1.779-2.114-3.658-2.898-5.612  c-0.392-0.977-0.738-1.973-1.036-2.984c-0.894-3.033-1.359-6.203-1.359-9.419V56.358c0-6.441-1.254-12.587-3.51-18.222  c-0.209-0.523-0.426-1.042-0.652-1.555c-0.434-0.983-0.899-1.948-1.393-2.896c-0.258-0.494-0.524-0.983-0.798-1.467  c-2.974-5.252-6.877-9.908-11.503-13.725c-0.606-0.5-1.224-0.986-1.854-1.457c-1.26-0.942-2.566-1.825-3.915-2.644  c-1.349-0.82-2.741-1.576-4.171-2.265c-6.436-3.101-13.652-4.839-21.275-4.839c-1.453,0-2.885,0.086-4.306,0.209  c-0.023-0.002-0.047-0.003-0.07-0.005c-4.27,0.378-8.383,1.295-12.268,2.696c18.911,6.816,32.435,24.911,32.435,46.171v288.878  c0,8.577,3.308,16.823,9.239,23.02c13.864,14.487,22.386,34.125,22.386,55.761c0,38.859-27.479,71.267-64.058,78.939  c4.762,1.01,9.67,1.616,14.699,1.735c12.784,0.3,24.914-2.373,35.747-7.377c3.611-1.668,7.078-3.595,10.376-5.757  c1.1-0.721,2.18-1.468,3.242-2.24c2.123-1.544,4.167-3.189,6.126-4.929c2.939-2.609,5.686-5.429,8.218-8.436  c2.532-3.008,4.847-6.203,6.923-9.561c0.692-1.12,1.358-2.257,1.996-3.412c1.914-3.465,3.581-7.086,4.976-10.839  c1.861-5.004,3.239-10.242,4.079-15.658c0.42-2.708,0.705-5.461,0.848-8.251c0.072-1.395,0.108-2.8,0.108-4.212  C298.704,417.256,297.872,410.69,296.305,404.415z"/>
<path style="fill:#FF4D4A;" d="M218.008,481.393c-0.464,0-0.929-0.005-1.395-0.016c-31.284-0.735-56.395-26.821-55.975-58.148  c0.195-14.514,5.83-28.296,15.871-38.808c10.156-10.633,15.749-24.549,15.749-39.185V118.548c0-14.222,11.529-25.75,25.75-25.75l0,0  c14.222,0,25.75,11.529,25.75,25.75v226.688c0,14.657,5.58,28.56,15.713,39.146c10.261,10.723,15.913,24.8,15.913,39.636  c0,15.326-5.968,29.734-16.805,40.571C247.743,475.424,233.333,481.393,218.008,481.393  C218.007,481.393,218.009,481.393,218.008,481.393z"/>
<path style="fill:#E13F33;" d="M273.244,408.489c-0.144-0.514-0.297-1.025-0.455-1.534c-1.163-3.739-2.709-7.346-4.618-10.773  c-0.776-1.393-1.612-2.755-2.506-4.085c-1.828-2.719-3.888-5.306-6.194-7.716c-3.8-3.97-6.959-8.406-9.424-13.173  c-0.411-0.795-0.803-1.598-1.175-2.411c-3.348-7.311-5.114-15.317-5.114-23.562V118.548c0-4-0.912-7.787-2.539-11.164  c-0.181-0.375-0.37-0.746-0.569-1.11c-0.396-0.73-0.827-1.438-1.29-2.123s-0.957-1.347-1.482-1.982  c-0.787-0.954-1.642-1.85-2.556-2.681c-0.61-0.554-1.246-1.08-1.907-1.574c-0.661-0.494-1.346-0.958-2.054-1.388  c-0.708-0.43-1.438-0.827-2.189-1.189c-0.751-0.362-1.521-0.688-2.31-0.977c-1.183-0.433-2.407-0.782-3.664-1.039  c-1.676-0.343-3.412-0.523-5.19-0.523c-0.701,0-1.393,0.033-2.078,0.091c-0.021,0.002-0.042,0.003-0.064,0.005  c-0.689,0.06-1.371,0.147-2.044,0.257c-0.01-0.002-0.02-0.002-0.029-0.004c-4.709,0.776-8.986,2.829-12.466,5.792  c5.548,4.722,9.069,11.753,9.069,19.61v226.688c0,14.657,5.58,28.56,15.713,39.146c10.261,10.723,15.913,24.8,15.913,39.636  c0,15.326-5.968,29.734-16.805,40.571c-6.769,6.77-14.938,11.622-23.85,14.321c3.945,1.203,8.062,2.005,12.315,2.324  c0.007-0.001,0.014-0.001,0.022-0.001c0.946,0.071,1.897,0.119,2.855,0.143c0.018,0,0.036,0.002,0.054,0.003  c0.466,0.011,0.931,0.016,1.395,0.016c4.789,0,9.489-0.583,14.018-1.715c0.906-0.226,1.805-0.475,2.696-0.745  c1.783-0.54,3.536-1.167,5.254-1.879s3.401-1.508,5.044-2.387c4.107-2.197,7.962-4.91,11.485-8.105  c0.705-0.639,1.396-1.297,2.073-1.975s1.336-1.368,1.974-2.073c9.585-10.568,14.83-24.13,14.83-38.498  C275.384,418.703,274.646,413.49,273.244,408.489z"/>
<g>
	<path style="fill:#FF4D4A;" d="M364.265,59.635H309.13c-5.758,0-10.426-4.668-10.426-10.426l0,0   c0-5.758,4.668-10.426,10.426-10.426h55.135c5.758,0,10.426,4.668,10.426,10.426l0,0C374.691,54.967,370.023,59.635,364.265,59.635   z"/>
	<path style="fill:#FF4D4A;" d="M364.265,184.185H309.13c-5.758,0-10.426-4.668-10.426-10.426l0,0   c0-5.758,4.668-10.426,10.426-10.426h55.135c5.758,0,10.426,4.668,10.426,10.426l0,0   C374.691,179.518,370.023,184.185,364.265,184.185z"/>
</g>
<path style="fill:#ED5729;" d="M364.265,308.736H309.13c-5.758,0-10.426-4.668-10.426-10.426l0,0  c0-5.758,4.668-10.426,10.426-10.426h55.135c5.758,0,10.426,4.668,10.426,10.426l0,0  C374.691,304.068,370.023,308.736,364.265,308.736z"/>
<g>
	<path style="fill:#FF4D4A;" d="M341.316,121.91H309.13c-5.758,0-10.426-4.668-10.426-10.426l0,0   c0-5.758,4.668-10.426,10.426-10.426h32.186c5.758,0,10.426,4.668,10.426,10.426l0,0   C351.742,117.242,347.074,121.91,341.316,121.91z"/>
	<path style="fill:#FF4D4A;" d="M341.316,246.461H309.13c-5.758,0-10.426-4.668-10.426-10.426l0,0   c0-5.758,4.668-10.426,10.426-10.426h32.186c5.758,0,10.426,4.668,10.426,10.426l0,0   C351.742,241.793,347.074,246.461,341.316,246.461z"/>
</g>
<g>
	<path style="fill:#1A1A1A;" d="M274.366,345.236V56.358C274.366,25.282,249.084,0,218.008,0s-56.359,25.282-56.359,56.358v9.282   c0,4.024,3.262,7.287,7.287,7.287s7.287-3.262,7.287-7.287v-9.282c0-23.04,18.745-41.785,41.786-41.785   c23.04,0,41.785,18.745,41.785,41.785v288.878c0,10.505,3.999,20.47,11.261,28.058c13.132,13.722,20.364,31.735,20.364,50.723   c0,2.701-0.148,5.419-0.438,8.079c-0.438,4,2.45,7.598,6.451,8.036c0.268,0.029,0.536,0.044,0.801,0.044   c3.669,0,6.826-2.763,7.234-6.494c0.349-3.185,0.526-6.436,0.526-9.665c0-22.76-8.669-44.351-24.408-60.798   C276.928,358.356,274.366,351.969,274.366,345.236z"/>
	<path style="fill:#1A1A1A;" d="M290.91,459.42c-3.446-2.08-7.925-0.973-10.004,2.473c-13.595,22.523-38.343,36.149-64.671,35.513   c-40.033-0.941-72.168-34.313-71.632-74.392c0.25-18.579,7.462-36.218,20.31-49.669c7.292-7.635,11.308-17.618,11.308-28.11   V100.252c0-4.024-3.262-7.287-7.287-7.287s-7.287,3.262-7.287,7.287v244.984c0,6.725-2.583,13.133-7.274,18.044   c-15.399,16.122-24.045,37.267-24.343,59.54c-0.642,48.033,37.875,88.029,85.862,89.157c0.688,0.016,1.372,0.024,2.058,0.024   c30.736-0.001,59.497-16.178,75.431-42.576C295.462,465.979,294.355,461.499,290.91,459.42z"/>
	<path style="fill:#1A1A1A;" d="M218.008,85.511c-18.216,0-33.037,14.82-33.037,33.037v226.687c0,12.752-4.877,24.881-13.731,34.152   c-11.316,11.846-17.669,27.381-17.888,43.743c-0.472,35.305,27.829,64.702,63.09,65.531c0.523,0.012,1.045,0.018,1.565,0.018   c0.006,0,0.011,0,0.019,0c0.005,0,0.009,0,0.013,0c17.262-0.008,33.487-6.733,45.691-18.939   c12.214-12.212,18.939-28.45,18.939-45.723c0-16.722-6.369-32.588-17.935-44.675c-8.828-9.223-13.69-21.335-13.69-34.107V118.548   C251.045,100.331,236.224,85.511,218.008,85.511z M254.206,389.419c8.957,9.361,13.891,21.648,13.891,34.599   c0,13.38-5.21,25.958-14.671,35.418c-9.747,9.749-22.802,14.97-36.642,14.657c-27.307-0.642-49.227-23.416-48.861-50.766   c0.17-12.668,5.09-24.698,13.855-33.873c11.456-11.995,17.766-27.698,17.766-44.218V118.548c0-10.181,8.283-18.464,18.464-18.464   s18.464,8.283,18.464,18.464v226.688C236.472,361.78,242.771,377.472,254.206,389.419z"/>
	<path style="fill:#1A1A1A;" d="M309.13,66.921h55.135c9.767,0,17.713-7.946,17.713-17.713s-7.946-17.713-17.713-17.713H309.13   c-9.767,0-17.713,7.946-17.713,17.713S299.364,66.921,309.13,66.921z M309.13,46.069h55.135c1.732,0,3.139,1.408,3.139,3.139   s-1.408,3.139-3.139,3.139H309.13c-1.732,0-3.139-1.408-3.139-3.139S307.399,46.069,309.13,46.069z"/>
	<path style="fill:#1A1A1A;" d="M364.265,156.047H309.13c-9.767,0-17.713,7.946-17.713,17.713s7.946,17.713,17.713,17.713h55.135   c9.767,0,17.713-7.946,17.713-17.713C381.978,163.993,374.032,156.047,364.265,156.047z M364.265,176.899H309.13   c-1.732,0-3.139-1.408-3.139-3.139c0-1.731,1.408-3.139,3.139-3.139h55.135c1.732,0,3.139,1.408,3.139,3.139   C367.405,175.491,365.997,176.899,364.265,176.899z"/>
	<path style="fill:#1A1A1A;" d="M364.265,280.598H309.13c-9.767,0-17.713,7.946-17.713,17.713s7.946,17.712,17.713,17.712h55.135   c9.767,0,17.713-7.946,17.713-17.713C381.978,288.543,374.032,280.598,364.265,280.598z M364.265,301.45H309.13   c-1.732,0-3.139-1.408-3.139-3.139c0-1.731,1.408-3.139,3.139-3.139h55.135c1.732,0,3.139,1.408,3.139,3.139   S365.997,301.45,364.265,301.45z"/>
	<path style="fill:#1A1A1A;" d="M309.13,129.197h32.186c9.767,0,17.713-7.946,17.713-17.713s-7.946-17.713-17.713-17.713H309.13   c-9.767,0-17.713,7.946-17.713,17.713S299.364,129.197,309.13,129.197z M309.13,108.345h32.186c1.731,0,3.139,1.408,3.139,3.139   s-1.408,3.139-3.139,3.139H309.13c-1.732,0-3.139-1.408-3.139-3.139S307.399,108.345,309.13,108.345z"/>
	<path style="fill:#1A1A1A;" d="M309.13,253.747h32.186c9.767,0,17.713-7.946,17.713-17.713s-7.946-17.713-17.713-17.713H309.13   c-9.767,0-17.713,7.946-17.713,17.713S299.364,253.747,309.13,253.747z M309.13,232.895h32.186c1.731,0,3.139,1.408,3.139,3.139   c0,1.731-1.408,3.139-3.139,3.139H309.13c-1.732,0-3.139-1.408-3.139-3.139C305.991,234.304,307.399,232.895,309.13,232.895z"/>
</g>
<g>
</g>
<g>
</g>
<g>
</g>
<g>
</g>
<g>
</g>
<g>
</g>
<g>
</g>
<g>
</g>
<g>
</g>
<g>
</g>
<g>
</g>
<g>
</g>
<g>
</g>
<g>
</g>
<g>
</g>
</svg>
