<?xml version="1.0" encoding="iso-8859-1"?>
<!-- Generator: Adobe Illustrator 19.0.0, SVG Export Plug-In . SVG Version: 6.00 Build 0)  -->
<svg xmlns="http://www.w3.org/2000/svg" xmlns:xlink="http://www.w3.org/1999/xlink" version="1.1" id="Capa_1" x="0px" y="0px" viewBox="0 0 512 512" style="enable-background:new 0 0 512 512;" xml:space="preserve">
<path style="fill:#FFB427;" d="M290.694,502.144L290.694,502.144c-22.269,8.923-47.119,8.923-69.388,0l0,0  c-9.491-3.803-15.713-12.999-15.713-23.224v-68.794h100.814v68.794C306.407,489.145,300.185,498.341,290.694,502.144z"/>
<path style="fill:#FF9D00;" d="M281.214,410.127v68.794c0,10.225-6.222,19.421-15.713,23.224l0,0  c-7.156,2.867-14.58,4.801-22.097,5.825c15.877,2.164,32.178,0.23,47.291-5.825l0,0c9.491-3.803,15.713-12.999,15.713-23.224  v-68.794H281.214z"/>
<path style="fill:#FFDE3E;" d="M197.13,405.884h117.772c2.894,0,5.28-2.197,5.405-4.99c1.762-39.347,15.315-77.554,39.922-109.083  c16.46-21.09,26.219-47.334,26.219-75.783c0-69.9-58.909-126.509-131.381-126.015c-71.533,0.488-129.72,57.304-129.498,126.413  c0.089,27.788,9.489,53.457,25.344,74.251c24.545,32.192,39.084,70.403,40.812,110.194  C191.846,403.674,194.228,405.884,197.13,405.884z"/>
<path style="fill:#FCD400;" d="M255.066,90.014c-3.904,0.027-7.765,0.231-11.582,0.586c66.095,6.155,117.77,59.961,117.77,125.429  c0,28.449-9.759,54.693-26.219,75.783c-24.607,31.529-38.159,69.735-39.921,109.083c-0.125,2.793-2.511,4.99-5.405,4.99h25.193  c2.894,0,5.28-2.197,5.405-4.99c1.762-39.347,15.315-77.554,39.921-109.083c16.46-21.09,26.219-47.335,26.219-75.783  C386.447,146.128,327.538,89.52,255.066,90.014z"/>
<path style="fill:#D96B37;" d="M289.242,379.806h-66.469c-1.659,0-3.004,1.345-3.004,3.004v25.052h72.477V382.81  C292.246,381.151,290.901,379.806,289.242,379.806z"/>
<path style="fill:#B14418;" d="M289.242,379.806h-22.189v28.056h25.193V382.81C292.246,381.151,290.901,379.806,289.242,379.806z"/>
<g>
	<path style="fill:#1A1A1A;" d="M390.801,187.982c-0.883-3.994-4.83-6.518-8.83-5.633c-3.993,0.883-6.515,4.836-5.632,8.83   c1.794,8.114,2.703,16.475,2.703,24.85c0,25.933-8.524,50.563-24.65,71.226c-24.848,31.837-39.132,70.255-41.379,111.223h-6.598   h-6.763V382.81c0-4.384-2.728-8.136-6.572-9.668l13.848-103.011c0.426-3.176-0.898-6.349-3.453-8.278   c-1.556-1.176-3.411-1.797-5.362-1.797c-1.237,0-2.439,0.252-3.56,0.744l-17.268,7.545l-17.797-7.58   c-2.411-1.024-5.24-0.916-7.552,0.278l-14.755,7.6l-19.973-7.949c-2.884-1.158-6.314-0.674-8.777,1.244   c-2.477,1.932-3.759,5.069-3.343,8.196l5.568,41.416c0.546,4.054,4.279,6.894,8.327,6.353c4.054-0.545,6.899-4.273,6.354-8.327   l-4.22-31.386l13.72,5.46c1.99,0.792,4.226,0.683,6.13-0.297l15.281-7.871l18.174,7.74c1.876,0.799,3.999,0.789,5.867-0.027   l10.559-4.614L278.234,372.4H233.78l-3.724-27.703c-0.545-4.054-4.273-6.893-8.327-6.353c-4.054,0.545-6.899,4.273-6.354,8.326   l3.559,26.472c-3.844,1.532-6.572,5.284-6.572,9.668v15.668H205.6h-6.578c-2.171-40.096-16.745-78.878-42.221-112.291   c-15.507-20.337-23.746-44.468-23.828-69.784C132.765,151.256,187.558,97.88,255.116,97.42c0.296-0.002,0.587-0.003,0.882-0.003   c45.317,0,86.775,23.831,108.346,62.345c1.999,3.568,6.513,4.843,10.081,2.842c3.569-1.998,4.841-6.512,2.843-10.08   c-24.193-43.195-70.592-69.919-121.269-69.919c-0.327,0-0.656,0.001-0.983,0.003c-75.696,0.516-137.089,60.558-136.854,133.843   c0.093,28.571,9.381,55.791,26.861,78.717c24.07,31.57,37.66,68.233,39.302,106.028c0.297,6.782,5.922,12.094,12.806,12.094h1.064   v61.388c0,13.327,7.993,25.141,20.364,30.098C230.521,509.57,243.12,512,256.007,512s25.486-2.43,37.449-7.224   c12.371-4.957,20.364-16.772,20.364-30.098V413.29h1.082c6.875,0,12.499-5.299,12.803-12.064   c1.731-38.66,14.997-74.92,38.361-104.858c18.178-23.292,27.786-51.072,27.786-80.339   C393.853,206.58,392.826,197.144,390.801,187.982z M213.006,443.373h86.003v10.039h-86.003L213.006,443.373L213.006,443.373z    M227.174,387.212h57.667v11.266h-57.667L227.174,387.212L227.174,387.212z M299.009,413.29v15.271h-86.003V413.29H299.009z    M287.947,491.028c-10.202,4.088-20.948,6.161-31.939,6.161s-21.737-2.073-31.939-6.161c-6.72-2.693-11.062-9.111-11.062-16.35   v-6.454h86.003v6.454C299.009,481.917,294.667,488.335,287.947,491.028z"/>
	<path style="fill:#1A1A1A;" d="M488.178,232.178H441.81c-4.091,0-7.406,3.316-7.406,7.406s3.315,7.406,7.406,7.406h46.368   c4.091,0,7.406-3.316,7.406-7.406S492.268,232.178,488.178,232.178z"/>
	<path style="fill:#1A1A1A;" d="M70.191,232.178H23.822c-4.091,0-7.406,3.316-7.406,7.406s3.315,7.406,7.406,7.406h46.369   c4.091,0,7.406-3.316,7.406-7.406S74.282,232.178,70.191,232.178z"/>
	<path style="fill:#1A1A1A;" d="M392.624,365.734c-2.893-2.892-7.581-2.892-10.474,0c-2.892,2.892-2.892,7.581,0,10.473   l32.788,32.787c1.446,1.446,3.342,2.169,5.237,2.169s3.791-0.723,5.237-2.169c2.892-2.892,2.892-7.581,0-10.473L392.624,365.734z"/>
	<path style="fill:#1A1A1A;" d="M119.376,113.433c1.446,1.446,3.341,2.169,5.237,2.169c1.895,0,3.791-0.723,5.237-2.169   c2.892-2.892,2.892-7.581,0-10.473L97.063,70.172c-2.893-2.892-7.581-2.892-10.474,0c-2.892,2.892-2.892,7.581,0,10.473   L119.376,113.433z"/>
	<path style="fill:#1A1A1A;" d="M414.938,70.172L382.15,102.96c-2.892,2.892-2.892,7.581,0,10.473   c1.446,1.446,3.341,2.169,5.237,2.169c1.895,0,3.791-0.723,5.237-2.169l32.788-32.787c2.892-2.892,2.892-7.581,0-10.473   C422.52,67.28,417.832,67.28,414.938,70.172z"/>
	<path style="fill:#1A1A1A;" d="M119.376,365.734l-32.787,32.787c-2.892,2.892-2.892,7.581,0,10.473   c1.446,1.446,3.342,2.169,5.237,2.169s3.791-0.723,5.237-2.169l32.787-32.787c2.892-2.892,2.892-7.581,0-10.473   C126.957,362.842,122.269,362.842,119.376,365.734z"/>
	<path style="fill:#1A1A1A;" d="M256,61.18c4.091,0,7.406-3.316,7.406-7.406V7.406C263.406,3.316,260.091,0,256,0   s-7.406,3.316-7.406,7.406v46.368C248.595,57.864,251.91,61.18,256,61.18z"/>
</g>
<g>
</g>
<g>
</g>
<g>
</g>
<g>
</g>
<g>
</g>
<g>
</g>
<g>
</g>
<g>
</g>
<g>
</g>
<g>
</g>
<g>
</g>
<g>
</g>
<g>
</g>
<g>
</g>
<g>
</g>
</svg>
