<?xml version="1.0" encoding="iso-8859-1"?>
<!-- Generator: Adobe Illustrator 19.0.0, SVG Export Plug-In . SVG Version: 6.00 Build 0)  -->
<svg xmlns="http://www.w3.org/2000/svg" xmlns:xlink="http://www.w3.org/1999/xlink" version="1.1" id="Capa_1" x="0px" y="0px" viewBox="0 0 512.001 512.001" style="enable-background:new 0 0 512.001 512.001;" xml:space="preserve">
<polygon style="fill:#FFDE3E;" points="148.379,123.822 148.379,91.407 83.892,91.407 83.892,179.944 "/>
<polygon style="fill:#FCD400;" points="114.74,91.407 114.74,153.098 148.379,123.822 148.379,91.407 "/>
<path style="fill:#FFB427;" d="M253.618,80.898L67.906,242.522v231.936c0,6.132,4.971,11.104,11.104,11.104h354.308  c6.132,0,11.104-4.971,11.104-11.104V242.522L258.708,80.898C257.249,79.629,255.077,79.629,253.618,80.898z"/>
<path style="fill:#36677F;" d="M375.558,254.756h-238.79c-0.861,0-1.559,0.698-1.559,1.56v34.487c0,0.861,0.698,1.56,1.559,1.56  h238.79c0.861,0,1.559-0.698,1.559-1.56v-34.487C377.118,255.454,376.419,254.756,375.558,254.756z"/>
<path style="fill:#D96B37;" d="M375.558,254.756h-238.79c-0.861,0-1.559,0.698-1.559,1.56v34.487c0,0.861,0.698,1.56,1.559,1.56  h238.79c0.861,0,1.559-0.698,1.559-1.56v-34.487C377.118,255.454,376.419,254.756,375.558,254.756z"/>
<path style="fill:#FF8100;" d="M253.618,80.898l-14.776,12.859c66.587,56.891,172.56,148.747,172.56,148.747v231.953  c0,6.132-4.971,11.104-11.103,11.104h33.019c6.132,0,11.104-4.971,11.104-11.104V242.522L258.708,80.898  C257.249,79.629,255.077,79.629,253.618,80.898z"/>
<path style="fill:#D96B37;" d="M157.645,66.598H72.052c-2.272,0-4.114,1.842-4.114,4.114v21.44c0,2.272,1.842,4.114,4.114,4.114  h85.592c2.272,0,4.114-1.842,4.114-4.114v-21.44C161.758,68.44,159.916,66.598,157.645,66.598z"/>
<path style="fill:#FF4D4A;" d="M11.42,247.364h56.486v0.017L253.618,85.757c1.459-1.27,3.631-1.27,5.09,0L444.42,247.381v-0.017  h56.486c3.66,0,5.36-4.541,2.599-6.945L258.708,27.375c-1.459-1.27-3.631-1.27-5.09,0L8.821,240.42  C6.06,242.823,7.759,247.364,11.42,247.364z"/>
<rect x="150.8" y="408.28" style="fill:#575A60;" width="210.4" height="38.64"/>
<rect x="150.8" y="446.92" style="fill:#0072A2;" width="210.4" height="38.64"/>
<rect x="336.45" y="446.92" style="fill:#006289;" width="24.749" height="38.64"/>
<rect x="150.8" y="331" style="fill:#575A60;" width="210.4" height="38.64"/>
<rect x="150.8" y="369.64" style="fill:#0072A2;" width="210.4" height="38.64"/>
<rect x="336.45" y="331" style="fill:#3E4156;" width="24.749" height="38.64"/>
<rect x="336.45" y="369.64" style="fill:#006289;" width="24.749" height="38.64"/>
<rect x="336.45" y="408.28" style="fill:#3E4156;" width="24.749" height="38.64"/>
<rect x="150.8" y="289.45" style="fill:#0072A2;" width="210.4" height="41.555"/>
<rect x="336.45" y="289.45" style="fill:#006289;" width="24.749" height="41.555"/>
<g>
	<path style="fill:#B14418;" d="M375.557,254.756h-23.19v37.606h23.19c0.861,0,1.559-0.698,1.559-1.56v-34.487   C377.116,255.454,376.418,254.756,375.557,254.756z"/>
	<path style="fill:#B14418;" d="M157.481,66.598h-29.589v29.668h29.589c2.272,0,4.114-1.842,4.114-4.114v-21.44   C161.595,68.44,159.753,66.598,157.481,66.598z"/>
</g>
<path style="fill:#1A1A1A;" d="M508.124,234.926l-105.491-91.808c-3.034-2.64-7.634-2.321-10.276,0.713  c-2.641,3.034-2.322,7.635,0.713,10.276l98.788,85.974h-44.894L263.327,80.263c-4.178-3.636-10.477-3.635-14.653,0L65.036,240.08  H20.142l68.367-59.499l0.002-0.002l64.487-56.122c0.001-0.001,0.001-0.001,0.002-0.002l103-89.64l110.986,96.591  c3.035,2.641,7.636,2.321,10.276-0.713c2.641-3.034,2.322-7.635-0.713-10.276L263.327,21.881c-4.178-3.636-10.477-3.635-14.653,0  l-79.795,69.445V70.712c0-6.284-5.113-11.397-11.397-11.397H71.889c-6.284,0-11.397,5.113-11.397,11.397v21.44  c0,6.284,5.113,11.397,11.397,11.397h4.556v68.22l-72.57,63.157c-3.572,3.109-4.808,7.984-3.148,12.42s5.793,7.302,10.529,7.302  h49.203v129.535c0,4.023,3.261,7.284,7.284,7.284s7.284-3.261,7.284-7.284V250.698l45.13-39.276L256,93.198l135.844,118.224  l45.13,39.276v223.761c0,2.106-1.714,3.82-3.82,3.82h-64.671v-31.357v-38.64v-38.64v-38.64v-31.356h6.912  c4.876,0,8.843-3.967,8.843-8.843v-34.488c0-4.876-3.967-8.843-8.843-8.843h-238.79c-4.876,0-8.843,3.967-8.843,8.843v34.488  c0,4.876,3.967,8.843,8.843,8.843h6.912v31.356v38.64v38.64v38.64v31.357H78.846c-2.106,0-3.82-1.714-3.82-3.82v-55.802  c0-4.023-3.261-7.284-7.284-7.284s-7.284,3.261-7.284,7.284v55.802c0,10.139,8.248,18.387,18.387,18.387H150.8h210.4h71.954  c10.139,0,18.387-8.249,18.387-18.387V254.647h49.203c4.736,0,8.869-2.866,10.529-7.302S511.696,238.034,508.124,234.926z   M75.059,73.882h79.252v15.1h-6.096H83.729h-8.67V73.882z M140.932,103.549v12.097l-49.92,43.445v-55.542H140.932z M158.084,376.926  h195.833v24.073H158.084V376.926z M353.916,362.359H158.084v-24.073h195.833v24.073H353.916z M158.084,415.566h195.833v24.073  H158.084V415.566z M142.329,262.04h227.342v23.039h-8.462c-0.003,0-0.006,0-0.009,0H150.8c-0.003,0-0.006,0-0.009,0h-8.462V262.04z   M353.916,299.646v24.073H158.084v-24.073H353.916z M158.084,478.279v-24.073h195.833v24.073H158.084z"/>
<g>
</g>
<g>
</g>
<g>
</g>
<g>
</g>
<g>
</g>
<g>
</g>
<g>
</g>
<g>
</g>
<g>
</g>
<g>
</g>
<g>
</g>
<g>
</g>
<g>
</g>
<g>
</g>
<g>
</g>
</svg>
